<svg id="Capa_1" data-name="Capa 1" xmlns="http://www.w3.org/2000/svg" viewBox="0 0 335.63 529.59"><defs><style>.cls-1{fill:#424190;}.cls-2{fill:#ffdfc3;}.cls-3{fill:gray;}.cls-4{fill:#d9def0;}.cls-5{fill:#ffdf3f;}.cls-6{fill:none;opacity:0.14;}.cls-7{fill:#420068;}.cls-8{fill:#563374;}.cls-9{fill:#2c0051;}.cls-10{fill:#bfa792;}.cls-11{fill:#fffb68;}.cls-12{fill:#120076;}.cls-13{fill:#fff2c3;}.cls-14{fill:#160029;}</style></defs><title>angel1</title><path class="cls-1" d="M8.5,191.3" transform="translate(421.89 8.24)"/><polygon class="cls-2" points="287.63 213.39 289.29 225.06 291.63 235.06 298.96 241.06 305.29 250.06 322.63 286.39 330.29 298.06 335.63 302.72 332.63 312.72 326.96 319.72 323.29 322.72 324.96 316.06 320.63 320.72 318.29 319.72 321.63 314.06 317.96 316.06 321.96 310.39 315.96 311.06 321.96 307.39 321.63 301.06 317.63 299.06 312.63 292.06 313.63 286.06 292.63 261.06 283.96 249.72 275.29 216.39 278.29 208.39 286.13 210.39 287.63 213.39"/><path class="cls-3" d="M-150.36,167.8a67.38,67.38,0,0,0,1-10.85c-.32-6.89-.6-17.15-4.28-28.64-1-2.87-1.88-5.83-3.12-8.93s-2.48-6.2-4-9.39a47.76,47.76,0,0,0-2.43-4.7c-.88-1.64-1.81-3.15-2.69-4.8-1.06-1.56-2-3.07-3-4.63a57.45,57.45,0,0,0-3.31-4.72c-2.3-3-4.67-6.25-7.32-9.11-1.37-1.52-2.65-2.87-4-4.39s-2.83-2.78-4.29-4a219.72,219.72,0,0,0-18.49-15.34c-13-9.25-26.29-17.41-38.87-24.59-12.49-7.44-24.45-13.51-34-19.74S-297,2.68-302.24-1.56c-2.8-2-4.69-3.75-6.2-4.88a19.13,19.13,0,0,1-2.15-1.8s.59.8,1.52,2.32,2.45,3.83,4.53,6.64C-300.1,6-294,13.93-284.95,21.6s19.69,16.51,31.59,24.77c11.81,8.52,24.9,16.76,36.83,25.77,6.08,4.4,12.11,8.92,17.48,13.65,1.33,1.21,2.71,2.3,4,3.51s2.48,2.51,3.81,3.73c2.53,2.38,4.84,5,7.14,7.58a141.52,141.52,0,0,1,21.36,31.1,138.88,138.88,0,0,1,10,25.53A88.65,88.65,0,0,1-150.36,167.8Z" transform="translate(421.89 8.24)"/><path class="cls-3" d="M-153.7,173.82l-.13,0c-.13,0-.21-.22-.3-.4a18.14,18.14,0,0,1-.3-2c-.09-1.8-.33-4.39-.61-7.73-1-6.56-2.2-16.4-7.16-27.17s-12-23-22.75-33.37c-10.49-10.55-23.39-19.31-36.22-27.46-13.1-7.8-26.21-15.17-38.41-21.77s-23.59-12.61-32.65-19c-9-6.17-16.43-11.65-21-16.23a44.29,44.29,0,0,1-5.26-5.43c-1.15-1.3-1.75-2.1-1.75-2.1s.42.89,1,2.57a71.14,71.14,0,0,0,3.39,7c1.77,2.85,4.06,6.32,6.82,10.11a100.89,100.89,0,0,0,10.68,11.65,249.45,249.45,0,0,0,30.86,24.35c11.82,8.08,24.75,15.53,37.23,23.41a323.52,323.52,0,0,1,35.12,24c10.24,8.39,18.7,17.62,24.53,26.79s10.11,17.33,12.47,23.48c1.29,3,2.33,5.4,3,7.13a6.51,6.51,0,0,0,1,1.82c.08.18.3.4.47.32Z" transform="translate(421.89 8.24)"/><path class="cls-3" d="M-157.09,180a.81.81,0,0,1-.57-.06,1.89,1.89,0,0,1-1-1.25,65.32,65.32,0,0,1-1.77-6.53c-1.67-5.61-3.7-14.29-9.22-23.49a114.89,114.89,0,0,0-10-14,88,88,0,0,0-13.93-13.26c-10.28-8.26-22.17-15.34-33.94-21.93-12-6.38-24-12.31-35.18-17.66-11.09-5.61-21.63-10.28-30.1-15.39-4.24-2.55-7.95-4.92-11.4-7.19a72.6,72.6,0,0,1-8.36-6.25,33.12,33.12,0,0,1-2.92-2.52,15.78,15.78,0,0,1-2.06-2.06l-1.71-1.79s.33.71,1,2.26l1.25,2.66a19.89,19.89,0,0,0,2,3.51c1.74,2.54,3.73,5.61,6.5,9a86.11,86.11,0,0,0,10,10.23A224,224,0,0,0-270.11,95c10.8,6.83,22.71,13,34.34,19.57,11.78,6.15,23.15,12.6,33.35,19.06a156.72,156.72,0,0,1,14,9.89,87.06,87.06,0,0,1,11,10.74,157.79,157.79,0,0,1,14,19.18,50.36,50.36,0,0,0,4.12,5.75c.64.67,1.12,1,1.55,1S-157,179.83-157.09,180Z" transform="translate(421.89 8.24)"/><path class="cls-3" d="M-160.43,186a1.71,1.71,0,0,1-.49.12,1.55,1.55,0,0,1-1.3-.47c-1-.81-1.74-2.54-2.47-5-1.91-4.52-3.75-12.1-9.88-19.61a51.56,51.56,0,0,0-11.37-10.57,53.73,53.73,0,0,0-7.44-4.3c-1.39-.65-2.51-1.2-3.64-1.75s-2.43-1-3.69-1.62c-9.76-4.39-20.36-8.5-30.77-13.13-10.55-4.24-20.88-8.69-30.6-12.78-9.63-4.35-18.79-7.94-26.2-11.93S-302,97.77-306.18,95c-2.21-1.24-3.8-2.54-4.88-3.23-1.16-.86-1.77-1.23-1.77-1.23l1.14,1.74c.76,1.16,1.73,3,3.3,5.16,3.28,4,7.87,10,14.84,15.65a191.76,191.76,0,0,0,24.79,17.46,269.2,269.2,0,0,0,30.9,15.24c10.81,4.33,21.77,8.27,32.13,11.41,1.35.34,2.52.76,3.88,1.1s2.39.71,3.61,1c2.13.62,4.22,1.37,6.31,2.12a38.91,38.91,0,0,1,10.68,6.34,103.18,103.18,0,0,1,13.9,14.57c.86.9,1.71,1.79,2.48,2.51a6.9,6.9,0,0,0,2.29,1.41,2.25,2.25,0,0,0,1.67-.14A1.72,1.72,0,0,0-160.43,186Z" transform="translate(421.89 8.24)"/><path class="cls-3" d="M-163.77,192a5.4,5.4,0,0,1-1.62,0,5.58,5.58,0,0,1-3.63-2.19c-2.71-2.3-5.25-7.93-10.91-13.06a56.23,56.23,0,0,0-10.17-7.34,29.86,29.86,0,0,0-6.51-2.78,29.26,29.26,0,0,0-3.48-1c-1.09-.24-2-.57-3.09-.82-8.06-2.16-16.69-4.38-25.3-7-8.58-2.35-17.15-5.14-25.29-7.48-8-2.6-15.76-4.49-22.15-6.79s-12.05-3.75-16-5.15-6.22-1.94-6.22-1.94,1.58,1.75,4.44,4.84c3.14,2.75,7.28,7.19,13.29,11s12.95,8.63,21.06,12.29a185.1,185.1,0,0,0,26,9.95c9.15,2.41,18.52,4.6,27.4,5.29,1.14.11,2.14.18,3.28.3a14.62,14.62,0,0,1,2.71.24c1.71.17,3.49.52,5.15.82a33.31,33.31,0,0,1,9.21,3.46c5.54,3,10.68,6.34,14.93,8a7.3,7.3,0,0,0,5.26.12A4,4,0,0,0-163.77,192Z" transform="translate(421.89 8.24)"/><path class="cls-3" d="M-167,198.05a10.89,10.89,0,0,0-1.36.1,13.94,13.94,0,0,1-3.77-.18,19.72,19.72,0,0,1-5.32-1.18c-2-.7-4.13-1.63-6.56-2.65-4.78-1.87-10.53-5.11-17.41-7.29-3.57-1.14-6.79-2-10.28-3s-6.84-1.87-10.37-2.7c-7.11-1.53-14-3.27-20.68-4.34-6.59-1.34-13.07-1.75-18.48-2.67s-10.2-.72-13.43-1.15c-3.37,0-5.26-.12-5.26-.12s1.51,1.13,4.13,3.25c2.76,1.73,6.64,4.89,11.66,7.29s10.78,5.65,17.26,8.12a194,194,0,0,0,20.75,6.58c3.71.74,7.24,1.57,10.82,2.27s7.25,1.14,10.35,1.52c6.42,1,13,1.45,18.89,1.94a38.16,38.16,0,0,0,8.25-.42,28.73,28.73,0,0,0,6.19-2,15.08,15.08,0,0,0,3.34-2.33C-167.38,198.35-167,198.05-167,198.05Z" transform="translate(421.89 8.24)"/><path class="cls-3" d="M-170.32,204.06s-1.44-.08-3.94-.09a34,34,0,0,1-4.43,0c-1.62,0-3.55,0-5.53.22-.92.11-2,.17-3,.24s-2.06,0-3.24,0c-2.24.08-4.56,0-6.84.19-4.74.06-9.66.65-14.57.8-5.05.54-10,.69-14.76,1.32-4.7.37-9.37,1.49-13.33,1.83s-7.49,1.58-9.82,1.92c-2.47.73-3.93,1.09-3.93,1.09s1.16.86,3.32,2.23c2.12,1.06,5.32,3.24,9.27,4.51s8.61,3.1,13.81,3.79c5.24,1,10.85,1,16.51.78a76,76,0,0,0,16.29-3.12,51.24,51.24,0,0,0,7.08-2.9c1.06-.5,2.17-1.13,3.24-1.63s2-1,2.93-1.6a25.26,25.26,0,0,0,4.77-3.44c1.3-1.15,2.42-2.22,3.45-3C-171.31,205.18-170.32,204.06-170.32,204.06Z" transform="translate(421.89 8.24)"/><path class="cls-4" d="M-165.74,180.31a81.08,81.08,0,0,0-3.34-12.67c-3.17-7.67-7.67-19.18-16.51-30.69-2.33-2.84-4.5-5.84-7.17-8.84-2.5-3-5.34-6-8.34-9a57.47,57.47,0,0,0-4.67-4.34c-1.67-1.5-3.34-2.84-5-4.34-1.83-1.33-3.5-2.67-5.34-4a69.13,69.13,0,0,0-5.67-4c-3.84-2.5-7.84-5.17-12-7.34-2.17-1.17-4.17-2.17-6.34-3.34-2.17-1-4.34-2-6.5-2.84a264.41,264.41,0,0,0-27.18-9.84c-18.51-5.17-36.86-9-54-12C-345,63.74-361,61.74-374.36,58.57s-24.68-5.5-32.35-8.17c-4-1.17-6.84-2.33-9-3a23,23,0,0,1-3.17-1.17s1,.67,2.67,2c1.83,1.33,4.34,3.34,7.84,5.67,7.17,4.17,17.34,10.67,30.69,15.68s29,10.67,45.86,15.18c16.84,4.84,35,8.84,52.2,14.18,8.67,2.5,17.34,5.17,25.35,8.34,2,.83,4,1.5,6,2.33s3.84,1.83,5.84,2.67c3.84,1.67,7.5,3.67,11.17,5.67a170.3,170.3,0,0,1,36.86,26.52c9.67,9.34,17.18,18.18,21.68,24.85A106.69,106.69,0,0,1-165.74,180.31Z" transform="translate(421.89 8.24)"/><path class="cls-4" d="M-167.07,188.49h-.17c-.17,0-.33-.17-.5-.33a21.83,21.83,0,0,1-1.17-2.17c-.83-2-2.17-4.84-3.84-8.51-3.84-7-9.17-17.68-19.18-27.85-9.84-10.17-23-21.18-39.36-28.52-16.18-7.67-34.35-12.34-52.2-16.34-18-3.5-35.85-6.5-52.36-9-16.51-2.67-31.85-4.67-44.69-8.17-12.67-3.34-23.35-6.5-30.35-9.84a53.3,53.3,0,0,1-8.17-4c-1.83-1-2.84-1.67-2.84-1.67s.83.83,2.17,2.5a85.6,85.6,0,0,0,6.67,6.5c3.17,2.5,7.17,5.5,11.84,8.67a121.42,121.42,0,0,0,16.84,8.84,300.19,300.19,0,0,0,44.86,15c16.68,4.34,34.35,7.5,51.7,11.34,17.51,3.5,34.52,7.67,49.53,12.84,15,5.34,28.35,12.34,38.69,20.35,10.17,8,18.51,15.51,23.68,21.51,2.67,2.84,4.84,5.17,6.34,6.84a7.84,7.84,0,0,0,1.83,1.67c.17.17.5.33.67.17C-167.07,188.65-167.07,188.49-167.07,188.49Z" transform="translate(421.89 8.24)"/><path class="cls-4" d="M-168.41,196.82a1,1,0,0,1-.67.17,2.28,2.28,0,0,1-1.67-1,78.6,78.6,0,0,1-4.67-6.67c-4.17-5.67-10-14.68-20-22.85a138.26,138.26,0,0,0-17-11.84,105.86,105.86,0,0,0-21.18-9.34c-15-5.17-31.35-8.34-47.36-11-16.18-2.33-32.19-4.17-47-5.67-14.84-1.83-28.68-2.84-40.36-5.17-5.84-1.17-11-2.33-15.84-3.5a87.37,87.37,0,0,1-12-3.67,39.86,39.86,0,0,1-4.34-1.67,19,19,0,0,1-3.17-1.5l-2.67-1.33s.67.67,2,2.17l2.5,2.5a23.94,23.94,0,0,0,3.67,3.17c3,2.17,6.5,4.84,11,7.5a103.62,103.62,0,0,0,15.51,7.5,269.58,269.58,0,0,0,40.69,12c15,3.34,31,5.5,46.86,8.17,15.84,2.17,31.35,4.84,45.53,8a188.59,188.59,0,0,1,19.85,5.5A104.76,104.76,0,0,1-201.93,176a189.88,189.88,0,0,1,23.68,16,60.61,60.61,0,0,0,7,4.84,3,3,0,0,0,2.17.5C-168.57,197-168.41,196.66-168.41,196.82Z" transform="translate(421.89 8.24)"/><path class="cls-4" d="M-169.74,205a2.06,2.06,0,0,1-.5.33,1.86,1.86,0,0,1-1.67,0c-1.5-.5-3-2.17-4.84-4.67-4-4.34-9.17-12.17-19.18-18.18a62,62,0,0,0-17.18-7.34,64.66,64.66,0,0,0-10.17-1.83c-1.83-.17-3.34-.33-4.84-.5s-3.17-.17-4.84-.33c-12.84-1-26.52-1.33-40.19-2.33-13.67-.5-27.18-1.33-39.86-2-12.67-1-24.51-1.33-34.52-2.84s-18.51-2.5-24.35-4c-3-.5-5.34-1.33-6.84-1.67-1.67-.5-2.5-.67-2.5-.67l2,1.5c1.33,1,3.17,2.67,5.84,4.5,5.34,3.17,13,8.17,23.18,11.67s22,7.34,35.19,9.67A324,324,0,0,0-273.8,191c14,.5,28,.5,41-.17,1.67-.17,3.17-.17,4.84-.33,1.5-.17,3-.17,4.5-.33,2.67-.17,5.34-.17,8-.17a46.82,46.82,0,0,1,14.68,2.84,124.16,124.16,0,0,1,21.68,10.84c1.33.67,2.67,1.33,3.84,1.83a8.3,8.3,0,0,0,3.17.67,2.71,2.71,0,0,0,1.83-.83A2.06,2.06,0,0,0-169.74,205Z" transform="translate(421.89 8.24)"/><path class="cls-4" d="M-171.07,213.17a6.5,6.5,0,0,1-1.83.67,6.71,6.71,0,0,1-5-1c-4-1.5-9.17-6.84-17.68-10.34a67.67,67.67,0,0,0-14.51-4.17,35.93,35.93,0,0,0-8.51-.5,35.22,35.22,0,0,0-4.34.33c-1.33.17-2.5.17-3.84.33-10,.83-20.68,1.83-31.52,2.33-10.67.83-21.51,1.17-31.69,1.83-10.17.33-19.68,1.33-27.85,1.33s-15.18.67-20.18.67c-5,.17-7.84.33-7.84.33s2.5,1.33,7,3.67c4.67,1.83,11.17,5.17,19.51,7s18.18,4.5,28.85,5.34a222.75,222.75,0,0,0,33.52.67c11.34-1,22.85-2.33,33.19-5.17,1.33-.33,2.5-.67,3.84-1a17.59,17.59,0,0,1,3.17-.83c2-.5,4.17-.83,6.17-1.17a40.09,40.09,0,0,1,11.84.17c7.5,1.17,14.68,2.84,20.18,3a8.78,8.78,0,0,0,6-2A4.85,4.85,0,0,0-171.07,213.17Z" transform="translate(421.89 8.24)"/><path class="cls-4" d="M-172.24,221.34a13.11,13.11,0,0,0-1.5.67,16.77,16.77,0,0,1-4.34,1.33c-1.67.67-4,.67-6.5.83-2.5,0-5.34-.17-8.51-.33-6.17-.17-14-1.5-22.68-1.17-4.5.17-8.51.5-12.84.83-4.17.33-8.51.67-12.84,1.17-8.67,1.17-17.18,2-25.18,3.5-8,1.17-15.51,3.34-22,4.5s-11.84,3.34-15.68,4.17c-3.84,1.33-6,2-6,2s2.17.67,6,2c3.84.83,9.51,2.84,16.18,3.5s14.51,2,22.85,2.17c8.34.33,17.34-.33,26.18-1,4.5-.67,8.84-1.17,13.17-1.83s8.67-1.67,12.34-2.5c7.67-1.5,15.34-3.67,22.18-5.5a45.92,45.92,0,0,0,9.17-3.84,34.57,34.57,0,0,0,6.17-4.84,18.15,18.15,0,0,0,2.84-4C-172.58,221.84-172.24,221.34-172.24,221.34Z" transform="translate(421.89 8.24)"/><path class="cls-4" d="M-173.58,229.51s-1.67.5-4.5,1.5a40.94,40.94,0,0,1-5,1.83c-1.83.67-4,1.5-6.17,2.5-1,.5-2.17,1-3.34,1.5s-2.33.83-3.67,1.33c-2.5,1-5.17,1.83-7.67,3-5.34,2-10.67,4.67-16.18,6.84-5.5,2.67-11,4.84-16.18,7.5-5.17,2.33-10,5.5-14.34,7.5s-7.84,4.84-10.34,6.17c-2.5,1.83-4,2.84-4,2.84s1.67.5,4.67,1.17c2.84.33,7.34,1.5,12.34,1.33s11,0,17.18-1.33c6.34-1,12.67-3.34,19-5.84a91.49,91.49,0,0,0,17.18-10.17,61.66,61.66,0,0,0,6.84-6.17c1-1,2-2.17,3-3.17.83-1,1.83-2,2.67-3a30.4,30.4,0,0,0,4-5.84c1-1.83,1.83-3.5,2.67-4.84C-174.24,231.18-173.58,229.51-173.58,229.51Z" transform="translate(421.89 8.24)"/><ellipse class="cls-5" cx="-191.34" cy="79.4" rx="31.01" ry="10.1" transform="translate(335.63 -90.89) rotate(-36.98)"/><ellipse class="cls-6" cx="-189.58" cy="78.94" rx="25.48" ry="5.77" transform="translate(336.26 -89.92) rotate(-36.98)"/><path class="cls-2" d="M-200.26,159.14c-1.62.89-2.28.2-4,1-5.21,2.44-5.81,12-6,15-.44,7.06,1.43,8.18,0,13-1.19,4-3,4.37-5,9-.53,1.22-1.92,4.62-3,13.5-1.51,12.46.16,14.6-2,21-1.41,4.19-2.81,5.29-6,10.5a102.63,102.63,0,0,0-11.5,27.5c-4.63,17.09-1,20-6.5,27-4.64,5.83-9.9,7-10.83,13.17-.82,5.4,2.19,11.23,2.33,11.5.66,1.24.65.89,3.67,5.17,4.23,6,5.59,8.58,6.17,8.33.3-.13-1-2.33-.33-3,.92-.89,4.38,1.74,4.83,1.17s-1.62-2.68-2.5-3.67c-2.24-2.5-4-3.87-3.83-4.17s.94.37,2.5.67c1.82.35,3.62.15,3.67-.17s-1.62-.39-3.5-1.67c-1.43-1-2.84-2.52-2.5-3.17s2.43.18,2.83-.5c.63-1.06-4-3.73-3.5-6.33.17-.84.65-.6,2.83-3a50.28,50.28,0,0,0,3.33-4.17,27.12,27.12,0,0,1,1.5,5c.65,4.11-1.31,7.22-.17,10.33.11.31.27.64.5.67.7.07,1.73-2.7,2-5.33a14.62,14.62,0,0,0,0-2.83c-.31-4,1.13-6.53,1.91-10.17,1.05-4.88-.27-6.22.09-10.33.34-3.83,2.53-5.4,8-15,13.22-23.18,15.74-24.77,17-32.5,1-6.13,0-8.41,2-15.5,1.86-6.43,3.64-7.72,6.5-14.5,5.09-12.06,5.65-22.61,6.5-22.5s-1.76,8,2.5,13.5c3,3.87,6.33,2.72,9.48,6,5,5.25,3.62,15.52,1,22-4.21,10.46-10.89,9-17,20-1,1.76-6.7,12.35-4.5,24.5,1.53,8.47,5.57,10.27,13.5,24.5,6.34,11.38,4.72,12,9.5,20.5,13.25,23.7,30.23,27.3,29,39.5-.59,5.82-4.49,5.47-8,15.5-1.44,4.11-2.28,8.45-2,24,.18,10.21.93,29.38.5,43-.16,5.2-.47,8.71-2.5,12.5-2.26,4.22-4.71,5.15-5,8.5-.23,2.65,1.11,4.21,5,10a148,148,0,0,1,8.5,13.5c4.35,8.29,2.82,9.88,6,13,5.75,5.64,16.4,5.94,18,3,1.25-2.29-2.84-6.78-3.5-7.5-3.94-4.32-7-3.5-10-6.5-3.59-3.58-2.34-7.83-3.5-17.5-1.26-10.54-3.44-11.28-4.5-19-.47-3.41-.59-7.22,4.5-28.5,5.05-21.12,7.58-31.69,11-38,.76-1.4,3.34-6.76,8.5-17.5,2.46-5.12,3.26-6.82,3.5-9.5.52-5.73-2.05-9.6-5.5-16.5-3.07-6.15-5.3-12.68-8-19-5.33-12.49-8-18.86-9.5-24.5-2.35-9-3.88-15.28-1-21.5,2.45-5.28,5.32-4.58,8-10,2.92-5.91,1.17-10.08.5-22-.62-11.05.82-8.57.5-23-.33-14.59-1.9-21.28,2.5-25,2.5-2.11,4.57-.93,7-3.5,3.13-3.32,3.7-9.33,2-14-3.21-8.84-13.7-10.61-13-15.5.37-2.59,3.35-2.6,4-6,.68-3.58-2-7.55-5-9.5-2.59-1.69-4-.9-5.83-1.83-7.23-3.58.05-21.55-7.17-28.17-5.86-5.37-18.83-1-25.5,3-1.79,1.08-14.29,8.66-16.5,21C-196.42,151.29-196.48,157.07-200.26,159.14Z" transform="translate(421.89 8.24)"/><path class="cls-2" d="M-182.76,494.64c-.58,6.29-2.69,9.86-4.5,12-1.5,1.78-2.66,3.15-4.5,3.5-5,.94-11.55-6.17-13-13.5-1-4.8,1.24-5,2-14,.47-5.66,1.06-12.68-2-20-2-4.79-3.9-5.7-3.5-8.5.67-4.71,6.49-5.37,11-10,4.85-5,5.13-12.55,5.5-27.5.51-20.72-2.75-21.35,0-28.5,4.4-11.43,13.54-11.93,16-22,2.11-8.63-3-15.19-5.5-21.5-8.15-20.37,2.94-45.15,15.5-60,1.93-2.28,14.42-19.82,22-17,1.42.53,4.06,2.29,5.5,11.5,4,25.61-12.77,35.64-14.5,66.5-.37,6.65,0,12.55-2.5,21.5-1.71,6-4.45,12.31-8,20.5-2.26,5.22-4,9-4.5,10-10.14,21.78-17.29,37.14-18,55.5-.48,12.35-.73,19,1.5,27.5A38.25,38.25,0,0,1-182.76,494.64Z" transform="translate(421.89 8.24)"/><path class="cls-7" d="M-199.76,157.14a22,22,0,0,0-5.83,3.33c-1.27,1.12-3.13,3.31-4.67,14.67-1.51,11.14-.54,12.48,0,13,2.36,2.28,7.86,2.32,10,2.33,1.84,0,2.33,0,2.33,0,3.17-.08,3.77-.41,4.33,0,1.13.81.22,3.18,0,6-.09,1.12-.6,7.09,2.83,11.17,3.89,4.61,10.45,4.93,11.52,5l.48,0c7.88.2,16-5,16-5a39.08,39.08,0,0,1,11-2c6.39,0,8.24,2.7,11.5,1,2-1.06,1.56-2.25,4.5-4.5,3.24-2.48,4.59-1.64,7-3.5,4.82-3.72,4.52-11.05,4.5-11.5-.09-1.62-.29-5.45-3-8-2.34-2.2-4-1-6.5-3.5-1.78-1.74-3.74-5.06-3-7.5.15-.51.47-1.58.85-3.23a7.08,7.08,0,0,0,.15-1.77c-.08-3.85-4.07-11.88-5-11.49-.15.06-.31.4,0,2a4,4,0,0,0-3-1.5c-4.1.17-4.2,9.4-11,13.5-2.9,1.75-6,1.62-9,1.5-4.87-.2-8.5-2-11.5-3.5-5-2.52-4.85-3.76-10-6-4.71-2-7.26-2.07-8.5-2l-.36,0A17.45,17.45,0,0,0-199.76,157.14Z" transform="translate(421.89 8.24)"/><path class="cls-8" d="M-194.26,254.31c4.64-1.94,10.12,9.49,24.5,17.5,6.36,3.54,13,7.25,19,5,8.85-3.32,10.27-17.5,12.5-17,1.11.25,1.07,3.82,1,15.33-.12,19.4-.09,20-.33,23-.6,7.41-1.21,8.62-1,13.67a56.69,56.69,0,0,0,2.33,14c1.76,5.78,3.24,7,7,14.67,5.26,10.7,7.89,16,7.67,22.33s-3.94,9.09-6.67,16c-6.27,15.88-10.15,28.41-12,34.67-6,20.24-9,30.59-8.33,41.67a115.41,115.41,0,0,0,3.33,20c2.38,10.06,3.58,15.09,6.67,18.67,5.29,6.12,11,5.85,13,12,.85,2.59,1.26,7-1,9-3.14,2.83-8.06-1.84-14.67.67-5.2,2-6,6.32-8.5,5.83-4.75-.94-4.52-17.35-7.5-17.5-2-.1-2.35,7.13-6,8-4.9,1.17-9.61-10.63-15-9.5-2.85.6-2.45,4.09-7,7a16.08,16.08,0,0,1-11,2c-4.38-.94-4.42-3.37-9-4.5-5.32-1.31-8.45,1.18-9.67-.33-1.44-1.8,2.54-5.86,6.33-13.67,3.37-6.93,7.44-15.3,4.83-23-1.25-3.71-3.09-4.4-3.5-8.5-.38-3.77.57-9.07,4-11,1.43-.81,1.88-.27,3.5-1,2.7-1.22,4.29-4,6.17-10.17,1.65-5.38,2.47-8.07,3-13.33,1-10.32-.72-12.87-.33-25,.23-7.44.35-11.16,1.33-13.67,3.89-9.91,12.23-10.49,14.83-20.33a21,21,0,0,0,.17-10.67c-1.33-5.09-4-6.41-6.17-13.33a41.36,41.36,0,0,1-1.5-7.33c-.62-4.64-.76-10.17,0-13a30.71,30.71,0,0,0,.67-3,15.45,15.45,0,0,0,.31-2.36c.08-2-8.47-13.81-8.48-13.81h0c4.41,7.09-8.91-14.42-11-22.5-1.39-5.37-1.25-8.6-.83-11a30.39,30.39,0,0,1,2.67-7.67C-196.73,257.3-195.63,254.88-194.26,254.31Z" transform="translate(421.89 8.24)"/><path class="cls-9" d="M-147.6,182.81c.43-.09.85,4.07,4.33,8.67,1.82,2.4,3.89,5.13,7,5.33,3.94.26,6.93-3.69,7.67-4.67,3.57-4.72,2.81-10,3.33-10s2.06,6.95-1,12.67a11.21,11.21,0,0,1-4.67,5c-1.21.61-1.45.37-2.67,1a11.88,11.88,0,0,0-3.75,3.45c-.73,1-1.06,1.62-1.25,1.55s.51-1.8.33-3.33c-.35-3.06-4.43-3.52-6.33-6.67C-148.34,189.64-148,182.9-147.6,182.81Z" transform="translate(421.89 8.24)"/><path class="cls-9" d="M-143.54,163.62a12.39,12.39,0,0,1,2.75,1h0c2.27-2.71,2.72-2.63,2.72-2.63,1,.17.83,5.55-1,6S-144.07,164-143.54,163.62Z" transform="translate(421.89 8.24)"/><path class="cls-10" d="M-174.26,135.48c.9,0,.75,3.09,3.68,5.46,1.89,1.53,3.89,1.79,7,2.21,3.86.51,8,1.07,10.67-1.33,2-1.78,1.86-4.07,2.33-4,1.22.18.91,15.41-2.33,16-1.3.24-2.13-2.18-4.67-2a12.65,12.65,0,0,0-3.67,1.33s-.44,3.21-1.67,3.67-2.5-2.85-5.67-3.67c-2.91-.75-4.33,1.38-6,.67C-178.8,152-176.32,135.56-174.26,135.48Z" transform="translate(421.89 8.24)"/><path class="cls-10" d="M-208.76,238.64c.64-2,.8-3.27,1-3.25.48.06-.07,7.8-.5,11.25h0a24,24,0,0,1-1.25,5.25c-1,2.56-2.25,3.9-3.26,6.23,0,.08-.12.29-.26.57-.37.72-.94,1.44-4.28,6.9-2.43,4-4.59,7.51-6.66,11.2-3.76,6.74-5.65,10.1-7,14.31-2.39,7.67-1.91,13.39-2.42,13.38s-1.48-5.31-.3-11.2c.61-3.05,1.4-4.21,5.45-12.13,2-3.82,4.08-7.58,7.56-15.55,1.91-4.37,3.43-8.54,3.59-9l.35-1a82.29,82.29,0,0,1,4.2-9.49C-210.25,241.74-209.65,241.37-208.76,238.64Z" transform="translate(421.89 8.24)"/><path class="cls-10" d="M-145.1,237.15c-.3-.13-1.53,2.39-.93,4.07.47,1.33,1.85,1.5,2,1s-.43-.81-.78-2.29S-144.91,237.23-145.1,237.15Z" transform="translate(421.89 8.24)"/><path class="cls-9" d="M-153.6,282.48c.27-.35,2.1,1.38,4.67,1.33s4.35-1.74,5.33-2.67c4.89-4.59,5.5-11.37,5.67-11.33s-4,18.38-5,22.67c-.83,3.56-2.61,11.28-3.33,11.17s1.93-8.44-2.33-15.17C-150.64,285.26-153.94,282.92-153.6,282.48Z" transform="translate(421.89 8.24)"/><ellipse class="cls-11" cx="-200.85" cy="171.81" rx="9.33" ry="7.92" transform="translate(121.78 -64.91) rotate(-71.51)"/><path class="cls-12" d="M-172.76,213.27" transform="translate(421.89 8.24)"/><path class="cls-9" d="M-182.6,239.81c-.44-.45,2.07-2.56,3.67-7.33a13.5,13.5,0,0,0,1-6.67c-.37-2.42-1.72-4.26-4.33-8a45.52,45.52,0,0,0-3.11-4c-1.63-1.86-2.19-2.56-3.55-4.3-1.18-1.52-2.26-3-2.67-3.67-2-3.17-1.93-7-1.67-11.67.61-10.83.92-16.25,2-16.33,1.81-.14,3.53,12.19,5.67,12,1.59-.15,1.9-6.67,3-6.67,1.47,0-.26,11.63,5.67,16.67,5.48,4.66,17.14,3.39,21.33-2.67,2.14-3.09,1.93-6.83,1.67-11.67a36.32,36.32,0,0,0-2.67-12c.07,0,6.07,9.66,4.33,21-.06.42-1.47,10-7.45,14.59a17.13,17.13,0,0,1-2.22,1.41c-3.39,1.78-5,.41-10,1.67a20.92,20.92,0,0,1-3.67.67,6.61,6.61,0,0,1-3.17-.17c-2.06-.82-2.7-3.23-2.83-3.17s1.2,3.85,3.67,7a15.75,15.75,0,0,0,1.73,2c1.46,1.38,2.41,1.62,3.27,3.37s1.37,6.81-1.67,11.67C-177.4,237.95-182.05,240.37-182.6,239.81Z" transform="translate(421.89 8.24)"/><ellipse class="cls-2" cx="262.58" cy="128.39" rx="17.05" ry="23"/><path class="cls-13" d="M-156.6,101.48c-3.26-.74-3.81-1.77-5.33-2-4.37-.65-10.1,6.32-12.67,13-2.73,7.11-1.68,13.33.83,25.17,6.22,29.37,9.53,37.07,8,50.5-.91,8-3.25,16-4.56,15.92s-.87-7.3-2.94-18.92c-2.12-11.91-3.33-18.17-8.5-23.5-.14-.14-.33-.34-.61-.61-3.49-3.32-9.37-6-14.56-4.55-2,.55-4.08,1.76-7.33,3.67-1.74,1-2.44,1.54-2.67,1.33-.76-.7,6.48-7.25,9.92-17.09,1.42-4.06,1.84-7.12,2-12.5.57-19.48-3.21-22-.75-31,.51-1.87,3.59-13.08,13-16.75a18.25,18.25,0,0,1,11.5-.5c2,.62,2.29,1.17,9,5.17,3.93,2.34,4,2.22,7.5,4.33,6.57,3.9,9.86,5.86,11,7,2.37,2.38,3.76,6.18,1.83,23-2,17.69-5.53,30.64-3.83,42.5.37,2.59.93,5.16.93,5.16,2.31,10.65,6,16.11,5.57,16.34-.82.47-20.07-18.34-16-35,.72-3,2.27-6.21,6-18.33,1.35-4.4,2.16-7.28,1.67-11-.38-2.84-1.23-4-1-7,.27-3.51,1.57-4.15,1.33-7,0-.45-.44-4.6-3.33-6.33C-152.28,101.47-153.17,102.26-156.6,101.48Z" transform="translate(421.89 8.24)"/><path class="cls-10" d="M-132.6,237.14c1.19,2.62,1.86,3.6,6.67,10.33,8.9,12.47,10.65,16.11,15.23,21.21,1.57,1.75,3,3.69,4.69,5.29,2.5,2.31,4.73,3.7,4.42,5.17-.18.84-1,.86-1.67,2.08a5.61,5.61,0,0,0-.33,3.92c1.06,5.56,6.64,13.28,6,13.83-.26.23-1.6-.76-2.58-1.75-2.24-2.26-1.91-3.74-4.08-6.42-1.54-1.89-1.88-1.36-2.75-2.83-1.06-1.8-1.23-3.74-1.42-6.17-.16-2.13,0-2.49-.08-3.5-.31-3.09-2.47-4.4-6.83-9-4-4.24-3.22-4.22-7.58-8.75-3.24-3.36-3.91-3.35-5.75-5.75-2.27-3-2-3.75-4.58-7.33-3.12-4.3-4-3.85-4.67-6-.8-2.68.55-3.61,1-9.67.27-3.65,0-5.6.33-5.67C-136,226-135.25,231.31-132.6,237.14Z" transform="translate(421.89 8.24)"/><path class="cls-9" d="M-158.76,475c1.36,5.7,4,8.34,3,13-1.49,7.23-9.22,14-17,15-4.27.52-5.26-1.13-9.6,0-5.52,1.5-6.62,4.9-10.9,5.62-2.34.39-6,0-11.07-4.08-8.83,2.46-11.37,1.6-12.1.42-1.37-2.23,3.6-5.78,6.33-13.67,1.55-4.47,1.42-9.13,1.16-18.43-.38-13.55-2.18-17.16.84-21.9,2.39-3.75,4.26-2.67,7.33-6.67,3.68-4.78,3-9,4.1-21.51,1.1-12.81,2-10.34,2.9-22.49.93-12,0-14.3,2.67-18,2.5-3.44,5.71-4.8,10-11a28.35,28.35,0,0,0,3.83-6.67c3.38-9.6-6.05-14.76-7.5-31.33a76.53,76.53,0,0,1,.67-16c1-8.42,1.49-9.09,2-9.33,3.64-1.69,14.38,8.78,20.67,21.33,5.81,11.59,6,21.35,16,31.33,1.66,1.66,1.77,1.5,2.33,2.33,5.8,8.53-7.52,21.62-13,43.67-.41,1.65-1.05,9.21-2.33,24.33C-161,461.45-160.35,468.3-158.76,475Z" transform="translate(421.89 8.24)"/><path class="cls-14" d="M-197.26,255.64c-1.32-.24-6.75,10.64-5,22.83,1.12,7.81,5.17,14.4,6.33,16.33,2.62,4.34,5.37,7.35,8.94,14.52,1.65,3.32,1.32,3.18,2.55,5.62,3.6,7.11,6.94,9.24,17.17,20.86,6.2,7,4.05,5.21,8.07,9.61,4.3,4.71,6.26,6.26,6.93,9.39.77,3.54-.69,6.42-2.33,10-3,6.62-5,13.7-8,20.33-2,4.5-4.36,10.22-9,21.67-7.59,18.7-11.38,28.05-13.33,38.67-2.71,14.74-4.06,22.11-1.33,30.67,1.63,5.1,4.33,9.71,3.33,16.67-.92,6.41-4.31,10.17-2.67,12,2.15,2.39,8.64-3.29,14.33-.33,4,2.1,4.68,7,7,6.67s2.81-5.37,4.67-5.33c1.67,0,1.69,4.15,4.33,5.67,3.12,1.8,9.49-.27,11.67-4,3.94-6.73-7.76-15.46-13.33-33-3-9.36-2.54-17.13-1.67-32.67,1.13-20.17,2-36,11.33-52.33,6.17-10.8,13-16.5,11-24.67-1.05-4.25-4.52-9.23-9-15.67-2.23-3.21-2.26-2.92-6-8-1.48-2-5.81-8-11-16-2.84-4.4-5.82-9.09-8.33-14-4.73-9.24-4.06-9.65-6.67-13.67-6.63-10.2-12.8-8.6-17.67-16.33C-202,270-195.86,255.89-197.26,255.64Z" transform="translate(421.89 8.24)"/><ellipse class="cls-11" cx="231.63" cy="270.39" rx="9.5" ry="13"/><path class="cls-1" d="M350.37,177.69" transform="translate(421.89 8.24)"/></svg>