<?xml version="1.0" encoding="utf-8"?>
<!-- Generator: Adobe Illustrator 21.1.0, SVG Export Plug-In . SVG Version: 6.00 Build 0)  -->
<svg version="1.1" xmlns="http://www.w3.org/2000/svg" xmlns:xlink="http://www.w3.org/1999/xlink" x="0px" y="0px"
	 viewBox="0 0 512 512" style="enable-background:new 0 0 512 512;" xml:space="preserve">
<style type="text/css">
	.st0{fill:#424190;}
	.st1{fill:#FFDFC3;}
	.st2{fill:#808080;}
	.st3{fill:#D9DEF0;}
	.st4{fill:#FFDF3F;}
	.st5{opacity:0.14;fill:none;}
	.st6{fill:#420068;}
	.st7{fill:#563374;}
	.st8{fill:#2C0051;}
	.st9{fill:#BFA792;}
	.st10{fill:#FFFB68;}
	.st11{fill:#120076;}
	.st12{fill:#FFF2C3;}
	.st13{fill:#160029;}
</style>
<g id="Capa_1">
	<path class="st0" d="M8.5,191.3"/>
	<g>
		<polygon class="st1" points="-412.8,293 -412.1,298 -411.1,302.4 -407.9,305 -405.1,308.9 -397.6,324.6 -394.3,329.7 -392,331.7
			-393.3,336 -395.8,339.1 -397.3,340.4 -396.6,337.5 -398.5,339.5 -399.5,339.1 -398.1,336.6 -399.7,337.5 -397.9,335
			-400.5,335.3 -397.9,333.7 -398.1,331 -399.8,330.1 -402,327.1 -401.5,324.5 -410.6,313.6 -414.4,308.7 -418.2,294.3
			-416.9,290.8 -413.5,291.7 		"/>
		<g>
			<g>
				<path class="st2" d="M-419.8,276.8c0,0,0.3-1.7,0.4-4.7c-0.1-3-0.3-7.4-1.9-12.4c-0.4-1.2-0.8-2.5-1.4-3.9
					c-0.5-1.3-1.1-2.7-1.7-4.1c-0.3-0.7-0.7-1.4-1.1-2c-0.4-0.7-0.8-1.4-1.2-2.1c-0.5-0.7-0.9-1.3-1.3-2c-0.5-0.7-0.9-1.4-1.4-2
					c-1-1.3-2-2.7-3.2-4c-0.6-0.7-1.1-1.2-1.7-1.9c-0.6-0.6-1.2-1.2-1.9-1.8c-2.5-2.4-5.3-4.6-8-6.6c-5.6-4-11.4-7.5-16.9-10.7
					c-5.4-3.2-10.6-5.9-14.7-8.6c-4.1-2.7-7.7-4.9-10-6.7c-1.2-0.9-2-1.6-2.7-2.1s-0.9-0.8-0.9-0.8s0.3,0.3,0.7,1
					c0.5,0.7,1.1,1.7,2,2.9c1.9,2.3,4.6,5.7,8.5,9.1c3.9,3.3,8.5,7.2,13.7,10.7c5.1,3.7,10.8,7.3,16,11.2c2.6,1.9,5.2,3.9,7.6,5.9
					c0.6,0.5,1.2,1,1.8,1.5c0.6,0.5,1.1,1.1,1.7,1.6c1.1,1,2.1,2.2,3.1,3.3c4,4.4,7.1,9.1,9.3,13.5c2.1,4.3,3.6,8.3,4.3,11.1
					C-420,275.1-419.8,276.8-419.8,276.8z"/>
			</g>
			<g>
				<path class="st2" d="M-421.2,279.4C-421.2,279.4-421.2,279.4-421.2,279.4c-0.1,0-0.1-0.1-0.2-0.2c-0.1-0.2-0.1-0.5-0.1-0.9
					c0-0.8-0.1-1.9-0.3-3.4c-0.4-2.8-1-7.1-3.1-11.8c-2.1-4.6-5.2-10-9.9-14.5c-4.5-4.6-10.1-8.4-15.7-11.9
					c-5.7-3.4-11.4-6.6-16.7-9.4c-5.3-2.9-10.2-5.5-14.2-8.2c-3.9-2.7-7.1-5.1-9.1-7c-1.1-1-1.8-1.7-2.3-2.4
					c-0.5-0.6-0.8-0.9-0.8-0.9s0.2,0.4,0.4,1.1c0.3,0.7,0.8,1.7,1.5,3c0.8,1.2,1.8,2.7,3,4.4c1.3,1.6,2.8,3.4,4.6,5
					c3.7,3.4,8.2,7.2,13.4,10.6c5.1,3.5,10.7,6.7,16.1,10.1c5.5,3.3,10.8,6.8,15.2,10.4c4.4,3.6,8.1,7.6,10.6,11.6
					c2.5,4,4.4,7.5,5.4,10.2c0.6,1.3,1,2.3,1.3,3.1c0.1,0.4,0.3,0.6,0.4,0.8C-421.4,279.3-421.3,279.4-421.2,279.4
					C-421.2,279.4-421.2,279.4-421.2,279.4z"/>
			</g>
			<g>
				<path class="st2" d="M-422.7,282.1c0,0-0.1,0-0.2,0c-0.2-0.1-0.4-0.3-0.4-0.5c-0.2-0.6-0.5-1.6-0.8-2.8c-0.7-2.4-1.6-6.2-4-10.2
					c-1.2-2-2.6-4.1-4.3-6.1c-1.7-2.1-3.8-4-6-5.7c-4.5-3.6-9.6-6.6-14.7-9.5c-5.2-2.8-10.4-5.3-15.2-7.7c-4.8-2.4-9.4-4.5-13-6.7
					c-1.8-1.1-3.4-2.1-4.9-3.1c-1.4-1-2.7-1.9-3.6-2.7c-0.5-0.4-0.9-0.8-1.3-1.1c-0.4-0.3-0.7-0.6-0.9-0.9c-0.5-0.5-0.7-0.8-0.7-0.8
					s0.1,0.3,0.4,1c0.1,0.3,0.3,0.7,0.5,1.2s0.5,1,0.9,1.5c0.8,1.1,1.6,2.4,2.8,3.9c1.1,1.4,2.6,2.9,4.3,4.4c3.4,2.9,7.6,6.2,12.3,9
					c4.7,3,9.8,5.6,14.9,8.5c5.1,2.7,10,5.5,14.5,8.3c2.2,1.4,4.2,2.8,6.1,4.3s3.4,3.1,4.8,4.7c2.7,3.2,4.8,6.1,6.1,8.3
					c0.7,1.1,1.3,1.9,1.8,2.5c0.3,0.3,0.5,0.4,0.7,0.4C-422.8,282.1-422.7,282-422.7,282.1z"/>
			</g>
			<g>
				<path class="st2" d="M-424.1,284.7c0,0-0.1,0-0.2,0.1c-0.1,0-0.3,0-0.6-0.2c-0.4-0.4-0.8-1.1-1.1-2.2c-0.8-2-1.6-5.2-4.3-8.5
					c-1.3-1.6-2.9-3.2-4.9-4.6c-1-0.7-2.1-1.3-3.2-1.9c-0.6-0.3-1.1-0.5-1.6-0.8s-1.1-0.4-1.6-0.7c-4.2-1.9-8.8-3.7-13.3-5.7
					c-4.6-1.8-9.1-3.8-13.3-5.5c-4.2-1.9-8.1-3.4-11.4-5.2c-3.2-1.7-6-3.1-7.8-4.3c-1-0.5-1.6-1.1-2.1-1.4c-0.5-0.4-0.8-0.5-0.8-0.5
					s0.2,0.3,0.5,0.8c0.3,0.5,0.7,1.3,1.4,2.2c1.4,1.7,3.4,4.4,6.4,6.8c3,2.4,6.6,5.2,10.7,7.6c4.1,2.4,8.7,4.6,13.4,6.6
					c4.7,1.9,9.4,3.6,13.9,4.9c0.6,0.1,1.1,0.3,1.7,0.5c0.5,0.1,1,0.3,1.6,0.4c0.9,0.3,1.8,0.6,2.7,0.9c1.7,0.7,3.3,1.6,4.6,2.8
					c2.6,2.2,4.6,4.5,6,6.3c0.4,0.4,0.7,0.8,1.1,1.1c0.3,0.3,0.7,0.5,1,0.6s0.6,0,0.7-0.1C-424.2,284.7-424.1,284.7-424.1,284.7z"/>
			</g>
			<g>
				<path class="st2" d="M-425.6,287.3c0,0-0.2,0.1-0.7,0c-0.4,0-1-0.3-1.6-0.9c-1.2-1-2.3-3.4-4.7-5.7c-1.2-1.1-2.7-2.2-4.4-3.2
					c-0.8-0.5-1.8-0.9-2.8-1.2c-0.5-0.2-1-0.3-1.5-0.4s-0.9-0.2-1.3-0.4c-3.5-0.9-7.2-1.9-11-3.1c-3.7-1-7.4-2.2-11-3.2
					c-3.5-1.1-6.8-1.9-9.6-2.9c-2.8-1-5.2-1.6-6.9-2.2c-1.7-0.6-2.7-0.8-2.7-0.8s0.7,0.8,1.9,2.1c1.4,1.2,3.2,3.1,5.8,4.8
					c2.6,1.6,5.6,3.7,9.1,5.3c3.5,1.7,7.3,3.1,11.3,4.3c4,1,8,2,11.9,2.3c0.5,0,0.9,0.1,1.4,0.1c0.4,0,0.8,0,1.2,0.1
					c0.7,0.1,1.5,0.2,2.2,0.4c1.4,0.3,2.8,0.8,4,1.5c2.4,1.3,4.6,2.8,6.5,3.5c1,0.3,1.8,0.3,2.3,0.1
					C-425.8,287.5-425.6,287.3-425.6,287.3z"/>
			</g>
			<g>
				<path class="st2" d="M-427,289.9c0,0-0.2,0-0.6,0c-0.4,0-1,0-1.6-0.1c-0.6,0-1.4-0.3-2.3-0.5c-0.8-0.3-1.8-0.7-2.8-1.2
					c-2.1-0.8-4.6-2.2-7.5-3.2c-1.5-0.5-2.9-0.9-4.5-1.3c-1.5-0.4-3-0.8-4.5-1.2c-3.1-0.7-6.1-1.4-9-1.9c-2.9-0.6-5.7-0.8-8-1.2
					s-4.4-0.3-5.8-0.5c-1.5,0-2.3-0.1-2.3-0.1s0.7,0.5,1.8,1.4c1.2,0.8,2.9,2.1,5.1,3.2c2.2,1,4.7,2.4,7.5,3.5c2.8,1.1,5.9,2,9,2.9
					c1.6,0.3,3.1,0.7,4.7,1s3.1,0.5,4.5,0.7c2.8,0.4,5.6,0.6,8.2,0.8c1.3,0.1,2.5,0,3.6-0.2c1.1-0.2,2-0.6,2.7-0.9
					c0.7-0.4,1.2-0.7,1.4-1C-427.2,290-427,289.9-427,289.9z"/>
			</g>
			<g>
				<path class="st2" d="M-428.4,292.5c0,0-0.6,0-1.7,0c-0.5,0.1-1.2,0-1.9,0c-0.7,0-1.5,0-2.4,0.1c-0.4,0-0.9,0.1-1.3,0.1
					c-0.5,0-0.9,0-1.4,0c-1,0-2,0-3,0.1c-2.1,0-4.2,0.3-6.3,0.3c-2.2,0.2-4.3,0.3-6.4,0.6c-2,0.2-4.1,0.6-5.8,0.8
					c-1.7,0.1-3.2,0.7-4.3,0.8c-1.1,0.3-1.7,0.5-1.7,0.5s0.5,0.4,1.4,1c0.9,0.5,2.3,1.4,4,2c1.7,0.6,3.7,1.3,6,1.6
					c2.3,0.4,4.7,0.4,7.2,0.3c2.4-0.2,4.9-0.7,7.1-1.4c1.1-0.4,2.1-0.8,3.1-1.3c0.5-0.2,0.9-0.5,1.4-0.7c0.4-0.2,0.9-0.5,1.3-0.7
					c0.8-0.4,1.5-1,2.1-1.5s1-1,1.5-1.3C-428.9,293-428.4,292.5-428.4,292.5z"/>
			</g>
		</g>
		<g>
			<g>
				<path class="st3" d="M-426.4,282.2c0,0-0.3-2-1.4-5.5c-1.4-3.3-3.3-8.3-7.2-13.3c-1-1.2-2-2.5-3.1-3.8c-1.1-1.3-2.3-2.6-3.6-3.9
					c-0.7-0.7-1.3-1.3-2-1.9c-0.7-0.7-1.4-1.2-2.2-1.9c-0.8-0.6-1.5-1.2-2.3-1.7c-0.8-0.6-1.6-1.2-2.5-1.7c-1.7-1.1-3.4-2.2-5.2-3.2
					c-0.9-0.5-1.8-0.9-2.7-1.4c-0.9-0.4-1.9-0.9-2.8-1.2c-3.8-1.7-7.8-3-11.8-4.3c-8-2.2-16-3.9-23.4-5.2
					c-7.4-1.4-14.4-2.3-20.2-3.7c-5.8-1.4-10.7-2.4-14-3.5c-1.7-0.5-3-1-3.9-1.3s-1.4-0.5-1.4-0.5s0.4,0.3,1.2,0.9
					c0.8,0.6,1.9,1.4,3.4,2.5c3.1,1.8,7.5,4.6,13.3,6.8c5.8,2.2,12.6,4.6,19.9,6.6c7.3,2.1,15.2,3.8,22.6,6.1
					c3.8,1.1,7.5,2.2,11,3.6c0.9,0.4,1.7,0.7,2.6,1c0.9,0.4,1.7,0.8,2.5,1.2c1.7,0.7,3.3,1.6,4.8,2.5c6.3,3.4,11.8,7.4,16,11.5
					s7.4,7.9,9.4,10.8C-427.4,280.4-426.4,282.2-426.4,282.2z"/>
			</g>
			<g>
				<path class="st3" d="M-427,285.8C-427,285.8-427,285.8-427,285.8c-0.1,0-0.2-0.1-0.3-0.1c-0.1-0.2-0.3-0.5-0.5-0.9
					c-0.4-0.9-0.9-2.1-1.7-3.7c-1.7-3-4-7.7-8.3-12.1c-4.3-4.4-10-9.2-17.1-12.4c-7-3.3-14.9-5.3-22.6-7.1
					c-7.8-1.5-15.5-2.8-22.7-3.9c-7.2-1.2-13.8-2-19.4-3.5c-5.5-1.4-10.1-2.8-13.2-4.3c-1.6-0.7-2.7-1.2-3.5-1.7
					c-0.8-0.4-1.2-0.7-1.2-0.7s0.4,0.4,0.9,1.1c0.7,0.7,1.6,1.7,2.9,2.8c1.4,1.1,3.1,2.4,5.1,3.8c2.1,1.3,4.6,2.7,7.3,3.8
					c5.6,2.3,12.2,4.8,19.4,6.5c7.2,1.9,14.9,3.3,22.4,4.9c7.6,1.5,15,3.3,21.5,5.6c6.5,2.3,12.3,5.3,16.8,8.8
					c4.4,3.5,8,6.7,10.3,9.3c1.2,1.2,2.1,2.2,2.7,3c0.3,0.4,0.6,0.6,0.8,0.7C-427.2,285.7-427.1,285.8-427,285.8
					C-427,285.8-427,285.8-427,285.8z"/>
			</g>
			<g>
				<path class="st3" d="M-427.6,289.4c0,0-0.1,0.1-0.3,0.1s-0.5-0.1-0.7-0.4c-0.5-0.6-1.2-1.6-2-2.9c-1.8-2.5-4.3-6.4-8.7-9.9
					c-2.2-1.7-4.6-3.5-7.4-5.1c-2.7-1.7-5.9-3-9.2-4c-6.5-2.2-13.6-3.6-20.5-4.8c-7-1-14-1.8-20.4-2.5c-6.4-0.8-12.4-1.2-17.5-2.2
					c-2.5-0.5-4.8-1-6.9-1.5c-2-0.5-3.8-1-5.2-1.6c-0.7-0.2-1.4-0.5-1.9-0.7c-0.6-0.2-1-0.4-1.4-0.7c-0.7-0.4-1.2-0.6-1.2-0.6
					s0.3,0.3,0.9,0.9c0.3,0.3,0.7,0.7,1.1,1.1c0.4,0.4,0.9,0.9,1.6,1.4c1.3,0.9,2.8,2.1,4.8,3.3c1.9,1.2,4.2,2.2,6.7,3.3
					c5.1,1.9,11.1,3.9,17.6,5.2c6.5,1.4,13.4,2.4,20.3,3.5c6.9,0.9,13.6,2.1,19.7,3.5c3.1,0.7,5.9,1.4,8.6,2.4
					c2.7,0.9,5.1,2.1,7.3,3.3c4.3,2.5,7.9,5,10.3,6.9c1.2,0.9,2.2,1.7,3,2.1c0.4,0.2,0.7,0.3,0.9,0.2
					C-427.7,289.4-427.6,289.3-427.6,289.4z"/>
			</g>
			<g>
				<path class="st3" d="M-428.2,292.9c0,0-0.1,0.1-0.2,0.1c-0.1,0.1-0.4,0.1-0.7,0c-0.7-0.2-1.3-0.9-2.1-2c-1.7-1.9-4-5.3-8.3-7.9
					c-2.1-1.3-4.6-2.5-7.4-3.2c-1.4-0.4-2.9-0.7-4.4-0.8c-0.8-0.1-1.4-0.1-2.1-0.2s-1.4-0.1-2.1-0.1c-5.6-0.4-11.5-0.6-17.4-1
					c-5.9-0.2-11.8-0.6-17.3-0.9c-5.5-0.4-10.6-0.6-15-1.2s-8-1.1-10.6-1.7c-1.3-0.2-2.3-0.6-3-0.7c-0.7-0.2-1.1-0.3-1.1-0.3
					s0.3,0.2,0.9,0.7s1.4,1.2,2.5,2c2.3,1.4,5.6,3.5,10,5.1c4.4,1.5,9.5,3.2,15.3,4.2c5.6,1.1,11.8,1.7,17.9,2
					c6.1,0.2,12.1,0.2,17.8-0.1c0.7-0.1,1.4-0.1,2.1-0.1c0.7-0.1,1.3-0.1,2-0.1c1.2-0.1,2.3-0.1,3.5-0.1c2.2,0.1,4.4,0.5,6.4,1.2
					c3.8,1.4,7.1,3.3,9.4,4.7c0.6,0.3,1.2,0.6,1.7,0.8c0.5,0.2,1,0.3,1.4,0.3c0.4,0,0.7-0.2,0.8-0.4
					C-428.3,293-428.2,292.9-428.2,292.9z"/>
			</g>
			<g>
				<path class="st3" d="M-428.8,296.4c0,0-0.2,0.1-0.8,0.3c-0.5,0.1-1.3,0.1-2.2-0.4c-1.7-0.7-4-3-7.7-4.5c-1.8-0.7-4-1.4-6.3-1.8
					c-1.2-0.2-2.5-0.3-3.7-0.2c-0.7,0-1.3,0.1-1.9,0.1c-0.6,0.1-1.1,0.1-1.7,0.1c-4.3,0.4-9,0.8-13.7,1c-4.6,0.4-9.3,0.5-13.7,0.8
					c-4.4,0.1-8.5,0.6-12.1,0.6c-3.5,0-6.6,0.3-8.7,0.3c-2.2,0.1-3.4,0.1-3.4,0.1s1.1,0.6,3,1.6c2,0.8,4.8,2.2,8.5,3
					c3.6,0.8,7.9,2,12.5,2.3c4.6,0.5,9.5,0.5,14.5,0.3c4.9-0.4,9.9-1,14.4-2.2c0.6-0.1,1.1-0.3,1.7-0.4c0.4-0.1,0.9-0.3,1.4-0.4
					c0.9-0.2,1.8-0.4,2.7-0.5c1.7-0.2,3.5-0.2,5.1,0.1c3.3,0.5,6.4,1.2,8.7,1.3c1.2,0,2.2-0.4,2.6-0.9
					C-428.9,296.7-428.8,296.4-428.8,296.4z"/>
			</g>
			<g>
				<path class="st3" d="M-429.3,300c0,0-0.2,0.1-0.7,0.3c-0.4,0.2-1.1,0.4-1.9,0.6c-0.7,0.3-1.7,0.3-2.8,0.4
					c-1.1,0-2.3-0.1-3.7-0.1c-2.7-0.1-6.1-0.7-9.8-0.5c-2,0.1-3.7,0.2-5.6,0.4c-1.8,0.1-3.7,0.3-5.6,0.5c-3.8,0.5-7.4,0.9-10.9,1.5
					c-3.5,0.5-6.7,1.4-9.5,2c-2.8,0.5-5.1,1.4-6.8,1.8c-1.7,0.6-2.6,0.9-2.6,0.9s0.9,0.3,2.6,0.9c1.7,0.4,4.1,1.2,7,1.5
					c2.9,0.3,6.3,0.9,9.9,0.9c3.6,0.1,7.5-0.1,11.3-0.4c2-0.3,3.8-0.5,5.7-0.8c1.9-0.3,3.8-0.7,5.3-1.1c3.3-0.7,6.7-1.6,9.6-2.4
					c1.4-0.4,2.8-1,4-1.7c1.2-0.7,2-1.4,2.7-2.1c0.7-0.7,1-1.3,1.2-1.7C-429.4,300.2-429.3,300-429.3,300z"/>
			</g>
			<g>
				<path class="st3" d="M-429.8,303.5c0,0-0.7,0.2-2,0.7c-0.6,0.3-1.3,0.5-2.2,0.8c-0.8,0.3-1.7,0.7-2.7,1.1
					c-0.4,0.2-0.9,0.4-1.4,0.7c-0.5,0.2-1,0.4-1.6,0.6c-1.1,0.4-2.2,0.8-3.3,1.3c-2.3,0.9-4.6,2-7,3c-2.4,1.2-4.8,2.1-7,3.3
					c-2.2,1-4.3,2.4-6.2,3.3c-1.9,0.9-3.4,2.1-4.5,2.7c-1.1,0.8-1.7,1.2-1.7,1.2s0.7,0.2,2,0.5c1.2,0.1,3.2,0.7,5.3,0.6
					c2.2-0.1,4.8,0,7.4-0.6c2.7-0.4,5.5-1.4,8.2-2.5c2.7-1.2,5.3-2.7,7.4-4.4c1.1-0.9,2.1-1.7,3-2.7c0.4-0.4,0.9-0.9,1.3-1.4
					c0.4-0.4,0.8-0.9,1.2-1.3c0.7-0.8,1.3-1.7,1.7-2.5c0.4-0.8,0.8-1.5,1.2-2.1C-430.1,304.3-429.8,303.5-429.8,303.5z"/>
			</g>
		</g>

			<ellipse transform="matrix(0.7988 -0.6016 0.6016 0.7988 -231.4853 -215.2448)" class="st4" cx="-437.5" cy="238.5" rx="13.4" ry="4.4"/>

			<ellipse transform="matrix(0.7988 -0.6016 0.6016 0.7988 -231.2133 -214.8242)" class="st5" cx="-436.8" cy="238.3" rx="11" ry="2.5"/>
		<path class="st1" d="M-441.4,273c-0.7,0.4-1,0.1-1.7,0.4c-2.3,1.1-2.5,5.2-2.6,6.5c-0.2,3.1,0.6,3.5,0,5.6
			c-0.5,1.7-1.3,1.9-2.2,3.9c-0.2,0.5-0.8,2-1.3,5.9c-0.7,5.4,0.1,6.3-0.9,9.1c-0.6,1.8-1.2,2.3-2.6,4.6c-3.2,5.1-4.4,9.9-5,11.9
			c-2,7.4-0.4,8.7-2.8,11.7c-2,2.5-4.3,3-4.7,5.7c-0.4,2.3,0.9,4.9,1,5c0.3,0.5,0.3,0.4,1.6,2.2c1.8,2.6,2.4,3.7,2.7,3.6
			c0.1-0.1-0.4-1-0.1-1.3c0.4-0.4,1.9,0.8,2.1,0.5c0.2-0.2-0.7-1.2-1.1-1.6c-1-1.1-1.7-1.7-1.7-1.8c0.1-0.1,0.4,0.2,1.1,0.3
			c0.8,0.2,1.6,0.1,1.6-0.1c0-0.1-0.7-0.2-1.5-0.7c-0.6-0.4-1.2-1.1-1.1-1.4c0.2-0.3,1.1,0.1,1.2-0.2c0.3-0.5-1.7-1.6-1.5-2.7
			c0.1-0.4,0.3-0.3,1.2-1.3c0.8-0.8,1.4-1.8,1.4-1.8s0.5,1.2,0.7,2.2c0.3,1.8-0.6,3.1-0.1,4.5c0,0.1,0.1,0.3,0.2,0.3
			c0.3,0,0.8-1.2,0.9-2.3c0.1-0.6,0-1,0-1.2c-0.1-1.7,0.5-2.8,0.8-4.4c0.5-2.1-0.1-2.7,0-4.5c0.1-1.7,1.1-2.3,3.5-6.5
			c5.7-10.1,6.8-10.7,7.4-14.1c0.4-2.7,0-3.6,0.9-6.7c0.8-2.8,1.6-3.3,2.8-6.3c2.2-5.2,2.5-9.8,2.8-9.8c0.3,0-0.8,3.5,1.1,5.9
			c1.3,1.7,2.7,1.2,4.1,2.6c2.2,2.3,1.6,6.7,0.4,9.5c-1.8,4.5-4.7,3.9-7.4,8.7c-0.4,0.8-2.9,5.4-2,10.6c0.7,3.7,2.4,4.5,5.9,10.6
			c2.8,4.9,2,5.2,4.1,8.9c5.7,10.3,13.1,11.8,12.6,17.1c-0.3,2.5-1.9,2.4-3.5,6.7c-0.6,1.8-1,3.7-0.9,10.4
			c0.1,4.4,0.4,12.7,0.2,18.6c-0.1,2.3-0.2,3.8-1.1,5.4c-1,1.8-2,2.2-2.2,3.7c-0.1,1.1,0.5,1.8,2.2,4.3c1.8,2.6,2.8,4.2,3.7,5.9
			c1.9,3.6,1.2,4.3,2.6,5.6c2.5,2.4,7.1,2.6,7.8,1.3c0.5-1-1.2-2.9-1.5-3.3c-1.7-1.9-3-1.5-4.3-2.8c-1.6-1.6-1-3.4-1.5-7.6
			c-0.5-4.6-1.5-4.9-2-8.2c-0.2-1.5-0.3-3.1,2-12.4c2.2-9.2,3.3-13.7,4.8-16.5c0.3-0.6,1.4-2.9,3.7-7.6c1.1-2.2,1.4-3,1.5-4.1
			c0.2-2.5-0.9-4.2-2.4-7.2c-1.3-2.7-2.3-5.5-3.5-8.2c-2.3-5.4-3.5-8.2-4.1-10.6c-1-3.9-1.7-6.6-0.4-9.3c1.1-2.3,2.3-2,3.5-4.3
			c1.3-2.6,0.5-4.4,0.2-9.5c-0.3-4.8,0.4-3.7,0.2-10c-0.1-6.3-0.8-9.2,1.1-10.8c1.1-0.9,2-0.4,3-1.5c1.4-1.4,1.6-4,0.9-6.1
			c-1.4-3.8-5.9-4.6-5.6-6.7c0.2-1.1,1.5-1.1,1.7-2.6c0.3-1.6-0.9-3.3-2.2-4.1c-1.1-0.7-1.7-0.4-2.5-0.8c-3.1-1.6,0-9.3-3.1-12.2
			c-2.5-2.3-8.2-0.5-11.1,1.3c-0.8,0.5-6.2,3.8-7.2,9.1C-439.7,269.6-439.8,272.1-441.4,273z"/>
		<path class="st1" d="M-433.8,418.5c-0.2,2.7-1.2,4.3-2,5.2c-0.7,0.8-1.2,1.4-2,1.5c-2.1,0.4-5-2.7-5.6-5.9
			c-0.4-2.1,0.5-2.2,0.9-6.1c0.2-2.5,0.5-5.5-0.9-8.7c-0.9-2.1-1.7-2.5-1.5-3.7c0.3-2,2.8-2.3,4.8-4.3c2.1-2.2,2.2-5.4,2.4-11.9
			c0.2-9-1.2-9.3,0-12.4c1.9-5,5.9-5.2,6.9-9.5c0.9-3.7-1.3-6.6-2.4-9.3c-3.5-8.8,1.3-19.6,6.7-26c0.8-1,6.2-8.6,9.5-7.4
			c0.6,0.2,1.8,1,2.4,5c1.7,11.1-5.5,15.5-6.3,28.8c-0.2,2.9,0,5.4-1.1,9.3c-0.7,2.6-1.9,5.3-3.5,8.9c-1,2.3-1.8,3.9-2,4.3
			c-4.4,9.4-7.5,16.1-7.8,24.1c-0.2,5.4-0.3,8.2,0.7,11.9C-434.2,413.4-433.6,415.6-433.8,418.5z"/>
		<path class="st6" d="M-441.2,272.2c-0.6,0.3-1.7,0.7-2.5,1.4c-0.6,0.5-1.4,1.4-2,6.4c-0.7,4.8-0.2,5.4,0,5.6c1,1,3.4,1,4.3,1
			c0.8,0,1,0,1,0c1.4,0,1.6-0.2,1.9,0c0.5,0.4,0.1,1.4,0,2.6c0,0.5-0.3,3.1,1.2,4.8c1.7,2,4.5,2.1,5,2.2c0.1,0,0.2,0,0.2,0
			c3.4,0.1,6.9-2.2,6.9-2.2c0,0,2.4-0.9,4.8-0.9c2.8,0,3.6,1.2,5,0.4c0.9-0.5,0.7-1,2-2c1.4-1.1,2-0.7,3-1.5c2.1-1.6,2-4.8,2-5
			c0-0.7-0.1-2.4-1.3-3.5c-1-1-1.7-0.5-2.8-1.5c-0.8-0.8-1.6-2.2-1.3-3.3c0.1-0.2,0.2-0.7,0.4-1.4c0-0.2,0.1-0.4,0.1-0.8
			c0-1.7-1.8-5.2-2.2-5c-0.1,0-0.1,0.2,0,0.9c-0.5-0.5-1-0.7-1.3-0.7c-1.8,0.1-1.8,4.1-4.8,5.9c-1.3,0.8-2.6,0.7-3.9,0.7
			c-2.1-0.1-3.7-0.9-5-1.5c-2.2-1.1-2.1-1.6-4.3-2.6c-2-0.9-3.1-0.9-3.7-0.9c0,0-0.1,0-0.2,0C-439.3,271.6-440.1,271.7-441.2,272.2z
			"/>
		<path class="st7" d="M-438.8,314.3c2-0.8,4.4,4.1,10.6,7.6c2.8,1.5,5.6,3.1,8.2,2.2c3.8-1.4,4.5-7.6,5.4-7.4
			c0.5,0.1,0.5,1.7,0.4,6.6c-0.1,8.4,0,8.7-0.1,10c-0.3,3.2-0.5,3.7-0.4,5.9c0.1,3,0.7,5.2,1,6.1c0.8,2.5,1.4,3,3,6.4
			c2.3,4.6,3.4,7,3.3,9.7c-0.1,2.7-1.7,3.9-2.9,6.9c-2.7,6.9-4.4,12.3-5.2,15c-2.6,8.8-3.9,13.3-3.6,18.1c0.2,3.4,0.9,6.6,1.4,8.7
			c1,4.4,1.6,6.5,2.9,8.1c2.3,2.7,4.8,2.5,5.6,5.2c0.4,1.1,0.5,3-0.4,3.9c-1.4,1.2-3.5-0.8-6.4,0.3c-2.3,0.9-2.6,2.7-3.7,2.5
			c-2.1-0.4-2-7.5-3.3-7.6c-0.9,0-1,3.1-2.6,3.5c-2.1,0.5-4.2-4.6-6.5-4.1c-1.2,0.3-1.1,1.8-3,3c-0.2,0.1-2.3,1.4-4.8,0.9
			c-1.9-0.4-1.9-1.5-3.9-2c-2.3-0.6-3.7,0.5-4.2-0.1c-0.6-0.8,1.1-2.5,2.7-5.9c1.5-3,3.2-6.6,2.1-10c-0.5-1.6-1.3-1.9-1.5-3.7
			c-0.2-1.6,0.2-3.9,1.7-4.8c0.6-0.4,0.8-0.1,1.5-0.4c1.2-0.5,1.9-1.8,2.7-4.4c0.7-2.3,1.1-3.5,1.3-5.8c0.5-4.5-0.3-5.6-0.1-10.8
			c0.1-3.2,0.2-4.8,0.6-5.9c1.7-4.3,5.3-4.5,6.4-8.8c0.1-0.5,0.6-2.4,0.1-4.6c-0.6-2.2-1.7-2.8-2.7-5.8c-0.4-1.3-0.5-2.3-0.7-3.2
			c-0.3-2-0.3-4.4,0-5.6c0-0.1,0.2-0.6,0.3-1.3c0,0,0.1-0.5,0.1-1c0-0.9-3.7-6-3.7-6l0,0c1.9,3.1-3.9-6.2-4.8-9.8
			c-0.6-2.3-0.5-3.7-0.4-4.8c0.2-1.3,0.7-2.2,1.2-3.3C-439.9,315.6-439.4,314.5-438.8,314.3z"/>
		<path class="st8" d="M-418.6,283.3c0.2,0,0.4,1.8,1.9,3.8c0.8,1,1.7,2.2,3,2.3c1.7,0.1,3-1.6,3.3-2c1.5-2,1.2-4.3,1.4-4.3
			c0.3,0,0.9,3-0.4,5.5c-0.3,0.5-0.8,1.6-2,2.2c-0.5,0.3-0.6,0.2-1.2,0.4c-0.9,0.4-1.5,1.3-1.6,1.5c-0.3,0.4-0.5,0.7-0.5,0.7
			c-0.1-0.1,0.2-0.8,0.1-1.4c-0.2-1.3-1.9-1.5-2.7-2.9C-418.9,286.3-418.8,283.3-418.6,283.3z"/>
		<path class="st8" d="M-416.8,275c0,0,0,0,1.2,0.4l0,0c1-1.2,1.2-1.1,1.2-1.1c0.4,0.1,0.4,2.4-0.5,2.6
			C-415.7,277.1-417.1,275.1-416.8,275z"/>
		<path class="st9" d="M-430.1,262.8c0.4,0,0.3,1.3,1.6,2.4c0.8,0.7,1.7,0.8,3,1c1.7,0.2,3.5,0.5,4.6-0.6c0.9-0.8,0.8-1.8,1-1.7
			c0.5,0.1,0.4,6.7-1,6.9c-0.6,0.1-0.9-0.9-2-0.9c-0.6,0-2.1,0.8-1.6,0.6c0,0-0.2,1.4-0.7,1.6c-0.6,0.2-1.1-1.2-2.5-1.6
			c-1.3-0.3-1.9,0.6-2.6,0.3C-432.1,269.9-431,262.8-430.1,262.8z"/>
		<path class="st9" d="M-445.1,307.5c0.3-0.9,0.3-1.4,0.4-1.4c0.2,0,0,3.4-0.2,4.9v0c0,0.3-0.2,1.3-0.5,2.3c-0.4,1.1-1,1.7-1.4,2.7
			c0,0-0.1,0.1-0.1,0.2c-0.2,0.3-0.4,0.6-1.9,3c-1.1,1.7-2,3.3-2.9,4.9c-1.6,2.9-2.4,4.4-3,6.2c-1,3.3-0.8,5.8-1,5.8
			c-0.2,0-0.6-2.3-0.1-4.9c0.3-1.3,0.6-1.8,2.4-5.3c0.8-1.7,1.8-3.3,3.3-6.7c0.8-1.9,1.5-3.7,1.6-3.9c0.1-0.3,0.1-0.2,0.2-0.4
			c0.3-0.8,0.8-2.2,1.8-4.1C-445.7,308.8-445.5,308.7-445.1,307.5z"/>
		<path class="st9" d="M-417.5,306.8c-0.1-0.1-0.7,1-0.4,1.8c0.2,0.6,0.8,0.6,0.9,0.4c0.1-0.1-0.2-0.4-0.3-1
			C-417.5,307.4-417.4,306.9-417.5,306.8z"/>
		<path class="st8" d="M-421.2,326.5c0.1-0.1,0.9,0.6,2,0.6c1.1,0,1.9-0.8,2.3-1.2c2.1-2,2.4-4.9,2.5-4.9c0.1,0-1.7,8-2.2,9.8
			c-0.4,1.5-1.1,4.9-1.4,4.8c-0.3-0.1,0.8-3.7-1-6.6C-419.9,327.7-421.3,326.7-421.2,326.5z"/>

			<ellipse transform="matrix(0.3171 -0.9484 0.9484 0.3171 -565.7715 -228.6692)" class="st10" cx="-441.7" cy="278.5" rx="4" ry="3.4"/>
		<path class="st11" d="M-429.5,296.5"/>
		<path class="st8" d="M-433.8,308c-0.2-0.2,0.9-1.1,1.6-3.2c0.3-0.9,0.6-1.8,0.4-2.9c-0.2-1-0.7-1.8-1.9-3.5
			c-0.6-0.8-1-1.4-1.3-1.7c-0.7-0.8-1-1.1-1.5-1.9c-0.5-0.7-1-1.3-1.2-1.6c-0.9-1.4-0.8-3-0.7-5.1c0.3-4.7,0.4-7,0.9-7.1
			c0.8-0.1,1.5,5.3,2.5,5.2c0.7-0.1,0.8-2.9,1.3-2.9c0.6,0-0.1,5,2.5,7.2c2.4,2,7.4,1.5,9.2-1.2c0.9-1.3,0.8-3,0.7-5.1
			c-0.2-3.1-1.2-5.2-1.2-5.2c0,0,2.6,4.2,1.9,9.1c0,0.2-0.6,4.3-3.2,6.3c-0.4,0.3-0.9,0.6-1,0.6c-1.5,0.8-2.2,0.2-4.3,0.7
			c-0.3,0.1-0.8,0.2-1.6,0.3c-0.6,0.1-1,0.1-1.4-0.1c-0.9-0.4-1.2-1.4-1.2-1.4c-0.1,0,0.5,1.7,1.6,3c0.3,0.4,0.5,0.6,0.7,0.9
			c0.6,0.6,1,0.7,1.4,1.5c0.4,0.7,0.6,3-0.7,5.1C-431.5,307.2-433.5,308.2-433.8,308z"/>
		<ellipse class="st1" cx="-423.7" cy="256.1" rx="7.4" ry="10"/>
		<path class="st12" d="M-422.5,248c-1.4-0.3-1.7-0.8-2.3-0.9c-1.9-0.3-4.4,2.7-5.5,5.6c-1.2,3.1-0.7,5.8,0.4,10.9
			c2.7,12.7,4.1,16.1,3.5,21.9c-0.4,3.5-1.4,7-2,6.9c-0.5,0-0.4-3.2-1.3-8.2c-0.9-5.2-1.4-7.9-3.7-10.2c-0.1-0.1-0.1-0.1-0.3-0.3
			c-1.5-1.4-4.1-2.6-6.3-2c-0.9,0.2-1.8,0.8-3.2,1.6c-0.8,0.4-1.1,0.7-1.2,0.6c-0.3-0.3,2.8-3.1,4.3-7.4c0.6-1.8,0.8-3.1,0.9-5.4
			c0.2-8.4-1.4-9.5-0.3-13.4c0.2-0.8,1.6-5.7,5.6-7.3c0.5-0.2,2.7-0.9,5-0.2c0.8,0.3,1,0.5,3.9,2.2c1.7,1,1.7,1,3.3,1.9
			c2.8,1.7,4.3,2.5,4.8,3c1,1,1.6,2.7,0.8,10c-0.9,7.7-2.4,13.3-1.7,18.4c0.2,1.1,0.4,2.2,0.4,2.2c1,4.6,2.6,7,2.4,7.1
			c-0.4,0.2-8.7-8-6.9-15.2c0.3-1.3,1-2.7,2.6-7.9c0.6-1.9,0.9-3.2,0.7-4.8c-0.2-1.2-0.5-1.7-0.4-3c0.1-1.5,0.7-1.8,0.6-3
			c0-0.2-0.2-2-1.4-2.7C-420.6,248-421,248.4-422.5,248z"/>
		<path class="st9" d="M-412.1,306.8c0.5,1.1,0.8,1.6,2.9,4.5c3.9,5.4,4.6,7,6.6,9.2c0.7,0.8,1.3,1.6,2,2.3c1.1,1,2,1.6,1.9,2.2
			c-0.1,0.4-0.4,0.4-0.7,0.9c-0.1,0.3-0.3,0.8-0.1,1.7c0.5,2.4,2.9,5.8,2.6,6c-0.1,0.1-0.7-0.3-1.1-0.8c-1-1-0.8-1.6-1.8-2.8
			c-0.7-0.8-0.8-0.6-1.2-1.2c-0.5-0.8-0.5-1.6-0.6-2.7c-0.1-0.9,0-1.1,0-1.5c-0.1-1.3-1.1-1.9-3-3.9c-1.7-1.8-1.4-1.8-3.3-3.8
			c-1.4-1.5-1.7-1.5-2.5-2.5c-1-1.3-0.9-1.6-2-3.2c-1.4-1.9-1.7-1.7-2-2.6c-0.3-1.2,0.2-1.6,0.4-4.2c0.1-1.6,0-2.4,0.1-2.5
			C-413.5,302-413.2,304.3-412.1,306.8z"/>
		<path class="st8" d="M-423.4,409.9c0.6,2.5,1.7,3.6,1.3,5.6c-0.6,3.1-4,6.1-7.4,6.5c-1.8,0.2-2.3-0.5-4.2,0
			c-2.4,0.6-2.9,2.1-4.7,2.4c-1,0.2-2.6,0-4.8-1.8c-3.8,1.1-4.9,0.7-5.2,0.2c-0.6-1,1.6-2.5,2.7-5.9c0.7-1.9,0.6-4,0.5-8
			c-0.2-5.9-0.9-7.4,0.4-9.5c1-1.6,1.8-1.2,3.2-2.9c1.6-2.1,1.3-3.9,1.8-9.3c0.5-5.6,0.8-4.5,1.3-9.7c0.4-5.2,0-6.2,1.2-7.8
			c1.1-1.5,2.5-2.1,4.3-4.8c0.7-1.1,1.3-1.9,1.7-2.9c1.5-4.2-2.6-6.4-3.3-13.6c-0.2-2.6,0.1-5.2,0.3-6.9c0.4-3.7,0.6-3.9,0.9-4
			c1.6-0.7,6.2,3.8,9,9.2c2.5,5,2.6,9.3,6.9,13.6c0.7,0.7,0.8,0.6,1,1c2.5,3.7-3.3,9.4-5.6,18.9c-0.2,0.7-0.5,4-1,10.5
			C-424.4,404.1-424.1,407-423.4,409.9z"/>
		<path class="st13" d="M-440.1,314.9c-0.6-0.1-2.9,4.6-2.2,9.9c0.5,3.4,2.2,6.2,2.7,7.1c1.1,1.9,2.3,3.2,3.9,6.3
			c0.7,1.4,0.6,1.4,1.1,2.4c1.6,3.1,3,4,7.4,9c2.7,3,1.8,2.3,3.5,4.2c1.9,2,2.7,2.7,3,4.1c0.3,1.5-0.3,2.8-1,4.3
			c-1.3,2.9-2.2,5.9-3.5,8.8c-0.9,2-1.9,4.4-3.9,9.4c-3.3,8.1-4.9,12.2-5.8,16.8c-1.2,6.4-1.8,9.6-0.6,13.3c0.7,2.2,1.9,4.2,1.4,7.2
			c-0.4,2.8-1.9,4.4-1.2,5.2c0.9,1,3.7-1.4,6.2-0.1c1.7,0.9,2,3,3,2.9c1-0.1,1.2-2.3,2-2.3c0.7,0,0.7,1.8,1.9,2.5
			c1.4,0.8,4.1-0.1,5.1-1.7c1.7-2.9-3.4-6.7-5.8-14.3c-1.3-4.1-1.1-7.4-0.7-14.2c0.5-8.7,0.9-15.6,4.9-22.7
			c2.7-4.7,5.6-7.2,4.8-10.7c-0.5-1.8-2-4-3.9-6.8c-1-1.4-1-1.3-2.6-3.5c-0.6-0.9-2.5-3.4-4.8-6.9c-1.2-1.9-2.5-3.9-3.6-6.1
			c-2-4-1.8-4.2-2.9-5.9c-2.9-4.4-5.5-3.7-7.7-7.1C-442.1,321.1-439.5,315-440.1,314.9z"/>
		<ellipse class="st10" cx="-437.1" cy="317.7" rx="4.1" ry="5.6"/>
	</g>
	<path class="st0" d="M350.4,177.7"/>
</g>
<g id="Layer_2">
</g>
<g id="Layer_3">
</g>
</svg>
