<?xml version="1.0" encoding="utf-8"?>
<!-- Generator: Adobe Illustrator 21.1.0, SVG Export Plug-In . SVG Version: 6.00 Build 0)  -->
<svg version="1.1" id="Capa_1" xmlns="http://www.w3.org/2000/svg" xmlns:xlink="http://www.w3.org/1999/xlink" x="0px" y="0px"
	 viewBox="0 0 512 512" style="enable-background:new 0 0 512 512;" xml:space="preserve">
<style type="text/css">
	.st0{fill:#424190;}
	.st1{fill:#B9E4CD;}
	.st2{fill:#EDDAF0;}
	.st3{fill:#D9DEF0;}
	.st4{fill:#EBD2B5;}
	.st5{fill:#F3E4DB;}
	.st6{fill:none;stroke:#009FE3;stroke-linecap:round;stroke-linejoin:round;stroke-miterlimit:10;}
	.st7{fill:#316852;}
	.st8{fill:#526C9B;}
	.st9{fill:#66CAAD;}
</style>
<path class="st0" d="M8.5,191.3"/>
<g>
	<path class="st1" d="M202.6,208.1c2.2,4.9,4.4,9.7,6.6,14.6c0,0,5.5,14.5,7.4,28.5c2.9,21.7-6,41.6-8.5,47.7
		c-7.9,19.2-16.3,54.5-16.4,125.5c-9,0.4-18,0.7-27,1.1c22-72.2,20.5-101.3,13.2-113.3c-0.9-1.4-5.2-8.3-9.5-18.5
		c-6.2-14.8-8.3-27.1-9-32.3c-1.6-11.7-3.4-24,1.2-38.6c2.1-6.6,4.8-11.7,7-15.2"/>
	<path class="st2" d="M172,100.2c-4.8,3.8-6.3,8.8-6.7,10.2c-0.9,3.3-0.7,5.6-0.7,7.8c-0.1,6.5-2.6,11.4-7.8,21.2
		c-5.3,10.1-10.8,16.9-12.3,18.6c-8.2,9.8-14.9,17.8-24,18c-4.2,0.1-7.9-1.4-8.1-0.7c-0.3,0.8,4.1,3.8,9.2,4.2
		c5.7,0.5,10.2-2.5,10.6-1.8c0.4,0.8-6,3.1-7.1,8.1c-0.8,3.7,1.6,7.6,2.5,7.4c0.8-0.1-0.1-3.4,1.8-6.7c2.3-4,7.6-6.3,9.2-4.9
		c1.1,1,0.3,3.9-0.7,7.1c-1.4,4.6-3.2,6.7-2.8,7.1c0.6,0.5,5.7-3.6,10-8.9c2.5-3,3.4-4.8,4.1-4.5c1.1,0.4,1.2,4.9-0.7,8.5
		c-1.4,2.6-3.3,3.8-3.2,3.9c0.2,0.2,5.3-2.6,9.2-8.1c1.5-2.1,2.6-3.7,2.8-3.5c0.4,0.2-1,3.8-2.5,6.8c-1.5,3.1-2.8,4.7-2.5,4.9
		c0.7,0.6,6.9-7.4,10.2-6c2,0.9,2.2,4.9,2.2,5.2c0.1,3.7-2.3,5.9-1.8,6.4c0.8,0.6,5-3.3,7.1-5.3c2.5-2.4,2.7-2.8,3.5-3.5
		c6.7-5.6,22.3,0.7,28.6,3.2c5.2,2.1,8.6,4,9.2,3.2c1-1.4-6.7-9.2-6.7-9.2c0,0,4.8,0.5,9.2,1.8c5.4,1.6,6.4,3.3,7.8,2.5
		c1.4-0.8,2-3.5,1-4.8c-1.1-1.6-3.8-0.4-6.7-2.5c-1.3-0.9-2.4-2.3-2.1-2.8c0.6-0.9,6,3.8,12,2.8c4.8-0.8,8.8-5.1,8.1-6.7
		c-1-2.5-13,1.5-14.8-2.2c-0.5-1.1-0.1-2.6,0.7-3.4c1.7-1.9,5.6-0.9,8.1-0.4c10.5,2.1,20.1-1.1,20.1-1.8c0-0.6-8.4,1.6-16.2-2.5
		c-9.7-5-13.9-17.3-18.3-30.1c-1.2-3.4-1.1-8.3-4.6-13c-1.8-2.3-3.2-3.1-4.6-6c-1.9-3.8-0.7-4.9-2.1-9.5c-0.3-0.9-2.3-6.9-7.8-11.3
		c-2.2-1.7-3.8-2.3-4.2-2.5c-3-1.1-5.7-0.7-7.8-0.4C180,96.3,175.9,97,172,100.2z"/>
	<g>
		<g>
			<path class="st3" d="M185.8,166.9c0,0,0.1-2.7,1.1-7.4c1.3-4.5,3.1-11.3,7.4-18.4c1.1-1.8,2.2-3.6,3.5-5.4
				c1.2-1.9,2.7-3.7,4.1-5.6c0.7-1,1.5-1.9,2.4-2.8c0.8-0.9,1.7-1.8,2.5-2.8c0.9-0.9,1.8-1.8,2.8-2.6c0.9-0.9,1.9-1.8,2.9-2.6
				c2-1.6,4.1-3.4,6.3-4.9c1.1-0.8,2.3-1.5,3.4-2.3c1.2-0.7,2.3-1.4,3.5-2.1c4.7-2.8,9.7-5.1,14.7-7.3c10.1-4.1,20.3-7.5,29.8-10.3
				c9.5-3,18.4-5.2,25.8-7.8c7.4-2.6,13.6-4.7,17.8-6.7c2.2-0.9,3.8-1.7,4.9-2.3c1.1-0.5,1.7-0.8,1.7-0.8s-0.5,0.5-1.4,1.3
				c-0.9,0.8-2.2,2.2-4,3.7c-3.7,2.8-9.1,7.2-16.4,10.9c-7.2,3.7-15.7,7.9-25,11.5c-9.2,3.8-19.2,7.3-28.7,11.4
				c-4.8,2-9.5,4-13.8,6.4c-1.1,0.6-2.2,1.2-3.3,1.7c-1,0.6-2.1,1.3-3.1,1.9c-2.1,1.2-4,2.6-6,3.9c-7.7,5.4-14.3,11.5-19.1,17.4
				c-4.8,6-8.6,11.4-10.7,15.5C186.7,164.4,185.8,166.9,185.8,166.9z"/>
		</g>
		<g>
			<path class="st3" d="M187,171.5C187,171.5,187.1,171.5,187,171.5c0.2,0,0.2-0.1,0.3-0.2c0.2-0.3,0.3-0.7,0.5-1.3
				c0.4-1.2,0.9-2.9,1.6-5.1c1.7-4.2,4.1-10.6,9-17c4.9-6.4,11.6-13.4,20.5-18.7c8.7-5.4,18.7-9.3,28.5-12.7c10-3.2,19.9-6,29.1-8.5
				c9.2-2.6,17.8-4.7,24.8-7.5c7-2.7,12.8-5.2,16.6-7.6c1.9-1.1,3.4-2.1,4.4-2.8c1-0.7,1.5-1.1,1.5-1.1s-0.4,0.5-1.1,1.5
				c-0.7,1-1.8,2.4-3.4,4.2c-1.6,1.6-3.7,3.6-6.2,5.7c-2.5,2-5.5,4.2-9,6.1c-6.9,3.9-15.2,8-24.4,11.4c-9.1,3.5-19,6.5-28.6,9.8
				c-9.6,3.1-19,6.5-27.2,10.5c-8.1,4-15.3,8.8-20.6,14c-5.3,5.2-9.5,10-12,13.7c-1.4,1.8-2.4,3.3-3.1,4.3c-0.4,0.5-0.7,0.9-0.9,1.1
				c-0.1,0.1-0.2,0.2-0.3,0.2C187.1,171.5,187,171.5,187,171.5z"/>
		</g>
		<g>
			<path class="st3" d="M188.3,176c0,0,0.1,0.1,0.4,0.1c0.3,0,0.6-0.3,0.9-0.7c0.6-0.8,1.3-2.3,2.2-4.1c2-3.5,4.7-9,9.8-14.2
				c2.5-2.6,5.5-5.3,8.9-7.8c3.4-2.6,7.3-4.8,11.4-6.7c8.2-3.9,17.2-6.7,26.1-9.3c9-2.3,17.9-4.5,26.3-6.3c8.3-2,16.1-3.5,22.5-5.6
				c3.2-1.1,6.1-2,8.7-3c2.6-1,4.8-1.9,6.5-2.9c0.9-0.4,1.7-0.9,2.4-1.2c0.7-0.4,1.3-0.7,1.7-1c0.9-0.6,1.4-0.9,1.4-0.9
				s-0.4,0.5-1,1.3c-0.3,0.4-0.7,1-1.3,1.6c-0.5,0.6-1.1,1.3-1.9,2.1c-1.5,1.4-3.4,3.1-5.7,4.9c-2.3,1.8-5.1,3.6-8.3,5.2
				c-6.3,3.2-13.9,6.8-22.2,9.5c-8.3,2.9-17.2,5.2-26,7.7c-8.8,2.3-17.5,4.8-25.3,7.5c-3.9,1.4-7.5,2.8-10.9,4.4
				c-3.3,1.6-6.4,3.5-9,5.4c-5.3,3.9-9.6,7.7-12.4,10.6c-1.5,1.4-2.7,2.5-3.7,3.2c-0.5,0.3-0.9,0.5-1.2,0.4
				C188.4,176.2,188.3,176,188.3,176z"/>
		</g>
		<g>
			<path class="st3" d="M189.6,180.6c0,0,0.1,0,0.3,0.1c0.2,0.1,0.5,0.1,0.9-0.1c0.8-0.4,1.5-1.5,2.4-2.9c2-2.7,4.4-7.5,9.6-11.5
				c2.6-2,5.7-3.9,9.2-5.3c1.8-0.7,3.7-1.3,5.6-1.7c1-0.2,1.8-0.4,2.7-0.6c0.9-0.2,1.8-0.3,2.7-0.5c7.2-1.4,15-2.5,22.6-3.9
				c7.7-1.1,15.3-2.5,22.4-3.8c7.1-1.4,13.8-2.3,19.4-3.8c5.5-1.5,10.3-2.6,13.5-3.9c1.7-0.5,2.9-1.1,3.8-1.4
				c0.9-0.3,1.4-0.5,1.4-0.5s-0.4,0.4-1,1c-0.7,0.6-1.6,1.7-3,2.9c-2.8,2.1-6.8,5.5-12.4,8.1c-5.5,2.6-12,5.6-19.3,7.8
				c-7.2,2.3-15.1,3.9-23,5.3c-7.9,1.2-15.8,2.1-23.3,2.5c-0.9,0.1-1.9,0.1-2.8,0.2c-0.9,0-1.7,0.1-2.6,0.1c-1.6,0-3.1,0.2-4.5,0.4
				c-2.9,0.5-5.7,1.4-8.1,2.6c-4.8,2.4-8.8,5.3-11.6,7.5c-0.7,0.5-1.4,1-2.1,1.3c-0.6,0.3-1.3,0.6-1.8,0.6c-0.5,0-0.9-0.2-1.1-0.3
				C189.7,180.7,189.6,180.6,189.6,180.6z"/>
		</g>
		<g>
			<path class="st3" d="M190.9,185.1c0,0,0.3,0.2,1,0.3c0.7,0.1,1.7-0.1,2.7-0.9c2.2-1.2,4.8-4.5,9.3-7c2.3-1.2,4.9-2.5,8-3.3
				c1.5-0.4,3.1-0.7,4.8-0.9c0.8-0.1,1.7-0.1,2.5-0.1c0.7,0,1.4,0,2.2,0c5.7-0.2,11.8-0.3,18-0.7c6.1-0.2,12.3-0.7,18-1
				c5.8-0.5,11.2-0.5,15.9-1.1c4.6-0.5,8.7-0.6,11.4-1c2.8-0.2,4.5-0.3,4.5-0.3s-1.4,0.9-3.7,2.5c-2.5,1.3-6,3.6-10.6,5.3
				c-4.6,1.6-10,3.7-15.9,4.9c-6,1.4-12.4,2.1-18.9,2.5c-6.5,0.2-13.1,0.1-19.2-0.7c-0.8-0.1-1.5-0.2-2.2-0.3
				c-0.6-0.1-1.2-0.2-1.8-0.3c-1.2-0.1-2.4-0.2-3.5-0.2c-2.3,0-4.6,0.3-6.7,0.9c-4.2,1.1-8.1,2.5-11.2,3c-1.6,0.2-2.9-0.3-3.6-0.8
				C191.1,185.5,190.9,185.1,190.9,185.1z"/>
		</g>
		<g>
			<path class="st3" d="M192.2,189.7c0,0,0.3,0.1,0.9,0.3c0.6,0.2,1.4,0.4,2.5,0.5c1,0.2,2.3,0.2,3.7,0c1.4-0.2,3-0.5,4.8-0.7
				c3.5-0.5,7.9-1.8,12.8-2.1c2.5-0.2,4.8-0.3,7.3-0.4c2.4-0.1,4.9-0.1,7.4-0.2c4.9,0.1,9.9,0,14.5,0.3c4.6,0.1,9,0.9,12.8,1.1
				c3.7,0.2,7,1.1,9.2,1.3c2.3,0.5,3.5,0.8,3.5,0.8s-1.2,0.6-3.3,1.6c-2.1,0.7-5.2,2.2-8.9,3c-3.7,0.8-8.1,2.1-12.8,2.7
				c-4.7,0.7-9.8,0.9-14.9,1.1c-2.5,0-5.1-0.1-7.6-0.2c-2.5-0.1-5-0.3-7.2-0.6c-4.5-0.4-8.9-1.1-12.9-1.6c-2-0.3-3.9-0.9-5.4-1.6
				c-1.6-0.7-2.9-1.6-3.8-2.3c-0.9-0.8-1.5-1.5-1.9-2.1C192.4,190,192.2,189.7,192.2,189.7z"/>
		</g>
		<g>
			<path class="st3" d="M193.4,194.2c0,0,1,0.2,2.7,0.6c0.8,0.3,1.8,0.5,2.9,0.7c1.1,0.3,2.3,0.6,3.6,1c0.6,0.2,1.3,0.4,2,0.6
				c0.7,0.2,1.4,0.4,2.2,0.5c1.5,0.4,3,0.7,4.5,1.2c3.1,0.8,6.3,2,9.6,2.9c3.2,1.1,6.5,2.1,9.6,3.2c3.1,1,6,2.5,8.6,3.3
				c2.6,0.9,4.7,2.2,6.3,2.8c1.5,0.8,2.4,1.3,2.4,1.3s-0.9,0.4-2.6,1c-1.6,0.4-4,1.3-6.9,1.5c-2.8,0.2-6.3,0.7-9.8,0.3
				c-3.6-0.2-7.4-1.1-11.1-2.1c-3.7-1.2-7.3-2.8-10.4-4.7c-1.6-1-3-2-4.3-3.1c-0.6-0.5-1.3-1.1-1.9-1.6c-0.6-0.5-1.1-1.1-1.7-1.5
				c-1.1-0.9-2-2-2.7-3c-0.7-1-1.3-1.9-1.8-2.6C193.9,195.1,193.4,194.2,193.4,194.2z"/>
		</g>
	</g>
	<g>
		<g>
			<path class="st3" d="M177,165.7c0,0-0.4-2.8-2-7.6c-1.9-4.6-4.6-11.5-9.9-18.4c-1.4-1.7-2.7-3.5-4.3-5.3c-1.5-1.8-3.2-3.6-5-5.4
				c-0.9-0.9-1.8-1.8-2.8-2.6c-1-0.9-2-1.7-3-2.6c-1.1-0.8-2.1-1.6-3.2-2.4c-1.1-0.8-2.2-1.7-3.4-2.4c-2.3-1.5-4.7-3.1-7.2-4.4
				c-1.3-0.7-2.5-1.3-3.8-2c-1.3-0.6-2.6-1.2-3.9-1.7c-5.3-2.3-10.8-4.2-16.3-5.9c-11.1-3.1-22.1-5.4-32.4-7.2
				c-10.3-2-19.9-3.2-27.9-5.1c-8-1.9-14.8-3.3-19.4-4.9c-2.4-0.7-4.1-1.4-5.4-1.8c-1.3-0.4-1.9-0.7-1.9-0.7s0.6,0.4,1.6,1.2
				c1.1,0.8,2.6,2,4.7,3.4c4.3,2.5,10.4,6.4,18.4,9.4c8,3,17.4,6.4,27.5,9.1c10.1,2.9,21,5.3,31.3,8.5c5.2,1.5,10.4,3.1,15.2,5
				c1.2,0.5,2.4,0.9,3.6,1.4c1.2,0.5,2.3,1.1,3.5,1.6c2.3,1,4.5,2.2,6.7,3.4c8.7,4.7,16.3,10.3,22.1,15.9c5.8,5.6,10.3,10.9,13,14.9
				C175.7,163.2,177,165.7,177,165.7z"/>
		</g>
		<g>
			<path class="st3" d="M176.2,170.6c0,0,0,0-0.1,0c-0.1,0-0.2-0.1-0.3-0.2c-0.2-0.3-0.4-0.7-0.7-1.3c-0.5-1.2-1.3-2.9-2.3-5.1
				c-2.3-4.2-5.5-10.6-11.5-16.7c-5.9-6.1-13.8-12.7-23.6-17.1c-9.7-4.6-20.6-7.4-31.3-9.8c-10.8-2.1-21.5-3.9-31.4-5.4
				c-9.9-1.6-19.1-2.8-26.8-4.9c-7.6-2-14-3.9-18.2-5.9c-2.2-0.9-3.8-1.7-4.9-2.4c-1.1-0.6-1.7-1-1.7-1s0.5,0.5,1.3,1.5
				c0.9,1,2.2,2.3,4,3.9c1.9,1.5,4.3,3.3,7.1,5.2c2.9,1.8,6.3,3.7,10.1,5.3c7.7,3.2,16.9,6.6,26.9,9c10,2.6,20.6,4.5,31,6.8
				c10.5,2.1,20.7,4.6,29.7,7.7c9,3.2,17,7.4,23.2,12.2c6.1,4.8,11.1,9.3,14.2,12.9c1.6,1.7,2.9,3.1,3.8,4.1c0.4,0.5,0.8,0.8,1.1,1
				c0.1,0.1,0.3,0.2,0.4,0.1C176.2,170.7,176.2,170.6,176.2,170.6z"/>
		</g>
		<g>
			<path class="st3" d="M175.4,175.6c0,0-0.1,0.1-0.4,0.1c-0.3,0-0.7-0.2-1-0.6c-0.7-0.8-1.6-2.2-2.8-4c-2.5-3.4-6-8.8-12-13.7
				c-3-2.4-6.4-4.9-10.2-7.1c-3.8-2.3-8.2-4.1-12.7-5.6c-9-3.1-18.8-5-28.4-6.6c-9.7-1.4-19.3-2.5-28.2-3.4
				c-8.9-1.1-17.2-1.7-24.2-3.1c-3.5-0.7-6.6-1.4-9.5-2.1c-2.8-0.7-5.3-1.4-7.2-2.2c-1-0.3-1.9-0.7-2.6-1c-0.8-0.3-1.4-0.6-1.9-0.9
				c-1-0.5-1.6-0.8-1.6-0.8s0.4,0.4,1.2,1.3c0.4,0.4,0.9,0.9,1.5,1.5c0.6,0.6,1.3,1.3,2.2,1.9c1.8,1.3,3.9,2.9,6.6,4.5
				c2.6,1.6,5.8,3.1,9.3,4.5c7,2.6,15.4,5.4,24.4,7.2c9,2,18.6,3.3,28.1,4.9c9.5,1.3,18.8,2.9,27.3,4.8c4.3,1,8.2,2,11.9,3.3
				c3.7,1.3,7.1,2.9,10.1,4.6c6,3.5,10.9,6.9,14.2,9.6c1.7,1.3,3.1,2.3,4.2,2.9c0.6,0.3,1,0.4,1.3,0.3
				C175.3,175.7,175.4,175.5,175.4,175.6z"/>
		</g>
		<g>
			<path class="st3" d="M174.6,180.5c0,0-0.1,0.1-0.3,0.2c-0.2,0.1-0.5,0.2-1,0c-0.9-0.3-1.8-1.3-2.9-2.8
				c-2.4-2.6-5.5-7.3-11.5-10.9c-2.9-1.8-6.4-3.4-10.3-4.4c-1.9-0.5-4-0.9-6.1-1.1c-1.1-0.1-2-0.2-2.9-0.3c-0.9-0.1-1.9-0.1-2.9-0.2
				c-7.7-0.6-15.9-0.8-24.1-1.4c-8.2-0.3-16.3-0.8-23.9-1.2c-7.6-0.6-14.7-0.8-20.7-1.7c-6-0.9-11.1-1.5-14.6-2.4
				c-1.8-0.3-3.2-0.8-4.1-1c-1-0.3-1.5-0.4-1.5-0.4s0.4,0.3,1.2,0.9c0.8,0.6,1.9,1.6,3.5,2.7c3.2,1.9,7.8,4.9,13.9,7
				c6.1,2.1,13.2,4.4,21.1,5.8c7.8,1.5,16.3,2.3,24.7,2.8c8.4,0.3,16.8,0.3,24.6-0.1c1-0.1,1.9-0.1,2.9-0.2c0.9-0.1,1.8-0.1,2.7-0.2
				c1.6-0.1,3.2-0.1,4.8-0.1c3.1,0.1,6.1,0.7,8.8,1.7c5.3,2,9.8,4.5,13,6.5c0.8,0.4,1.6,0.8,2.3,1.1c0.7,0.3,1.4,0.4,1.9,0.4
				c0.5,0,0.9-0.3,1.1-0.5C174.5,180.6,174.6,180.5,174.6,180.5z"/>
		</g>
		<g>
			<path class="st3" d="M173.8,185.4c0,0-0.3,0.2-1.1,0.4c-0.7,0.2-1.8,0.1-3-0.6c-2.4-0.9-5.5-4.1-10.6-6.2c-2.5-1-5.5-2-8.7-2.5
				c-1.6-0.3-3.4-0.4-5.1-0.3c-0.9,0-1.8,0.1-2.6,0.2c-0.8,0.1-1.5,0.1-2.3,0.2c-6,0.5-12.4,1.1-18.9,1.4c-6.4,0.5-12.9,0.7-19,1.1
				c-6.1,0.2-11.8,0.8-16.7,0.8c-4.9,0-9.1,0.4-12.1,0.4c-3,0.1-4.7,0.2-4.7,0.2s1.5,0.8,4.2,2.2c2.8,1.1,6.7,3.1,11.7,4.2
				c5,1.1,10.9,2.7,17.3,3.2c6.4,0.7,13.2,0.7,20.1,0.4c6.8-0.6,13.7-1.4,19.9-3.1c0.8-0.2,1.5-0.4,2.3-0.6c0.6-0.2,1.2-0.4,1.9-0.5
				c1.2-0.3,2.5-0.5,3.7-0.7c2.4-0.3,4.9-0.3,7.1,0.1c4.5,0.7,8.8,1.7,12.1,1.8c1.7,0,3-0.6,3.6-1.2
				C173.6,185.8,173.8,185.4,173.8,185.4z"/>
		</g>
		<g>
			<path class="st3" d="M173.1,190.3c0,0-0.3,0.1-0.9,0.4c-0.6,0.3-1.5,0.6-2.6,0.8c-1,0.4-2.4,0.4-3.9,0.5c-1.5,0-3.2-0.1-5.1-0.2
				c-3.7-0.1-8.4-0.9-13.6-0.7c-2.7,0.1-5.1,0.3-7.7,0.5c-2.5,0.2-5.1,0.4-7.7,0.7c-5.2,0.7-10.3,1.2-15.1,2.1
				c-4.8,0.7-9.3,2-13.2,2.7c-3.9,0.7-7.1,2-9.4,2.5c-2.3,0.8-3.6,1.2-3.6,1.2s1.3,0.4,3.6,1.2c2.3,0.5,5.7,1.7,9.7,2.1
				c4,0.4,8.7,1.2,13.7,1.3c5,0.2,10.4-0.2,15.7-0.6c2.7-0.4,5.3-0.7,7.9-1.1c2.6-0.4,5.2-1,7.4-1.5c4.6-0.9,9.2-2.2,13.3-3.3
				c2-0.6,3.9-1.4,5.5-2.3c1.6-1,2.8-2,3.7-2.9c0.9-1,1.4-1.8,1.7-2.4C172.9,190.6,173.1,190.3,173.1,190.3z"/>
		</g>
		<g>
			<path class="st3" d="M172.3,195.2c0,0-1,0.3-2.7,0.9c-0.8,0.4-1.8,0.7-3,1.1c-1.1,0.4-2.4,0.9-3.7,1.5c-0.6,0.3-1.3,0.6-2,0.9
				c-0.7,0.3-1.4,0.5-2.2,0.8c-1.5,0.6-3.1,1.1-4.6,1.8c-3.2,1.2-6.4,2.8-9.7,4.1c-3.3,1.6-6.6,2.9-9.7,4.5c-3.1,1.4-6,3.3-8.6,4.5
				c-2.6,1.2-4.7,2.9-6.2,3.7c-1.5,1.1-2.4,1.7-2.4,1.7s1,0.3,2.8,0.7c1.7,0.2,4.4,0.9,7.4,0.8c3-0.1,6.6,0,10.3-0.8
				c3.8-0.6,7.6-2,11.4-3.5c3.7-1.7,7.3-3.8,10.3-6.1c1.5-1.2,2.9-2.4,4.1-3.7c0.6-0.6,1.2-1.3,1.8-1.9c0.5-0.6,1.1-1.2,1.6-1.8
				c1-1.1,1.8-2.4,2.4-3.5c0.6-1.1,1.1-2.1,1.6-2.9C171.9,196.2,172.3,195.2,172.3,195.2z"/>
		</g>
	</g>
	<g>
		<path class="st4" d="M156.5,217c0.6-0.4,2.6-2.2,3.4-2.7c1.1-0.6,4-1.4,4-1.4l-1.5,2L156.5,217z"/>
		<path class="st4" d="M212.8,216.7c-0.6-0.4-1.5-2.1-2.8-2.7c-0.9-0.4-4-1.1-4-1.1l1.5,2L212.8,216.7z"/>
	</g>
	<path class="st5" d="M189.8,133.3c-0.6,2-1.1,4.7-1,6.1c0.1,2.6,2.3,4.6,4.1,5.1c1.8,0.5,11.1,0.6,13.1,4.6c2,4,1.1,15.2-1.7,23.3
		c-2.8,8.2-6.4,21-6.4,24c0,3,2.4,7.8,4.7,11.6c-0.9,6.5-11,7.8-17.4,7.8l-0.1,0.1c-6.4,0-16.4-2-17.4-8.5c2.3-3.7,4.7-7.9,4.7-10.9
		c0-3-3.6-15.9-6.4-24.1c-2.8-8.2-3.7-19.4-1.7-23.4s11.3-4.1,13.1-4.6c1.8-0.5,4-2.6,4.1-5.1c0-1.5-0.4-4.1-1-6.1L189.8,133.3z"/>
	<path class="st1" d="M189.8,137.8c-0.3,0.9-0.5,1.9-0.7,2.8c-1.5,0.4-3.7,0.5-4.4,0.5c-0.5,0-2.1-0.1-3.5-0.3c-0.2-1-0.4-2.1-0.7-3
		L189.8,137.8z"/>
	<path class="st1" d="M185.2,166.6c3.4-7.8,14.8-10.8,20.1-3.2c3,4.3,0.8,8.8-2,12.5c-2.8,8.2-5.5,17.8-5.5,20.8
		c0,3,3.1,7.6,5.4,11.3c-0.9,6.5-11.7,8.8-18.1,8.8c-6.4,0-17.1-2.3-18.1-8.8c2.3-3.7,5.4-8.3,5.4-11.3c0-3-2.7-12.6-5.5-20.8
		c-2.8-3.7-5-8.2-2-12.5c5.3-7.6,16.7-4.6,20.1,3.2H185.2z"/>
	<path class="st5" d="M195.6,111.9c-1.1-1.4-2.6-0.9-4.4-1.9c-2.9-1.6-3.4-5.4-4-5.2c-0.4,0.1,0.2,1.8-0.5,3.7
		c-0.6,1.5-1.9,2.4-3.7,3.6c-1.8,1.2-2.9,1.5-5.5,2.8c-1.9,0.9-3.4,1.8-4.3,2.3l0,0c0,0,0.3,2.2,0.7,4.2c0.2,1.3,0.5,2.5,0.8,3.9
		c0.6,2.2,0.9,3.3,1.5,4.3c1.2,2.1,2.9,3.1,5.3,4.5c1.9,1.1,2.7,1.3,3.2,1.3c0.9,0,1.6-0.2,3.3-1.2c2.8-1.6,4.2-2.4,5.3-3.7
		c1.5-1.8,2-3.7,2.5-5.7c0.3-1.2,0.4-2.5,0.7-5.1c0.2-2.5,0.2-3.8,0-5.2C196.2,113.2,196.1,112.5,195.6,111.9z"/>
	<path class="st5" d="M173.4,151.6c1-2.6,1.8-7-2.3-6c-11.3,2.6-26.8,16.8-31.4,21.3c-4.6,4.5-16.2,19-16.6,21.8
		c-0.7,5.4,10.4,16.3,16.6,21.9c6.1,5.6,14.2,11.4,15,12.2c0.8,0.8,8.4,5.9,9.5,5.3c0.9-0.4-4.2-4.5-3.5-5.2
		c0.4-0.4,8.2,1.5,8.5,0.9c0.4-0.9-6.6-2.8-6.4-3.5c0.2-0.6,8.4,2.2,8.7,1.3c0.4-1.3-8-3.6-8.2-4.8c-0.1-1,6.9-2.1,6.8-2.9
		c-0.1-0.8-6.5,0.7-9.6,1.6c-2.9,0.9-5.7,1.9-6.6,1.6c-1.5-0.5-13-13.5-14.6-15.5c-2.5-3.1-7.2-10-8.3-11.6
		c-1.1-1.6,29.4-27.3,33.6-30.1C170.2,156.1,172.3,154.5,173.4,151.6z"/>
	<path class="st5" d="M196.5,151.6c-1-2.6-1.8-7,2.3-6c11.3,2.6,26.8,16.8,31.4,21.3c4.6,4.5,16.2,19,16.6,21.8
		c0.7,5.4-10.4,16.3-16.6,21.9c-6.1,5.6-14.2,11.4-15,12.2c-0.8,0.8-8.4,5.9-9.5,5.3c-0.9-0.4,4.2-4.5,3.5-5.2
		c-0.4-0.4-8.2,1.5-8.5,0.9c-0.4-0.9,6.6-2.8,6.4-3.5c-0.2-0.6-8.4,2.2-8.7,1.3c-0.4-1.3,8-3.6,8.2-4.8c0.1-1-6.9-2.1-6.8-2.9
		c0.1-0.8,6.5,0.7,9.6,1.6c2.9,0.9,5.7,1.9,6.6,1.6c1.5-0.5,13-13.5,14.6-15.5c2.5-3.1,7.2-10,8.3-11.6c1.1-1.6-29.4-27.3-33.6-30.1
		C199.7,156.1,197.6,154.5,196.5,151.6z"/>
	<path class="st6" d="M254,335.9c-0.1-0.1-0.2-0.2-0.3-0.3c0.1,0.1,0.1,0.3,0.2,0.5c0.1,0.2,0.2,0.5,0.3,0.7
		c0.1-0.1,0.2-0.2,0.2-0.3C254.3,336.3,254.1,336.1,254,335.9z"/>
	<g>
		<path class="st7" d="M144.8,348.8c10.9-14.8,28.9-47.4,35.7-96c0,0-13,49.4-42.4,87.3c-5.6,7.3-33.1,43.1-55.9,78
			c10.6,6.2,19,1.2,27.3-3.5C113.4,399.8,123,378.5,144.8,348.8z"/>
		<path class="st7" d="M187.5,223.3c-0.5-4.2-1.1-8.4-1.6-12.6c0-1.1,0-2.3-0.1-3.4c0-0.3,0-0.6,0-0.8c0,0.2-0.1,0.4-0.1,0.6
			c-0.3,1.5-0.7,3-1.1,4.5c-0.9,3.1-2.1,6.1-3.5,8.9c-1.1,4.8-2.4,9.6-4,14.3c-2.1,6.3-4.4,12.6-6.9,18.8c-1.6,4.3-3.4,8.5-5.3,12.7
			c-2.4,5.3-4.8,10.5-7.4,15.7c-2,3.9-4.1,7.7-6.3,11.5c-1,1.7-1.9,3.4-2.9,5.1c-0.3,0.4-0.6,0.7-0.9,1.1
			c-4.9,7.4-10.3,14.5-16.3,21c-10.7,11.7-22.9,21.4-35.1,31.3c-10.5,8.6-21.3,17.7-33.6,23.8c0.9,2.6,1.4,5.5,1.6,8.9
			c0.2,4.2,0.1,8.9,1.5,13.9c9.5-8.3,25.3-22.7,50.1-47.1C173.2,294.6,181,234,183.9,226c0,0,1.3,56.9-20.7,103.8
			c-14.2,30.4-22.1,59.5-26.2,82.4c6.3,3.2,11.6,8.6,15.7,14.9c1.1,1.6,2.5,3,4.1,4.2c0.7,0.5,1.3,0.9,2.1,1.3
			c-1.6-7.7-1.6-15.8-1.3-23.4c0.8-16.8,4.4-33.6,8.9-49.7c4.9-17.8,11.7-35,15.6-53c3.9-17.8,5.5-36.1,6.1-54.3
			C188.6,242.5,188.6,233,187.5,223.3z"/>
	</g>
	<g>
		<g>
			<path class="st1" d="M8.9,278c54.7,16.4,123.9-25.2,123.9-25.2C72.5,283,29.2,253.3,14.4,240.4c-5.6,6.2-9.5,14.3-8.2,24.5
				C6.9,269.8,7.9,274.1,8.9,278z"/>
			<path class="st1" d="M184.5,197.2c0,0-0.2,0.3-0.7,1c-0.2,0.3-0.4,0.5-0.7,0.9c-0.3,0.4-0.7,0.8-1,1.3c-0.6,0.7-1.2,1.5-2,2.4
				c-0.8,1-1.8,2.1-2.9,3.3c-0.1,0.1-0.1,0.2-0.2,0.2c-0.2,0.2-0.4,0.5-0.7,0.7c-0.5,0.5-1,1.1-1.5,1.6c-16.4,18-52,49.8-91.6,41
				c-4.3-0.7-8.5-2-12.6-4.1c-0.7-0.4-1.4-0.7-2.2-1.1c-4.8-2.6-9.3-5.7-13.8-8.7c-0.4-0.2-0.7-0.5-1.1-0.7
				c-2.4-1.6-4.7-3.5-6.5-5.6c-2-1.8-3.9-3.8-5.9-5.9c0,0-7.7,2.4-15.8,7.7c60.3,64.4,131.1,5.1,131.1,5.1
				c-37.6,40.9-97.1,58-141.9,62.1c0.3,1.9,0.5,3.9,0.4,5.8c0,1.3-0.2,2.6-0.4,4c24.5-0.5,49.1-8.3,71.2-18
				c15.6-6.8,30.8-15,45.3-23.9c13.5-8.3,25.3-19.1,34.5-32c4.4-6.3,8.1-12.9,11.3-19.9c0.7-1.5,1.3-2.9,1.9-4.4
				c0.2-0.4,0.3-0.7,0.5-1.1c0.5-1.3,1-2.5,1.5-3.8c0.5-0.7,1-1.4,1.5-2.1c0.3-0.4,0.6-0.9,0.9-1.3c0.1-0.2,0.3-0.4,0.4-0.6
				c0.2-0.2,0.3-0.4,0.5-0.7c0.1-0.2,0.2-0.4,0.4-0.5c0.4-0.6,0.6-1.2,0.6-1.8C184.9,197.9,184.7,197.6,184.5,197.2z"/>
		</g>
		<g>
			<path class="st8" d="M157.6,261.7C90.5,324.8,26.6,345.5-0.2,351.8c2.4,8,8.9,15,17.5,19.9c1,0.6,2.1,1.1,3.3,1.7
				C115.9,338.4,157.6,261.7,157.6,261.7z"/>
			<path class="st8" d="M185.2,198.3C185.2,198.2,185.2,198.2,185.2,198.3C185.2,198.2,185.2,198.2,185.2,198.3
				c-0.1,0.5-0.3,1.1-0.7,1.7c-0.1,0.2-0.2,0.4-0.4,0.5c-0.1,0.2-0.3,0.4-0.5,0.7c-0.1,0.2-0.3,0.4-0.4,0.6
				c-0.3,0.4-0.6,0.9-0.9,1.3c-0.5,0.7-1,1.4-1.5,2.1c-0.5,1.3-1,2.6-1.5,3.8c-0.1,0.4-0.3,0.7-0.5,1.1c-0.6,1.5-1.3,3-1.9,4.4
				c-3.2,6.9-6.9,13.6-11.3,19.9c-9.1,12.9-21,23.7-34.5,32c-14.5,9-29.7,17.1-45.3,23.9c-22.1,9.7-46.7,17.5-71.2,18
				c-0.9,5.4-3.6,11.4-9.3,18.8c-0.3,0.4-0.6,0.8-0.9,1.2c116.2-17.5,164.8-89.6,164.8-89.6c-23.1,77.4-84,123.5-128.7,148
				c2.1,2.5,3.8,5.5,5,9.2c0.1,0.3,0.2,0.5,0.2,0.8c13.5-6.1,25.6-15.7,37.3-24.7c13.6-10.4,27.2-20.5,39.1-32.9
				c6.7-6.9,12.8-14.4,18.4-22.3c1.5-2.2,3-4.3,4.4-6.6c2.6-4,5-8.1,7.3-12.2c3-5.5,5.8-11.1,8.6-16.8c2.2-4.5,4.2-9,6.2-13.6
				c2.9-6.7,5.6-13.4,8.1-20.2c1.8-5,3.4-10.2,4.8-15.4c1.6-3,3-6.3,4.1-9.6c0.5-1.6,1-3.2,1.4-4.8c0.1-0.2,0.1-0.5,0.2-0.7
				c0.6-2.8,1-5.6,1-8.5c0,0,0,0,0-0.1c0-1,0-2-0.1-2.9C186.3,203.1,185.9,200.6,185.2,198.3z"/>
		</g>
		<g>
			<path class="st7" d="M195.9,296.3c0,0,0.4-20-1.4-29.8c0,0,1.2,42.4-2.4,64.3c-3.3,19.5-9.5,81.2-0.7,119.7
				c8.7-11.7,16.6-20.2,31.7-18.4C214.2,407.1,199.5,358,195.9,296.3z"/>
			<path class="st7" d="M160.3,465c2.6,0.2,5.4,0.2,8.1-0.2c-1.7-16.1-3.4-51.8,7-91.7c0,0,20-60.8,15.5-137c0,0,8,35.8,9.4,57.5
				c1.2,19.1,11.2,92.1,44.9,143.6c7.2,1,13.7,0.4,19.4-2.2c0.5-0.2,1.1-0.5,1.6-0.8c-1.2-1.2-2.4-2.4-3.4-3.5
				c-9.2-9.6-16.8-20.9-23.4-32.4c-8.5-14.6-14-31.1-18.9-47.2c-5.6-18.4-9.8-37.2-13.6-56c-3.3-16.5-5.6-33.1-8.8-49.6
				c-1.6-8.3-3.7-16.4-6.3-24.5c-1.4-4.3-3.4-8.4-5.2-12.6c-0.1,2.8-0.4,5.7-1,8.5c0,0.3,0,0.6,0,0.9c0,1.2,0,2.5,0,3.7
				c0.5,4.6,1,9.2,1.4,13.7c0.9,10.5,0.6,20.9-0.1,31.4c-1.3,19.7-3.6,39.5-8.4,58.7c-4.9,19.4-12.8,37.9-18.7,57.1
				c-5.4,17.4-9.8,35.5-11.2,53.7c-0.6,8.2-0.9,17,0.6,25.4C152.3,463.4,156.2,464.6,160.3,465L160.3,465"/>
		</g>
		<g>
			<path class="st9" d="M242.3,352.2C230.4,320.8,205,250,203.5,240.5c0,0,63.2,119.2,147.9,116.7c0.1-1.1,0.2-2.3,0.2-3.5
				c0,0,0,0,0,0c0-0.3,0-0.7,0-1c0-0.2,0-0.3,0-0.5c0-0.2,0-0.4,0-0.6c0-0.6-0.1-1.2-0.1-1.9c0,0,0,0,0,0c-0.1-1.9-0.3-3.8-0.6-5.9
				c0-0.3-0.1-0.7-0.2-1c-23.1-0.3-46.1-12.4-64.6-24.9c-12.5-8.4-24.2-18.3-34.9-28.9c-12.4-12.3-23-26.1-33-40.4
				c-10.3-14.6-20.2-29.5-31.8-43.1c0.1,1,0.1,2,0.1,2.9c0,0,0,0,0,0.1c1.8,4.2,3.8,8.3,5.2,12.6c2.6,8,4.6,16.2,6.3,24.5
				c3.3,16.5,5.5,33.1,8.8,49.6c3.8,18.8,8,37.6,13.6,56c4.9,16.1,10.5,32.6,18.9,47.2c6.6,11.5,14.3,22.7,23.4,32.4
				c1.1,1.1,2.2,2.3,3.4,3.5c6.5-3.4,12.1-9.3,16.9-18.5c0.1-0.3,0.3-0.5,0.4-0.8C268.8,396.8,249.3,370.8,242.3,352.2z"/>
			<path class="st9" d="M218.6,271.2c0,0,22.9,77.9,73.5,126c4.5-8,9.4-11.7,25.5-14.8c7.2-1.4,13.4-3,18.5-5.2
				C307.8,364.5,258.3,334.8,218.6,271.2z M254.8,329.1c-0.1-0.2-0.3-0.5-0.4-0.7c-0.1-0.2-0.2-0.3-0.3-0.5c0.1,0.1,0.2,0.2,0.3,0.4
				c0.2,0.2,0.4,0.4,0.6,0.5C255,328.9,254.9,329,254.8,329.1z"/>
		</g>
		<g>
			<path class="st1" d="M247.4,264.1c0,0,34.6,27.3,91.4,25.3c7.4-8.4,19.2-21.3,15.6-37.8C328.9,265.2,289.4,278.6,247.4,264.1z"/>
			<path class="st1" d="M335,312.6c-30-5.9-70.3-21.7-106.5-62.4c0,0,60.4,41.6,114.1-19c-3.2-3.4-7.1-6.9-11.9-10.4
				c0,0-5.1,5.8-14,12.4l-13.1,8.5c-28.1,15.5-74,23.7-118.4-43.5c0.7,2.4,1.1,4.8,1.3,7.2c11.5,13.6,21.5,28.5,31.8,43.1
				c10,14.3,20.6,28.1,33,40.4c10.7,10.6,22.4,20.5,34.9,28.9c18.5,12.5,41.5,24.6,64.6,24.9c-0.1-0.6-0.2-1.1-0.3-1.7
				C349.1,333.4,339.3,323.4,335,312.6z"/>
		</g>
	</g>
	<g>
		<polygon class="st0" points="187,115.2 187.5,113.8 189.4,113.1 191.2,112.3 192.3,113.2 193.4,114.2 190.5,113.5 		"/>
	</g>
	<g>
		<polygon class="st0" points="182.6,115.5 182.1,114.1 180.2,113.4 178.4,112.6 177.3,113.6 176.2,114.5 179.1,113.9 		"/>
	</g>
	<path class="st0" d="M187,118.1c0.1,0.1,0.4-0.6,1.1-1.1c0.2-0.1,0.8-0.5,1.6-0.6c0.4,0,1.1,0,1.6,0.5c0.2,0.3,0.2,0.5,0.4,0.6
		c0.3,0,0.5-0.3,0.7-0.6c0.1-0.3,0.1-0.6,0-0.7c0,0-0.1,0-0.5,0.6l0,0c0,0-0.7-0.5-1.2-0.7c-0.7-0.2-1.3-0.1-1.6,0
		c-0.4,0.1-1.1,0.3-1.6,0.9C187,117.5,186.9,118.1,187,118.1z"/>
	<path class="st0" d="M182.5,118.6c-0.1,0.1-0.4-0.6-1.1-1.1c-0.2-0.1-0.8-0.5-1.6-0.6c-0.4,0-1.1,0-1.6,0.5
		c-0.2,0.3-0.2,0.5-0.4,0.6c-0.3,0-0.5-0.3-0.7-0.6c-0.1-0.3-0.1-0.6,0-0.7c0,0,0.1,0,0.5,0.6c0,0,0.7-0.5,1.2-0.7
		c0.7-0.2,1.3-0.1,1.6,0c0.4,0.1,1.1,0.3,1.6,0.9C182.5,118,182.6,118.5,182.5,118.6z"/>
	<polygon class="st0" points="188.5,116.9 188.6,118 189.2,118.5 190.1,118.3 190.4,117.8 190.3,116.5 189.5,116.2 188.5,116.4 	"/>
	<polygon class="st0" points="179.3,117.1 179.3,118.2 179.9,118.7 180.8,118.7 181.1,118.2 181.2,117 180.4,116.6 179.4,116.6 	"/>
	<path class="st0" d="M181.3,129.7c0,0,0.3,0,0.6-0.1c0,0,0.1-0.1,0.2-0.2c0.2-0.2,0.3-0.4,0.4-0.6c0.1-0.2,0.4-0.6,0.8-0.7
		c0.2,0,0.5,0,0.7,0.1c0.1,0.1,0.2,0.1,0.3,0.1c0.1,0,0.2-0.1,0.4-0.2c0,0,0.2-0.1,0.4-0.2c0.3-0.1,0.6,0.2,0.9,0.5
		c0.6,0.5,0.6,0.7,1,0.9c0.3,0.1,0.6,0.1,0.6,0.1c0,0-0.6,0-1.3-0.1c-0.4-0.1-0.5-0.1-0.7-0.2c-0.4-0.1-0.5-0.3-0.7-0.2
		c-0.2,0-0.2,0.2-0.4,0.2c-0.3,0.1-0.4-0.3-0.8-0.2c-0.2,0-0.3,0.1-0.4,0.1C182.4,129.5,181.3,129.6,181.3,129.7z"/>
	<g>
		<path class="st8" d="M183.3,124.7c0.3,0.2,0.6,0.3,0.8,0.5l-0.1,0c0.3,0,0.5,0,0.8,0.1l-0.1,0c0.3-0.1,0.6-0.2,0.9-0.3l0,0
			c0.1-0.1,0.3-0.3,0.4-0.4c-0.1,0.2-0.2,0.3-0.3,0.5l0,0l0,0c-0.3,0.1-0.6,0.3-0.9,0.4l0,0l0,0c-0.3,0-0.5-0.1-0.8-0.1l0,0l0,0
			C183.8,125.2,183.5,125,183.3,124.7z"/>
	</g>
</g>
</svg>
