<svg id="Capa_1" data-name="Capa 1" xmlns="http://www.w3.org/2000/svg" viewBox="0 0 39.42 61.91"><defs><style>.cls-1{fill:#424190;}.cls-2{fill:#ffdfc3;}.cls-3{fill:gray;}.cls-4{fill:#d9def0;}.cls-5{fill:#ffdf3f;}.cls-6{fill:none;opacity:0.14;}.cls-7{fill:#420068;}.cls-8{fill:#563374;}.cls-9{fill:#2c0051;}.cls-10{fill:#bfa792;}.cls-11{fill:#fffb68;}.cls-12{fill:#120076;}.cls-13{fill:#fff2c3;}.cls-14{fill:#160029;}</style></defs><title>angel2</title><path class="cls-1" d="M8.5,191.3" transform="translate(-89.63 -251.98)"/><polygon class="cls-2" points="33.79 24.95 33.98 26.31 34.26 27.48 35.12 28.18 35.86 29.23 37.9 33.48 38.8 34.84 39.42 35.39 39.07 36.56 38.41 37.38 37.98 37.73 38.17 36.95 37.66 37.49 37.39 37.38 37.78 36.72 37.35 36.95 37.82 36.29 37.11 36.36 37.82 35.94 37.78 35.2 37.31 34.96 36.72 34.14 36.84 33.44 34.37 30.52 33.35 29.19 32.34 25.3 32.69 24.36 33.61 24.6 33.79 24.95"/><path class="cls-3" d="M121.52,272.56a7.84,7.84,0,0,0,.11-1.27,12.17,12.17,0,0,0-.5-3.35c-.12-.34-.22-.68-.37-1s-.29-.72-.47-1.1a5.57,5.57,0,0,0-.29-.55l-.32-.56-.36-.54a6.72,6.72,0,0,0-.39-.55c-.27-.35-.55-.73-.86-1.07l-.47-.51c-.17-.16-.33-.33-.5-.47a25.78,25.78,0,0,0-2.17-1.79c-1.53-1.08-3.09-2-4.57-2.87s-2.87-1.58-4-2.31-2.09-1.31-2.7-1.81c-.33-.24-.55-.44-.73-.57a2.24,2.24,0,0,1-.25-.21s.07.09.18.27.29.45.53.78a18.39,18.39,0,0,0,2.3,2.44c1.06.9,2.31,1.93,3.71,2.9s2.92,2,4.33,3c.71.51,1.42,1,2.05,1.6l.47.41c.16.14.29.29.45.44s.57.58.84.89a16.54,16.54,0,0,1,2.51,3.64,16.19,16.19,0,0,1,1.17,3A10.32,10.32,0,0,1,121.52,272.56Z" transform="translate(-89.63 -251.98)"/><path class="cls-3" d="M121.13,273.26h0s0,0,0,0a2.11,2.11,0,0,1,0-.24c0-.21,0-.51-.07-.9a11.08,11.08,0,0,0-.84-3.18,12.59,12.59,0,0,0-2.67-3.9,24.4,24.4,0,0,0-4.25-3.21c-1.54-.91-3.08-1.77-4.51-2.55s-2.77-1.47-3.84-2.22a18.66,18.66,0,0,1-2.46-1.9,5.19,5.19,0,0,1-.62-.63c-.14-.15-.21-.25-.21-.25s0,.1.12.3a8.3,8.3,0,0,0,.4.81c.21.33.48.74.8,1.18a11.82,11.82,0,0,0,1.26,1.36,29.28,29.28,0,0,0,3.62,2.85c1.39.94,2.91,1.82,4.37,2.74a38,38,0,0,1,4.13,2.8,13.72,13.72,0,0,1,2.88,3.13,17.36,17.36,0,0,1,1.46,2.75l.36.83a.76.76,0,0,0,.11.21s0,0,.06,0Z" transform="translate(-89.63 -251.98)"/><path class="cls-3" d="M120.73,274a.1.1,0,0,1-.07,0,.22.22,0,0,1-.12-.15,7.61,7.61,0,0,1-.21-.76,10.7,10.7,0,0,0-1.08-2.75,13.43,13.43,0,0,0-1.17-1.64,10.31,10.31,0,0,0-1.64-1.55,29,29,0,0,0-4-2.56c-1.41-.75-2.82-1.44-4.13-2.06s-2.54-1.2-3.54-1.8c-.5-.3-.93-.58-1.34-.84a8.52,8.52,0,0,1-1-.73,3.89,3.89,0,0,1-.34-.3,1.85,1.85,0,0,1-.24-.24l-.2-.21.11.26.15.31a2.32,2.32,0,0,0,.23.41c.2.3.44.66.76,1a10.09,10.09,0,0,0,1.18,1.2,26.31,26.31,0,0,0,3.34,2.44c1.27.8,2.67,1.52,4,2.29s2.72,1.47,3.92,2.23a18.41,18.41,0,0,1,1.64,1.16,10.2,10.2,0,0,1,1.29,1.26,18.45,18.45,0,0,1,1.65,2.24,5.89,5.89,0,0,0,.48.67c.08.08.13.12.18.12S120.74,274,120.73,274Z" transform="translate(-89.63 -251.98)"/><path class="cls-3" d="M120.34,274.68h-.06a.18.18,0,0,1-.15-.05,1.19,1.19,0,0,1-.29-.59,7.6,7.6,0,0,0-1.16-2.29,6,6,0,0,0-1.34-1.24,6.32,6.32,0,0,0-.87-.5l-.43-.2-.43-.19c-1.15-.51-2.39-1-3.61-1.53s-2.45-1-3.59-1.49-2.21-.93-3.08-1.39-1.62-.84-2.1-1.17c-.26-.14-.45-.3-.57-.38l-.21-.14.13.2c.09.14.2.35.39.6a11.48,11.48,0,0,0,1.74,1.83,22.53,22.53,0,0,0,2.91,2,31.68,31.68,0,0,0,3.63,1.78c1.27.51,2.56,1,3.77,1.33l.46.13.42.12c.25.07.5.16.74.25a4.57,4.57,0,0,1,1.25.74,12.09,12.09,0,0,1,1.63,1.7l.29.29a.81.81,0,0,0,.27.17.27.27,0,0,0,.2,0Z" transform="translate(-89.63 -251.98)"/><path class="cls-3" d="M119.95,275.39a.64.64,0,0,1-.19,0,.66.66,0,0,1-.43-.26c-.32-.27-.62-.93-1.28-1.53a6.6,6.6,0,0,0-1.19-.86,3.52,3.52,0,0,0-.76-.33,3.45,3.45,0,0,0-.41-.11l-.36-.1c-.95-.25-2-.51-3-.82s-2-.6-3-.87-1.85-.53-2.6-.79-1.42-.44-1.88-.6l-.73-.23.52.57a11.12,11.12,0,0,0,1.56,1.28,19.88,19.88,0,0,0,2.47,1.44,21.81,21.81,0,0,0,3.06,1.16A18.77,18.77,0,0,0,115,274l.39,0a1.73,1.73,0,0,1,.32,0c.2,0,.41.06.61.1a3.92,3.92,0,0,1,1.08.4,19.4,19.4,0,0,0,1.75.94.86.86,0,0,0,.62,0A.47.47,0,0,0,119.95,275.39Z" transform="translate(-89.63 -251.98)"/><path class="cls-3" d="M119.57,276.09h-.16a1.64,1.64,0,0,1-.44,0,2.33,2.33,0,0,1-.62-.14c-.23-.08-.48-.19-.77-.31-.56-.22-1.24-.6-2-.85-.42-.13-.8-.23-1.21-.35s-.8-.22-1.22-.32c-.84-.18-1.64-.38-2.43-.51s-1.53-.21-2.17-.31-1.2-.08-1.58-.13h-.62l.49.38a11.53,11.53,0,0,0,1.37.85c.59.28,1.27.66,2,.95a22.87,22.87,0,0,0,2.44.77l1.27.27c.42.08.85.13,1.22.18.75.12,1.53.17,2.22.23a4.5,4.5,0,0,0,1,0,3.39,3.39,0,0,0,.73-.24,1.77,1.77,0,0,0,.39-.27Z" transform="translate(-89.63 -251.98)"/><path class="cls-3" d="M119.18,276.8h-.46a4,4,0,0,1-.52,0c-.19,0-.42,0-.65,0l-.36,0h-.38c-.26,0-.54,0-.8,0-.56,0-1.13.08-1.71.09s-1.17.08-1.73.15-1.1.17-1.57.21-.88.18-1.15.22l-.46.13.39.26a6.78,6.78,0,0,0,1.09.53,8.27,8.27,0,0,0,5.47.17,6,6,0,0,0,.83-.34l.38-.19.34-.19a3,3,0,0,0,.56-.4c.15-.13.28-.26.4-.35Z" transform="translate(-89.63 -251.98)"/><path class="cls-4" d="M119.72,274a9.44,9.44,0,0,0-.39-1.48,14.69,14.69,0,0,0-1.94-3.59c-.27-.33-.53-.68-.84-1s-.63-.7-1-1.05a6.74,6.74,0,0,0-.55-.51l-.59-.51-.63-.47a8.12,8.12,0,0,0-.67-.47c-.45-.29-.92-.6-1.41-.86l-.74-.39c-.25-.12-.51-.23-.76-.33a31.16,31.16,0,0,0-3.19-1.15c-2.17-.6-4.33-1.05-6.35-1.4s-3.9-.62-5.47-1-2.9-.64-3.8-1c-.47-.14-.8-.27-1.06-.35a2.71,2.71,0,0,1-.37-.14l.31.23c.22.16.51.39.92.66a22.24,22.24,0,0,0,3.6,1.83c1.57.58,3.41,1.25,5.39,1.77s4.11,1,6.13,1.66c1,.29,2,.6,3,1l.71.27.69.31c.45.19.88.43,1.31.66a20,20,0,0,1,4.33,3.1,19.57,19.57,0,0,1,2.55,2.9A12.46,12.46,0,0,1,119.72,274Z" transform="translate(-89.63 -251.98)"/><path class="cls-4" d="M119.56,275h0s0,0-.06,0a2.55,2.55,0,0,1-.14-.25c-.1-.23-.25-.57-.45-1a13.39,13.39,0,0,0-2.25-3.26A15.22,15.22,0,0,0,112,267.1a29.48,29.48,0,0,0-6.13-1.91c-2.12-.41-4.21-.76-6.15-1.05s-3.74-.55-5.25-1A22.55,22.55,0,0,1,90.92,262a6.27,6.27,0,0,1-1-.47l-.33-.19s.1.1.25.29a10,10,0,0,0,.78.76c.37.29.84.64,1.39,1a14.29,14.29,0,0,0,2,1,35.38,35.38,0,0,0,5.27,1.75c2,.51,4,.88,6.07,1.33a45.91,45.91,0,0,1,5.82,1.5,16.58,16.58,0,0,1,4.54,2.38,21,21,0,0,1,2.78,2.51l.74.8a.92.92,0,0,0,.22.19s.06,0,.08,0S119.56,275,119.56,275Z" transform="translate(-89.63 -251.98)"/><path class="cls-4" d="M119.4,276a.11.11,0,0,1-.08,0,.27.27,0,0,1-.2-.12,9.19,9.19,0,0,1-.55-.78,12.93,12.93,0,0,0-2.35-2.67,16.24,16.24,0,0,0-2-1.38,12.46,12.46,0,0,0-2.49-1.09,35,35,0,0,0-5.56-1.29c-1.9-.27-3.78-.49-5.52-.66s-3.37-.33-4.74-.6c-.69-.14-1.29-.27-1.86-.41a10.3,10.3,0,0,1-1.41-.43,4.7,4.7,0,0,1-.51-.19,2.24,2.24,0,0,1-.37-.18l-.31-.16.24.25.29.29a2.81,2.81,0,0,0,.43.37c.35.25.76.57,1.29.88a12.2,12.2,0,0,0,1.82.88,31.78,31.78,0,0,0,4.78,1.4c1.76.39,3.64.64,5.5,1s3.68.57,5.35.94a22.24,22.24,0,0,1,2.33.64,12.33,12.33,0,0,1,2,.9,22.31,22.31,0,0,1,2.78,1.87,7.12,7.12,0,0,0,.82.57.36.36,0,0,0,.25.06C119.38,276,119.4,275.93,119.4,276Z" transform="translate(-89.63 -251.98)"/><path class="cls-4" d="M119.25,276.91l-.06,0a.22.22,0,0,1-.2,0,1.44,1.44,0,0,1-.57-.55,9.18,9.18,0,0,0-2.25-2.13,7.31,7.31,0,0,0-2-.86,7.63,7.63,0,0,0-1.19-.21l-.57-.06-.57,0c-1.51-.12-3.11-.16-4.72-.27s-3.19-.16-4.68-.23-2.88-.16-4.05-.33-2.17-.29-2.86-.47c-.35-.06-.63-.16-.8-.19l-.29-.08.24.18c.16.12.37.31.69.53a13.88,13.88,0,0,0,2.72,1.36,27.21,27.21,0,0,0,4.13,1.13,38.23,38.23,0,0,0,4.84.55c1.65.06,3.29.06,4.82,0l.57,0,.53,0c.31,0,.63,0,.94,0a5.52,5.52,0,0,1,1.72.33,14.61,14.61,0,0,1,2.55,1.27l.45.21a1,1,0,0,0,.37.08.32.32,0,0,0,.22-.1Z" transform="translate(-89.63 -251.98)"/><path class="cls-4" d="M119.09,277.86a.77.77,0,0,1-.22.08.79.79,0,0,1-.59-.12c-.47-.18-1.08-.8-2.08-1.21a8,8,0,0,0-1.7-.49,4.24,4.24,0,0,0-1-.06,4.16,4.16,0,0,0-.51,0l-.45,0c-1.18.1-2.43.21-3.7.27s-2.53.14-3.72.21-2.31.16-3.27.16-1.78.08-2.37.08l-.92,0,.82.43a13.43,13.43,0,0,0,2.29.82,24,24,0,0,0,3.39.62,26.29,26.29,0,0,0,3.94.08,22.6,22.6,0,0,0,3.9-.6l.45-.12a2.07,2.07,0,0,1,.37-.1c.24-.06.49-.1.72-.14a4.73,4.73,0,0,1,1.39,0,23.42,23.42,0,0,0,2.37.35,1,1,0,0,0,.71-.23A.57.57,0,0,0,119.09,277.86Z" transform="translate(-89.63 -251.98)"/><path class="cls-4" d="M119,278.82l-.18.08a2,2,0,0,1-.51.16,2.8,2.8,0,0,1-.76.1c-.29,0-.63,0-1,0-.72,0-1.65-.18-2.66-.14-.53,0-1,.06-1.51.1s-1,.08-1.51.14c-1,.14-2,.23-3,.41s-1.82.39-2.59.53-1.39.39-1.84.49l-.71.23.71.23a13.92,13.92,0,0,0,1.9.41c.78.08,1.7.23,2.68.25a27.55,27.55,0,0,0,3.08-.12l1.55-.21c.51-.08,1-.19,1.45-.29.9-.18,1.8-.43,2.61-.64a5.41,5.41,0,0,0,1.08-.45,4.06,4.06,0,0,0,.72-.57,2.12,2.12,0,0,0,.33-.47Z" transform="translate(-89.63 -251.98)"/><path class="cls-4" d="M118.8,279.77l-.53.18a4.82,4.82,0,0,1-.59.21c-.22.08-.47.18-.72.29l-.39.18-.43.16c-.29.12-.61.21-.9.35-.63.23-1.25.55-1.9.8s-1.29.57-1.9.88-1.18.64-1.68.88-.92.57-1.21.72l-.47.33.55.14a8.18,8.18,0,0,0,1.45.16,10,10,0,0,0,4.25-.84,10.76,10.76,0,0,0,2-1.19,7.23,7.23,0,0,0,.8-.72l.35-.37.31-.35a3.55,3.55,0,0,0,.47-.68c.12-.21.22-.41.31-.57Z" transform="translate(-89.63 -251.98)"/><path class="cls-5" d="M113.8,264.4c.39.52,2,0,3.62-1.24s2.59-2.6,2.2-3.12-2,0-3.62,1.24S113.41,263.88,113.8,264.4Z" transform="translate(-89.63 -251.98)"/><ellipse class="cls-6" cx="116.92" cy="262.17" rx="2.99" ry="0.68" transform="translate(-223.5 -129.47) rotate(-36.85)"/><path class="cls-2" d="M115.66,271.55c-.19.1-.27,0-.47.12-.61.29-.68,1.4-.7,1.75-.05.83.17,1,0,1.52s-.35.51-.59,1.05a5.5,5.5,0,0,0-.35,1.58,13.57,13.57,0,0,1-.23,2.46,5.45,5.45,0,0,1-.7,1.23,12,12,0,0,0-1.35,3.21c-.54,2-.11,2.34-.76,3.16s-1.16.82-1.27,1.54a2.52,2.52,0,0,0,.27,1.34,7.37,7.37,0,0,0,.43.6c.5.7.66,1,.72,1s-.12-.27,0-.35.51.2.57.14-.19-.31-.29-.43c-.26-.29-.47-.45-.45-.49s.11,0,.29.08.43,0,.43,0-.19,0-.41-.19-.33-.29-.29-.37.29,0,.33-.06-.47-.44-.41-.74c0-.1.08-.07.33-.35a5.88,5.88,0,0,0,.39-.49,3.16,3.16,0,0,1,.18.58c.08.48-.15.84,0,1.21,0,0,0,.08.06.08s.2-.32.23-.62a1.7,1.7,0,0,0,0-.33,3.68,3.68,0,0,1,.22-1.19,6.07,6.07,0,0,0,0-1.21c0-.45.3-.63.94-1.75,1.55-2.71,1.85-2.9,2-3.8A10.34,10.34,0,0,1,115,280a12.68,12.68,0,0,1,.76-1.7,25.26,25.26,0,0,0,.76-2.63c.09,0-.21.93.29,1.58.35.45.74.32,1.11.7a2.62,2.62,0,0,1,.12,2.57c-.49,1.22-1.28,1.06-2,2.34a4.54,4.54,0,0,0-.53,2.86c.18,1,.65,1.2,1.59,2.86.75,1.33.55,1.4,1.12,2.4,1.56,2.77,3.55,3.19,3.41,4.62-.07.68-.53.64-.94,1.81a7.48,7.48,0,0,0-.23,2.81c0,1.19.11,3.43.06,5a3,3,0,0,1-.29,1.46c-.27.49-.55.6-.59,1s.13.49.59,1.17a17.29,17.29,0,0,1,1,1.58c.51,1,.33,1.16.7,1.52.68.66,1.93.69,2.11.35s-.33-.79-.41-.88c-.46-.51-.82-.41-1.17-.76s-.28-.92-.41-2-.4-1.32-.53-2.22c-.06-.4-.07-.84.53-3.33a22,22,0,0,1,1.29-4.44c.09-.16.39-.79,1-2a3.08,3.08,0,0,0,.41-1.11,3.5,3.5,0,0,0-.65-1.93c-.36-.72-.62-1.48-.94-2.22a22.61,22.61,0,0,1-1.12-2.86,3.6,3.6,0,0,1-.12-2.51c.29-.62.62-.54.94-1.17s.14-1.18.06-2.57.1-1,.06-2.69-.22-2.49.29-2.92c.29-.25.54-.11.82-.41a1.67,1.67,0,0,0,.23-1.64c-.38-1-1.61-1.24-1.53-1.81,0-.3.39-.3.47-.7a1.2,1.2,0,0,0-.59-1.11c-.3-.2-.46-.11-.69-.21-.85-.42,0-2.52-.84-3.29-.69-.63-2.21-.12-3,.35a4.09,4.09,0,0,0-1.94,2.46C116.11,270.63,116.11,271.3,115.66,271.55Z" transform="translate(-89.63 -251.98)"/><path class="cls-2" d="M117.72,310.77a2.41,2.41,0,0,1-.53,1.4c-.18.21-.31.37-.53.41-.58.11-1.36-.72-1.53-1.58-.11-.56.15-.58.23-1.64a4.72,4.72,0,0,0-.23-2.34c-.24-.56-.46-.67-.41-1,.08-.55.76-.63,1.29-1.17s.6-1.47.65-3.21c.06-2.42-.32-2.5,0-3.33.52-1.34,1.59-1.39,1.88-2.57a3.88,3.88,0,0,0-.65-2.51c-1-2.38.35-5.28,1.82-7,.23-.27,1.69-2.32,2.58-2,.17.06.48.27.65,1.34.47,3-1.5,4.17-1.7,7.77a9.55,9.55,0,0,1-.29,2.51,20.28,20.28,0,0,1-.94,2.4c-.27.61-.47,1.05-.53,1.17-1.19,2.55-2,4.34-2.11,6.49a10,10,0,0,0,.18,3.21A4.45,4.45,0,0,1,117.72,310.77Z" transform="translate(-89.63 -251.98)"/><path class="cls-7" d="M115.72,271.31a2.59,2.59,0,0,0-.69.39c-.15.13-.37.39-.55,1.71s-.06,1.46,0,1.52a2,2,0,0,0,1.17.27h.27c.37,0,.44,0,.51,0s0,.37,0,.7a1.87,1.87,0,0,0,.33,1.31,2,2,0,0,0,1.35.58h.06a3.93,3.93,0,0,0,1.88-.58,4.61,4.61,0,0,1,1.29-.23c.75,0,1,.32,1.35.12s.18-.26.53-.53.54-.19.82-.41a1.72,1.72,0,0,0,.53-1.34,1.35,1.35,0,0,0-.35-.94c-.27-.26-.47-.12-.76-.41a1,1,0,0,1-.35-.88c0-.06.05-.18.1-.38a.82.82,0,0,0,0-.21c0-.45-.48-1.39-.59-1.34s0,0,0,.23a.47.47,0,0,0-.35-.18c-.48,0-.49,1.1-1.29,1.58a1.79,1.79,0,0,1-1.06.18,3.16,3.16,0,0,1-1.35-.41c-.59-.29-.57-.44-1.17-.7a2.15,2.15,0,0,0-1-.23h0A2.06,2.06,0,0,0,115.72,271.31Z" transform="translate(-89.63 -251.98)"/><path class="cls-8" d="M116.37,282.67c.55-.23,1.19,1.11,2.88,2a2.86,2.86,0,0,0,2.23.58c1-.39,1.21-2,1.47-2s.13.45.12,1.79c0,2.27,0,2.34,0,2.69a11.22,11.22,0,0,0-.12,1.6,6.6,6.6,0,0,0,.27,1.64,10.14,10.14,0,0,0,.82,1.71,5.65,5.65,0,0,1,.9,2.61c0,.73-.46,1.06-.78,1.87-.74,1.86-1.19,3.32-1.41,4.05-.7,2.37-1.06,3.58-1,4.87a13.43,13.43,0,0,0,.39,2.34,5.17,5.17,0,0,0,.78,2.18c.62.72,1.29.68,1.53,1.4a1.08,1.08,0,0,1-.12,1.05c-.37.33-.95-.21-1.72.08-.61.23-.71.74-1,.68-.56-.11-.53-2-.88-2s-.28.83-.7.94-1.13-1.24-1.76-1.11c-.33.07-.29.48-.82.82a1.9,1.9,0,0,1-1.29.23c-.51-.11-.52-.39-1.06-.53s-1,.14-1.14,0,.3-.68.74-1.6a3.7,3.7,0,0,0,.57-2.69c-.15-.43-.36-.51-.41-1a1.36,1.36,0,0,1,.47-1.29c.17-.09.22,0,.41-.12s.5-.47.72-1.19a6.83,6.83,0,0,0,.35-1.56c.12-1.21-.08-1.5,0-2.92a5.59,5.59,0,0,1,.16-1.6c.46-1.16,1.44-1.23,1.74-2.38a2.44,2.44,0,0,0,0-1.25c-.16-.6-.47-.75-.72-1.56a4.81,4.81,0,0,1-.18-.86,4.72,4.72,0,0,1,0-1.52,3.58,3.58,0,0,0,.08-.35,1.8,1.8,0,0,0,0-.28,9.11,9.11,0,0,0-1-1.61h0a22.45,22.45,0,0,1-1.29-2.63,2.9,2.9,0,0,1-.1-1.29,3.54,3.54,0,0,1,.31-.9C116.08,283,116.21,282.74,116.37,282.67Z" transform="translate(-89.63 -251.98)"/><path class="cls-9" d="M121.85,274.31a4.68,4.68,0,0,0,.51,1c.21.28.46.6.82.62a1.19,1.19,0,0,0,.9-.55,2.69,2.69,0,0,0,.39-1.17,1.8,1.8,0,0,1-.12,1.48,1.31,1.31,0,0,1-.55.58c-.14.07-.17,0-.31.12a1.39,1.39,0,0,0-.44.4c-.09.11-.12.19-.15.18s.06-.21,0-.39c0-.36-.52-.41-.74-.78A2.25,2.25,0,0,1,121.85,274.31Z" transform="translate(-89.63 -251.98)"/><path class="cls-9" d="M122.32,272.07a1.46,1.46,0,0,1,.32.12h0c.27-.32.32-.31.32-.31s.1.65-.12.7S122.26,272.12,122.32,272.07Z" transform="translate(-89.63 -251.98)"/><path class="cls-10" d="M118.72,268.78c.11,0,.09.36.43.64a1.5,1.5,0,0,0,.82.26,1.56,1.56,0,0,0,1.25-.16c.23-.21.22-.48.27-.47s.11,1.8-.27,1.87c-.15,0-.25-.25-.55-.23a1.49,1.49,0,0,0-.43.16s-.05.38-.2.43-.29-.33-.67-.43-.51.16-.7.08C118.18,270.71,118.47,268.79,118.72,268.78Z" transform="translate(-89.63 -251.98)"/><path class="cls-10" d="M114.66,280.84a2.19,2.19,0,0,1,.12-.38,6.16,6.16,0,0,1-.06,1.32h0a2.8,2.8,0,0,1-.15.61c-.11.3-.26.46-.38.73l0,.07c0,.08-.11.17-.5.81-.29.46-.54.88-.78,1.31a8.76,8.76,0,0,0-.82,1.67,12,12,0,0,0-.28,1.56,2.31,2.31,0,0,1,0-1.31,5.39,5.39,0,0,1,.64-1.42c.23-.45.48-.89.89-1.82.22-.51.4-1,.42-1.05l0-.11a9.6,9.6,0,0,1,.49-1.11A5.46,5.46,0,0,0,114.66,280.84Z" transform="translate(-89.63 -251.98)"/><path class="cls-10" d="M122.14,280.67a.52.52,0,0,0-.11.48c.06.16.22.18.24.12s-.05-.1-.09-.27S122.16,280.68,122.14,280.67Z" transform="translate(-89.63 -251.98)"/><path class="cls-9" d="M121.14,286s.25.16.55.16a1,1,0,0,0,.63-.31,2.57,2.57,0,0,0,.67-1.32s-.47,2.15-.59,2.65a5.27,5.27,0,0,1-.39,1.31,3.35,3.35,0,0,0-.27-1.77C121.49,286.29,121.1,286,121.14,286Z" transform="translate(-89.63 -251.98)"/><ellipse class="cls-11" cx="115.59" cy="273.03" rx="1.09" ry="0.93" transform="translate(-269.59 44.53) rotate(-71.6)"/><path class="cls-12" d="M118.89,277.87" transform="translate(-89.63 -251.98)"/><path class="cls-9" d="M117.74,281c-.05-.05.24-.3.43-.86a1.57,1.57,0,0,0,.12-.78,2.35,2.35,0,0,0-.51-.94,5.32,5.32,0,0,0-.37-.47c-.19-.22-.26-.3-.42-.5s-.27-.35-.31-.43a2.21,2.21,0,0,1-.2-1.36c.07-1.27.11-1.9.23-1.91s.41,1.43.67,1.4.22-.78.35-.78,0,1.36.67,1.95a1.92,1.92,0,0,0,2.51-.31,2.09,2.09,0,0,0,.2-1.36,4.23,4.23,0,0,0-.31-1.4,3.88,3.88,0,0,1,.51,2.46,2.91,2.91,0,0,1-.87,1.71,2,2,0,0,1-.26.17c-.4.21-.59,0-1.17.19a2.47,2.47,0,0,1-.43.08.78.78,0,0,1-.37,0c-.24-.1-.32-.38-.33-.37a2.32,2.32,0,0,0,.43.82,1.84,1.84,0,0,0,.2.23c.17.16.28.19.38.39a1.58,1.58,0,0,1-.2,1.36C118.35,280.76,117.8,281,117.74,281Z" transform="translate(-89.63 -251.98)"/><ellipse class="cls-2" cx="30.84" cy="15.01" rx="2" ry="2.69"/><path class="cls-13" d="M120.79,264.8c-.38-.09-.45-.21-.63-.23-.51-.08-1.19.74-1.49,1.52a4.85,4.85,0,0,0,.1,2.94c.73,3.43,1.12,4.33.94,5.9-.11.94-.38,1.87-.54,1.86s-.1-.85-.35-2.21-.39-2.12-1-2.75l-.07-.07a1.93,1.93,0,0,0-1.71-.53,4,4,0,0,0-.86.43c-.2.12-.29.18-.31.16a13.55,13.55,0,0,0,1.16-2,4.3,4.3,0,0,0,.23-1.46c.07-2.28-.38-2.57-.09-3.62a2.93,2.93,0,0,1,1.53-2,2.15,2.15,0,0,1,1.35-.06,6.24,6.24,0,0,1,1.06.6l.88.51a10,10,0,0,1,1.29.82c.28.28.44.72.22,2.69s-.65,3.58-.45,5c0,.3.11.6.11.6a11.4,11.4,0,0,0,.65,1.91c-.1.05-2.36-2.14-1.88-4.09.09-.35.27-.73.7-2.14a2.81,2.81,0,0,0,.2-1.29,3.09,3.09,0,0,1-.12-.82c0-.41.18-.48.16-.82a1,1,0,0,0-.39-.74C121.3,264.8,121.19,264.9,120.79,264.8Z" transform="translate(-89.63 -251.98)"/><path class="cls-10" d="M123.61,280.66a6.5,6.5,0,0,0,.78,1.21c1,1.46,1.25,1.88,1.79,2.48.18.21.35.43.55.62s.56.43.52.6-.12.1-.2.24a.65.65,0,0,0,0,.46c.12.65.78,1.55.7,1.62s-.19-.09-.3-.2-.22-.44-.48-.75-.22-.16-.32-.33a1.58,1.58,0,0,1-.17-.72c0-.25,0-.29,0-.41,0-.36-.29-.51-.8-1.05s-.38-.49-.89-1a8.2,8.2,0,0,1-.68-.67c-.27-.35-.23-.44-.54-.86s-.47-.45-.55-.7.06-.42.12-1.13c0-.43,0-.66,0-.66S123.3,280,123.61,280.66Z" transform="translate(-89.63 -251.98)"/><path class="cls-9" d="M120.54,308.47c.16.67.47,1,.35,1.52a2.46,2.46,0,0,1-2,1.75c-.5.06-.62-.13-1.13,0s-.78.57-1.28.66a1.64,1.64,0,0,1-1.3-.48c-1,.29-1.34.19-1.42,0s.42-.68.74-1.6a6.08,6.08,0,0,0,.14-2.15c0-1.58-.26-2,.1-2.56s.5-.31.86-.78.35-1,.48-2.51.23-1.21.34-2.63,0-1.67.31-2.1a16.06,16.06,0,0,0,1.17-1.29,3.31,3.31,0,0,0,.45-.78c.4-1.12-.71-1.73-.88-3.66a8.9,8.9,0,0,1,.08-1.87c.12-1,.17-1.06.23-1.09.43-.2,1.69,1,2.43,2.49s.71,2.5,1.88,3.66c.2.19.21.18.27.27.68,1-.88,2.53-1.53,5.1,0,.19-.12,1.08-.27,2.84C120.27,306.89,120.35,307.69,120.54,308.47Z" transform="translate(-89.63 -251.98)"/><path class="cls-14" d="M116,282.83a3.4,3.4,0,0,0-.59,2.67,5.25,5.25,0,0,0,.74,1.91,16.65,16.65,0,0,1,1,1.7c.19.39.15.37.3.66a12.13,12.13,0,0,0,2,2.44c.73.82.48.61.95,1.12s.73.73.81,1.1a1.8,1.8,0,0,1-.27,1.17c-.36.77-.59,1.6-.94,2.38-.24.53-.51,1.2-1.06,2.53a23.44,23.44,0,0,0-1.57,4.52c-.32,1.72-.48,2.58-.16,3.59a3.87,3.87,0,0,1,.39,1.95c-.11.75-.51,1.19-.31,1.4s1-.39,1.68,0c.47.24.55.82.82.78s.33-.63.55-.62.2.48.51.66a1.2,1.2,0,0,0,1.37-.47c.46-.79-.91-1.81-1.57-3.86a9.91,9.91,0,0,1-.2-3.82c.13-2.36.24-4.21,1.33-6.12.73-1.26,1.53-1.93,1.29-2.88a6.64,6.64,0,0,0-1.06-1.83c-.26-.37-.27-.34-.7-.94-.17-.24-.68-.93-1.29-1.87-.33-.51-.68-1.06-1-1.64-.56-1.08-.48-1.13-.78-1.6-.78-1.19-1.5-1-2.08-1.91C115.46,284.5,116.18,282.86,116,282.83Z" transform="translate(-89.63 -251.98)"/><ellipse class="cls-11" cx="27.21" cy="31.61" rx="1.12" ry="1.52"/><path class="cls-1" d="M350.37,177.69" transform="translate(-89.63 -251.98)"/></svg>