<svg id="Layer_1" data-name="Layer 1" xmlns="http://www.w3.org/2000/svg" xmlns:xlink="http://www.w3.org/1999/xlink" viewBox="0 0 617.94 312.44"><defs><style>.cls-1{fill:#f2e0e8;}.cls-2{fill:#424291;}.cls-3{fill:url(#linear-gradient);}.cls-4{fill:url(#linear-gradient-2);}.cls-5{fill:url(#linear-gradient-3);}.cls-6{fill:url(#linear-gradient-4);}.cls-7{fill:url(#linear-gradient-5);}.cls-8{fill:url(#linear-gradient-6);}.cls-9{fill:url(#linear-gradient-7);}.cls-10{fill:#28246d;}.cls-11{font-size:97px;fill:#eaccd8;stroke:#971a3e;stroke-miterlimit:10;stroke-width:2px;font-family:Marion-Regular, Marion;}.cls-12{letter-spacing:-0.06em;}.cls-13{fill:#010101;}.cls-14{fill:#494842;}.cls-15{fill:#73716a;}.cls-16{fill:#373631;}.cls-17{fill:#7a121e;}.cls-18{fill:#a71e25;}.cls-19{fill:#d72027;}.cls-20{fill:url(#linear-gradient-8);}</style><linearGradient id="linear-gradient" x1="449.5" y1="611.03" x2="578.2" y2="611.03" gradientTransform="translate(23.11 1373.29) rotate(-120.88)" gradientUnits="userSpaceOnUse"><stop offset="0" stop-color="#fff"/><stop offset="0"/><stop offset="0" stop-color="#fad1db"/><stop offset="0.08" stop-color="#f7b6ca"/><stop offset="0.16" stop-color="#f59fbc"/><stop offset="0.24" stop-color="#f392b3"/><stop offset="0.31" stop-color="#f38db0"/><stop offset="0.72" stop-color="#b16794"/><stop offset="0.99" stop-color="#7a121e"/></linearGradient><linearGradient id="linear-gradient-2" x1="447.82" y1="619.24" x2="577.49" y2="619.24" xlink:href="#linear-gradient"/><linearGradient id="linear-gradient-3" x1="455.75" y1="631.02" x2="576.83" y2="631.02" xlink:href="#linear-gradient"/><linearGradient id="linear-gradient-4" x1="468.67" y1="644.55" x2="576.17" y2="644.55" xlink:href="#linear-gradient"/><linearGradient id="linear-gradient-5" x1="486.62" y1="657.7" x2="575.46" y2="657.7" xlink:href="#linear-gradient"/><linearGradient id="linear-gradient-6" x1="504.72" y1="669.4" x2="574.9" y2="669.4" xlink:href="#linear-gradient"/><linearGradient id="linear-gradient-7" x1="527.71" y1="678.13" x2="574.18" y2="678.13" xlink:href="#linear-gradient"/><linearGradient id="linear-gradient-8" x1="108.33" y1="488.39" x2="704.43" y2="488.39" gradientUnits="userSpaceOnUse"><stop offset="0" stop-color="#fff"/><stop offset="0"/><stop offset="0.03" stop-color="#241e20"/><stop offset="0.12" stop-color="#321c20"/><stop offset="0.35" stop-color="#51181f"/><stop offset="0.57" stop-color="#68151e"/><stop offset="0.78" stop-color="#75131e"/><stop offset="0.97" stop-color="#7a121e"/></linearGradient></defs><title>gameover</title><path class="cls-1" d="M201.5,521.74a55.19,55.19,0,0,0-7.51-.59c-4.74.24-11.78.45-19.51,2.8-1.91.65-3.91,1.22-6,2s-4.14,1.58-6.27,2.54a26.15,26.15,0,0,0-3.11,1.58c-1.1.58-2.06,1.15-3.16,1.73s-2,1.26-3,1.93-2.13,1.35-3.11,2.13a61.65,61.65,0,0,0-5.92,4.68c-1,.88-1.88,1.7-2.82,2.55s-1.78,1.78-2.57,2.74a126.8,126.8,0,0,0-9.71,11.79,264.7,264.7,0,0,0-15.18,24.71c-4.55,8-8.19,15.56-12.06,21.6s-6.95,11.3-9.66,14.65c-1.3,1.78-2.35,3-3.08,3.94a12.2,12.2,0,0,1-1.17,1.38s.54-.37,1.53-1,2.5-1.56,4.37-2.87c3.45-2.84,8.63-6.71,13.51-12.49a240.51,240.51,0,0,0,15.65-20.13c5.31-7.5,10.4-15.84,16.1-23.43,2.76-3.88,5.61-7.68,8.58-11.11.76-.85,1.46-1.72,2.22-2.58s1.59-1.57,2.41-2.41c1.54-1.59,3.23-3.08,4.91-4.56a90.37,90.37,0,0,1,20.44-13.67,94.52,94.52,0,0,1,17.09-6.42A61.63,61.63,0,0,1,201.5,521.74Z" transform="translate(-87.66 -378.11)"/><path class="cls-1" d="M205.79,523.87l0,.1c0,.1-.16.11-.24.2-.32.06-.77.14-1.4.21-1.23,0-3,.25-5.28.39-4.45.66-11.2,1.46-18.4,4.63s-15.31,7.7-21.93,14.56c-6.81,6.69-12.23,14.93-17.26,23.06-4.78,8.33-9.28,16.69-13.27,24.45s-7.65,15-11.61,20.76-7.28,10.43-10.22,13.38a26.34,26.34,0,0,1-3.5,3.37c-.84.72-1.38,1.09-1.38,1.09s.57-.26,1.72-.65a48,48,0,0,0,4.64-2.19c1.88-1.15,4.17-2.61,6.66-4.33a57.74,57.74,0,0,0,7.51-6.8,147.28,147.28,0,0,0,15.38-19.67c5-7.54,9.59-15.77,14.43-23.7a192.79,192.79,0,0,1,14.9-22.34,70.75,70.75,0,0,1,17.31-15.65,98,98,0,0,1,15.59-8c2-.85,3.62-1.47,4.74-1.93a7.19,7.19,0,0,0,1.22-.6.32.32,0,0,0,.22-.31C205.85,523.89,205.79,523.87,205.79,523.87Z" transform="translate(-87.66 -378.11)"/><path class="cls-1" d="M210.15,526a.5.5,0,0,1,0,.38,1.14,1.14,0,0,1-.82.67,39.27,39.27,0,0,1-4.43,1.16c-3.8,1.08-9.67,2.38-15.72,5.93a70,70,0,0,0-9.19,6.37,53.25,53.25,0,0,0-8.48,8.9c-5.24,6.54-9.55,14.14-13.58,21.61-3.84,7.64-7.42,15.26-10.6,22.35-3.34,7-6.1,13.76-9.28,19.15-1.58,2.67-3,5.06-4.43,7.23a40.07,40.07,0,0,1-3.94,5.31,15.82,15.82,0,0,1-1.62,1.84,12.21,12.21,0,0,1-1.33,1.33c-.71.7-1.14,1.11-1.14,1.11s.5-.22,1.53-.61l1.77-.8a13.19,13.19,0,0,0,2.35-1.28,71,71,0,0,0,5.87-4.15,48.92,48.92,0,0,0,6.59-6.38A133.11,133.11,0,0,0,156.76,598c4.2-6.87,7.95-14.43,12-21.86,3.72-7.46,7.63-14.75,11.63-21.2a87.49,87.49,0,0,1,6.17-8.87,52,52,0,0,1,6.9-7,97.64,97.64,0,0,1,12.57-9,29.1,29.1,0,0,0,3.75-2.63c.43-.41.66-.72.62-1S210,525.94,210.15,526Z" transform="translate(-87.66 -378.11)"/><path class="cls-1" d="M214.46,528.07a.73.73,0,0,1,.09.3c.06.18,0,.45-.27.84-.51.66-1.69,1.1-3.35,1.56-3,1.23-8.17,2.42-13.06,6.34a29.7,29.7,0,0,0-6.75,7.26,31.3,31.3,0,0,0-2.61,4.75c-.4.86-.69,1.59-1,2.3s-.62,1.55-.93,2.33c-2.58,6.18-4.92,12.94-7.65,19.57-2.45,6.72-5,13.28-7.44,19.47-2.57,6.13-4.61,11.94-7,16.65s-4.31,8.75-6.06,11.37a28.79,28.79,0,0,1-2,3.08c-.54.76-.78,1.12-.78,1.12s.39-.26,1.14-.73,2-1.11,3.4-2.09a57.77,57.77,0,0,0,10.12-9.47,115.27,115.27,0,0,0,10.93-15.78,159.34,159.34,0,0,0,9.13-19.64c2.5-6.87,4.72-13.82,6.4-20.4.16-.88.4-1.62.6-2.44s.37-1.53.55-2.29c.32-1.38.73-2.67,1.16-4a23.77,23.77,0,0,1,3.87-6.81,64.67,64.67,0,0,1,9.39-8.88c.59-.52,1.14-1.11,1.59-1.57a4,4,0,0,0,.89-1.47,1.27,1.27,0,0,0-.15-1A1.18,1.18,0,0,1,214.46,528.07Z" transform="translate(-87.66 -378.11)"/><path class="cls-1" d="M218.69,530.19a4.53,4.53,0,0,1,.1,1,3.21,3.21,0,0,1-1.34,2.31c-1.46,1.72-5.2,3.37-8.48,7a34.24,34.24,0,0,0-4.61,6.46,16.25,16.25,0,0,0-1.62,4.13c-.24.75-.37,1.53-.52,2.19s-.29,1.28-.44,1.94c-1.15,5.11-2.3,10.6-3.74,16.05-1.26,5.46-2.75,10.89-4,16.06-1.45,5.12-2.41,10-3.71,14.09s-2,7.67-2.82,10.16-1.07,3.93-1.07,3.93,1.11-1,3.15-2.83c1.74-2,4.64-4.65,6.95-8.46s5.37-8.25,7.5-13.42a102.86,102.86,0,0,0,5.7-16.52,88.84,88.84,0,0,0,2.41-17.41c0-.7,0-1.36.05-2.06a7.2,7.2,0,0,1,.07-1.73c0-1.08.23-2.23.32-3.29a18.24,18.24,0,0,1,2-5.83c1.85-3.51,3.87-6.81,4.86-9.51a4.35,4.35,0,0,0-.15-3.33A2,2,0,0,0,218.69,530.19Z" transform="translate(-87.66 -378.11)"/><path class="cls-1" d="M223,532.18s0,.28.15.87a7.65,7.65,0,0,1,0,2.36,9.77,9.77,0,0,1-.59,3.37c-.4,1.24-1,2.6-1.51,4.17-1.09,3-3,6.69-4.26,11.07-.6,2.27-1.07,4.31-1.59,6.5s-1,4.35-1.37,6.57c-.72,4.53-1.63,8.9-2.08,13.13-.61,4.19-.65,8.28-1,11.72s-.06,6.44-.18,8.54c.11,2.12.15,3.33.15,3.33s.73-1,2.05-2.63a60.75,60.75,0,0,0,4.5-7.43c1.45-3.21,3.4-6.85,4.83-10.94a110.64,110.64,0,0,0,3.61-13.19c.33-2.36.74-4.58,1.11-6.87s.45-4.62.58-6.55c.4-4.09.39-8.25.5-12a23.69,23.69,0,0,0-.63-5.24,18.8,18.8,0,0,0-1.66-3.92,10.8,10.8,0,0,0-1.76-2.09A4.46,4.46,0,0,1,223,532.18Z" transform="translate(-87.66 -378.11)"/><path class="cls-1" d="M227.32,534.31s0,.93.11,2.5a13.84,13.84,0,0,1,.2,2.8c.1,1,.19,2.25.39,3.52.12.58.2,1.27.3,1.9s.07,1.28.13,2.07c.15,1.42.16,2.9.43,4.35.26,3,.89,6.14,1.17,9.24.61,3.21.89,6.31,1.55,9.37.44,3,1.44,5.93,1.86,8.42a59.07,59.07,0,0,0,1.78,6.21c.59,1.56.91,2.48.91,2.48s.54-.76,1.41-2.12a32.63,32.63,0,0,0,2.67-5.88,46.46,46.46,0,0,0,2-8.77,44.57,44.57,0,0,0-.17-10.46,44.05,44.05,0,0,0-2.88-10.34,31.8,31.8,0,0,0-2.33-4.47c-.39-.67-.89-1.38-1.28-2.05s-.81-1.25-1.22-1.87a16.79,16.79,0,0,0-2.56-3c-.83-.81-1.64-1.51-2.21-2.19C228.1,534.89,227.32,534.31,227.32,534.31Z" transform="translate(-87.66 -378.11)"/><path class="cls-2" d="M238.5,449.4" transform="translate(-87.66 -378.11)"/><path class="cls-3" d="M278.62,546.82a40.79,40.79,0,0,0-4.42,4.6,60.86,60.86,0,0,0-8.45,14.83c-.56,1.7-1.24,3.4-1.78,5.33s-1.11,3.8-1.57,5.86a24,24,0,0,0-.56,3.12c-.18,1.11-.3,2.14-.48,3.25s-.21,2.2-.28,3.31-.2,2.31-.17,3.48a61.55,61.55,0,0,0,.1,7.05c.08,1.26.18,2.38.27,3.57s.29,2.37.53,3.53a136.14,136.14,0,0,0,3,14.31c2.67,9.37,5.89,18.34,9.11,26.55s6.46,15.81,8.6,22.41,4.16,12.15,5,16.18c.55,2,.82,3.54,1.1,4.67a13,13,0,0,1,.34,1.69s0-.61.13-1.68.25-2.7.33-4.82a96,96,0,0,0-1.49-17.3c-1.42-7.09-3.12-15.31-5.66-23.81-2.39-8.52-5.48-17.46-7.72-26.31-1.23-4.42-2.35-8.84-3.15-13.1-.19-1.07-.42-2.12-.61-3.19s-.24-2.11-.39-3.2c-.29-2.08-.42-4.19-.55-6.3a87.24,87.24,0,0,1,1.38-22.69,82.3,82.3,0,0,1,4.64-15.63A50.22,50.22,0,0,1,278.62,546.82Z" transform="translate(-87.66 -378.11)"/><path class="cls-4" d="M282.4,545.4l.05.09c.05.09,0,.18,0,.29s-.32.6-.6,1.07c-.62.85-1.42,2.15-2.54,3.77a55.42,55.42,0,0,0-6.58,15.31,64.81,64.81,0,0,0-1.56,24.28c1,9,3.87,18.07,6.85,26.83,3.24,8.73,6.67,17.28,9.94,25.1s6.37,15.09,8.26,21.55a102.82,102.82,0,0,1,3.86,15.7,27.22,27.22,0,0,1,.48,4.57c.05,1,0,1.64,0,1.64s.12-.55.46-1.58a43.4,43.4,0,0,0,1-4.54c.2-2,.41-4.51.54-7.31a59.1,59.1,0,0,0-.73-9.52,159.12,159.12,0,0,0-5.49-23.32c-2.57-8.36-5.86-16.88-8.8-25.37a212.12,212.12,0,0,1-7.6-24.78,72.31,72.31,0,0,1-1.67-21.93A89.83,89.83,0,0,1,281,551.56c.46-1.87.91-3.39,1.18-4.44a6.56,6.56,0,0,0,.24-1.21.35.35,0,0,0-.1-.36C282.44,545.37,282.4,545.4,282.4,545.4Z" transform="translate(-87.66 -378.11)"/><path class="cls-5" d="M286.18,543.9a.53.53,0,0,1,.27.26,1.15,1.15,0,0,1,0,1,32.75,32.75,0,0,1-1.56,3.72c-1.27,3.25-3.5,8-4.25,14.39a68.06,68.06,0,0,0-.47,10.35,55.89,55.89,0,0,0,1.67,11.56c1.75,7.84,4.75,15.77,7.8,23.42,3.27,7.64,6.66,15.1,9.9,21.93s6.33,13.22,8.38,18.92c1,2.83,1.91,5.37,2.67,7.77a43.56,43.56,0,0,1,1.59,6.16,16.81,16.81,0,0,1,.42,2.3,12.71,12.71,0,0,1,.21,1.77c.11.94.16,1.5.16,1.5s.11-.48.39-1.42l.39-1.71a12.24,12.24,0,0,0,.36-2.41c.13-1.86.3-4,.25-6.66a50.66,50.66,0,0,0-.93-8.63,145.22,145.22,0,0,0-5.64-20.74c-2.54-7.37-5.8-14.9-8.83-22.51-3.21-7.44-6.2-14.9-8.55-21.85a95.86,95.86,0,0,1-2.88-10,54.25,54.25,0,0,1-1.19-9.24,95.43,95.43,0,0,1,.46-14.32,28.43,28.43,0,0,0,.17-4.25c-.05-.56-.15-.92-.37-1.08S286.1,544,286.18,543.9Z" transform="translate(-87.66 -378.11)"/><path class="cls-6" d="M289.93,542.43a.72.72,0,0,1,.26.14c.16.08.33.27.44.74a6.08,6.08,0,0,1-.7,3.26c-.74,2.81-2.67,7-2.55,12.9a31.27,31.27,0,0,0,1.46,9.32,35,35,0,0,0,1.91,4.9c.39.84.74,1.51,1,2.22s.75,1.45,1.13,2.17c2.92,5.83,6.38,11.89,9.54,18.12,3.37,6.1,6.56,12.19,9.58,17.91s5.85,11,7.84,15.75,3.79,8.7,4.68,11.6a31.72,31.72,0,0,1,1.07,3.39c.24.87.36,1.26.36,1.26s0-.43.1-1.25.29-2.07.36-3.65a59.38,59.38,0,0,0-1.19-13,126.32,126.32,0,0,0-5.16-17.77,179.57,179.57,0,0,0-8.8-19.15c-3.45-6.23-7.1-12.34-10.78-17.84-.53-.69-.92-1.35-1.38-2s-.87-1.26-1.3-1.89c-.79-1.13-1.47-2.26-2.17-3.44A26.46,26.46,0,0,1,293,559a66.66,66.66,0,0,1-1.18-12.15c0-.74-.16-1.5-.24-2.11a4.48,4.48,0,0,0-.54-1.57,1.32,1.32,0,0,0-.8-.59A1.12,1.12,0,0,1,289.93,542.43Z" transform="translate(-87.66 -378.11)"/><path class="cls-7" d="M293.66,541a4.8,4.8,0,0,1,.76.61,3.54,3.54,0,0,1,.89,2.43c.42,2.12-.42,5.7.34,10.28a37.38,37.38,0,0,0,2,7.37,18.37,18.37,0,0,0,2,3.83c.39.65.87,1.26,1.25,1.8s.74,1,1.12,1.58c2.94,4.17,6.15,8.59,9.18,13.18s6.11,9.09,9,13.39,5.68,8.27,7.82,11.85,4.26,6.46,5.56,8.64l2.16,3.33s-.11-1.41-.29-4a61,61,0,0,0-2.18-10.25c-1.42-4.07-2.88-9.06-5.34-13.93a116.58,116.58,0,0,0-8.45-14.79,99.54,99.54,0,0,0-10.82-13.2c-.46-.49-.94-.92-1.41-1.41a7.93,7.93,0,0,1-1.17-1.2c-.73-.75-1.43-1.63-2.12-2.41a20.65,20.65,0,0,1-3-5.2c-1.46-3.57-2.67-7.11-4-9.56a4.64,4.64,0,0,0-2.4-2.12A1.79,1.79,0,0,0,293.66,541Z" transform="translate(-87.66 -378.11)"/><path class="cls-8" d="M297.35,539.47s.21.17.68.48a8.31,8.31,0,0,1,1.66,1.55,11,11,0,0,1,2,2.64c.65,1.09,1.3,2.36,2.09,3.78,1.53,2.76,3,6.48,5.43,10.21,1.26,1.91,2.43,3.59,3.67,5.39s2.51,3.54,3.84,5.29c2.77,3.5,5.32,7,8,10.13s5.42,5.94,7.61,8.48,4.45,4.33,5.84,5.81,2.4,2.12,2.4,2.12-.28-1.13-.73-3.12a67.39,67.39,0,0,0-2.77-7.94c-1.46-3.1-3-6.83-5-10.5a125.38,125.38,0,0,0-7.25-11.19c-1.47-1.79-2.8-3.54-4.19-5.31s-3-3.37-4.25-4.75c-2.63-3-5.53-5.76-8.08-8.32a25,25,0,0,0-4-3.07,17.85,17.85,0,0,0-3.61-1.51,9,9,0,0,0-2.39-.23A3.54,3.54,0,0,1,297.35,539.47Z" transform="translate(-87.66 -378.11)"/><path class="cls-9" d="M301.13,538s.65.62,1.8,1.59a14.85,14.85,0,0,1,2.05,1.73c.76.61,1.67,1.37,2.66,2.08.47.31,1,.71,1.48,1.07s.93.81,1.51,1.29c1.07.84,2.1,1.82,3.26,2.62,2.21,1.82,4.75,3.5,7.05,5.38,2.56,1.73,4.86,3.61,7.34,5.21,2.31,1.7,4.89,3,6.85,4.38a59,59,0,0,0,5.26,3c1.4.64,2.21,1.05,2.21,1.05s-.24-.87-.73-2.35a36.77,36.77,0,0,0-2.67-5.69,52.53,52.53,0,0,0-5-7.18,48.51,48.51,0,0,0-7.37-6.85,44.16,44.16,0,0,0-8.73-5,29.18,29.18,0,0,0-4.35-1.43c-.68-.19-1.44-.33-2.11-.51s-1.3-.29-2-.43a13.93,13.93,0,0,0-3.45-.3c-1,0-1.92.08-2.7,0C301.95,537.91,301.13,538,301.13,538Z" transform="translate(-87.66 -378.11)"/><path class="cls-10" d="M87.5,458.1" transform="translate(-87.66 -378.11)"/><text class="cls-11" transform="translate(23.72 97.89)">GAME <tspan class="cls-12" x="312.24" y="0">O</tspan><tspan x="379.17" y="0">VER</tspan></text><path class="cls-13" d="M656,546" transform="translate(-87.66 -378.11)"/><path class="cls-14" d="M618.1,392.6a114.62,114.62,0,0,1-7.7-10c-2.7-4.2-2.8-3.7-3.7-1.5-1.1,2.6-1.1,5.8-1.2,8.5-.1,4,.4,9.5,2.4,13.1s6.5,1,8.5-.8C619.4,399.3,620.5,396,618.1,392.6Z" transform="translate(-87.66 -378.11)"/><path class="cls-15" d="M607.6,380s-2.6,5.7-1.3,14.3,2.8,10,5.2,9.7c0,0-2-.6-3.4-7.2S606.6,382.3,607.6,380Z" transform="translate(-87.66 -378.11)"/><path class="cls-16" d="M616.6,391.9c-.4-.4-1-1.2-1.6-1.9a4.18,4.18,0,0,0,.4,1c.6,1.4,1.5,2.7,2.1,4.1h0c1.6,3.5-2.4,7.2-2.4,7.2s1.8-.1,3.2-3.5S618,393.4,616.6,391.9Z" transform="translate(-87.66 -378.11)"/><path class="cls-14" d="M650,390.2a90.14,90.14,0,0,0,7-9.2c2.5-3.8,2.6-3.4,3.4-1.4,1,2.4,1,5.3,1.1,7.9.1,3.7-.4,8.7-2.3,12s-5.9.9-7.8-.8C648.9,396.4,647.9,393.3,650,390.2Z" transform="translate(-87.66 -378.11)"/><path class="cls-16" d="M659.7,378.6a26.59,26.59,0,0,1,1.2,13.2c-1.1,7.9-2.6,9.2-4.8,9,0,0,1.8-.5,3.1-6.6S660.6,380.7,659.7,378.6Z" transform="translate(-87.66 -378.11)"/><path class="cls-15" d="M651.4,389.6c.4-.4.9-1.1,1.5-1.8l-.3.9c-1.1,2.5-2.6,5.9-1.2,8.6a5.35,5.35,0,0,0,1.5,1.8s-1.7-.1-3-3.3C648.5,392.8,650.1,390.9,651.4,389.6Z" transform="translate(-87.66 -378.11)"/><path class="cls-17" d="M703.25,488.14c-.33-.34-3.7-3.72-7.25-2.75a4.12,4.12,0,0,0-2.5,1.75,4.06,4.06,0,0,0,0,4,4.78,4.78,0,0,0,2.25,1.75c3.19,1.78,3.27,13.26-2.13,22.2-5.07,8.39-13.13,11.9-17.92,13.51-27.4,9.2-43.2-3.6-55.9-9.2s-33.2-16.2-50.9-6.7-27.8,30.4-21,54.5,34.7,43.7,60.2,31.4c0,0,.8-.8.7.4s-.5,5.9-.5,5.9l15.9-13.8-20.3-2.6,3.5,5.2s.9.9-.6,1.7-24.2,8.1-41.1-7.4-21.5-38.4-11.3-56.1,30-21,39.9-17.9c0,0,13.2,3.1,31.1,13.7s35.2,14.6,52.9,9.4l1.07-.33c6.43-2.07,16.93-7.59,22.63-19.38C708.74,503.44,704.09,490.38,703.25,488.14Z" transform="translate(-87.66 -378.11)"/><path class="cls-18" d="M546.6,547.7s-1.9,16.7,7.3,31.1,24.2,22.6,34.4,22.8,17.6-2.2,20.6-4.4c0,0,1.1-1,.8.4s-.8,6.5-.8,6.5l14.3-12.5s-8.1,2.4-13.4,4.3a29.77,29.77,0,0,1-5.1,2.1c-3.9,1.5-23,4.9-36.5-5.7S547.2,571.9,546.6,547.7Z" transform="translate(-87.66 -378.11)"/><polygon class="cls-19" points="534.14 213.19 517.14 211.09 521.75 216.89 534.14 213.19"/><path class="cls-20" d="M704.43,492.09H108.33v-6.8c228.88-.43,585.47-1,590.2-.2a7.64,7.64,0,0,1,3.47,1.55A8,8,0,0,1,704.43,492.09Z" transform="translate(-87.66 -378.11)"/><path class="cls-19" d="M692.31,487.08c-.08.24,4,.57,6.75,3.25,5.35,5.3,2.78,17.41-1.06,24.81a33.9,33.9,0,0,1-11.75,12.75c-23.55,8.23-38.34,5.71-47.65,1.61-7-3.06-15.46-8.38-31.38-14.27a97.83,97.83,0,0,0-14.82-4s-14.6-4.4-29.5,6.6c0,0,12.6-9,29-5.8s28.4,10.6,37.2,14.8,22.8,10.6,38.2,8.4l.56-.08c7.38-1.05,16.88-2.41,24.39-8.73A32,32,0,0,0,702,511.14c.89-3,2.61-8.31,1-14.5a12.77,12.77,0,0,0-3.94-7.06C696.14,487.14,692.39,486.85,692.31,487.08Z" transform="translate(-87.66 -378.11)"/></svg>