<?xml version="1.0" encoding="utf-8"?>
<!-- Generator: Adobe Illustrator 21.1.0, SVG Export Plug-In . SVG Version: 6.00 Build 0)  -->
<svg version="1.1" id="Capa_1" xmlns="http://www.w3.org/2000/svg" xmlns:xlink="http://www.w3.org/1999/xlink" x="0px" y="0px"
	 viewBox="0 0 1052 600.1" style="enable-background:new 0 0 1052 600.1;" xml:space="preserve">
<style type="text/css">
	.st0{fill:#4B0069;}
	.st1{fill:#424190;}
	.st2{fill:#00AD7F;}
	.st3{fill:#FFDF3F;}
	.st4{fill:#120076;}
	.st5{fill:#A0A0A0;}
	.st6{font-family:'Marion-Regular';}
	.st7{font-size:97px;}
	.st8{fill:#484741;}
	.st9{fill:#737069;}
	.st10{fill:#363530;}
	.st11{fill:#7A001B;}
	.st12{fill:#A71824;}
	.st13{fill:#D71016;}
	.st14{fill:url(#SVGID_1_);}
</style>
<g id="m4sm81.tif">
</g>
<g>
	<g>
		<path class="st0" d="M297.9,242.6c0,0,0.8-3.8,1-10.8c-0.3-6.9-0.6-17.2-4.3-28.6c-1-2.9-1.9-5.8-3.1-8.9c-1.1-3.1-2.5-6.2-4-9.4
			c-0.8-1.6-1.5-3.2-2.4-4.7c-0.9-1.6-1.8-3.2-2.7-4.8c-1.1-1.6-2-3.1-3-4.6c-1.1-1.6-2.1-3.2-3.3-4.7c-2.3-3-4.7-6.2-7.3-9.1
			c-1.4-1.5-2.7-2.9-4-4.4c-1.4-1.4-2.8-2.8-4.3-4c-5.8-5.5-12.1-10.5-18.5-15.3c-13-9.2-26.3-17.4-38.9-24.6
			c-12.5-7.4-24.4-13.5-34-19.7c-9.5-6.2-17.8-11.2-23-15.5c-2.8-2-4.7-3.7-6.2-4.9c-1.5-1.1-2.1-1.8-2.1-1.8s0.6,0.8,1.5,2.3
			c1.1,1.6,2.5,3.8,4.5,6.6c4.4,5.3,10.6,13.2,19.6,20.9s19.7,16.5,31.6,24.8c11.8,8.5,24.9,16.8,36.8,25.8
			c6.1,4.4,12.1,8.9,17.5,13.6c1.3,1.2,2.7,2.3,4,3.5s2.5,2.5,3.8,3.7c2.5,2.4,4.8,5,7.1,7.6c9.1,10.2,16.4,21.1,21.4,31.1
			c4.9,10,8.3,19,10,25.5C297.4,238.8,297.9,242.6,297.9,242.6z"/>
	</g>
	<g>
		<path class="st0" d="M294.6,248.7c0,0,0,0-0.1,0s-0.2-0.2-0.3-0.4c-0.1-0.5-0.2-1.1-0.3-2c-0.1-1.8-0.3-4.4-0.6-7.7
			c-1-6.6-2.2-16.4-7.2-27.2c-4.8-10.7-12-23-22.8-33.4c-10.5-10.5-23.4-19.3-36.2-27.5c-13.1-7.8-26.2-15.2-38.4-21.8
			c-12.2-6.7-23.6-12.6-32.6-19c-9-6.2-16.4-11.7-21-16.2c-2.4-2.2-4.2-4-5.3-5.4c-1.2-1.3-1.7-2.1-1.7-2.1s0.4,0.9,1,2.6
			c0.7,1.7,1.8,4,3.4,7c1.8,2.8,4.1,6.3,6.8,10.1c2.9,3.7,6.5,7.8,10.7,11.6c8.5,7.8,18.9,16.5,30.9,24.4
			c11.8,8.1,24.8,15.5,37.2,23.4c12.7,7.7,24.8,15.7,35.1,24c10.2,8.4,18.7,17.6,24.5,26.8c5.7,9.1,10.1,17.3,12.5,23.5
			c1.3,3,2.3,5.4,3,7.1c0.3,0.8,0.7,1.4,1,1.8C294.3,248.5,294.5,248.7,294.6,248.7C294.5,248.8,294.6,248.7,294.6,248.7z"/>
	</g>
	<g>
		<path class="st0" d="M291.2,254.8c0,0-0.2,0.1-0.6-0.1c-0.4-0.1-0.8-0.6-1-1.3c-0.5-1.4-1.1-3.6-1.8-6.5
			c-1.7-5.6-3.7-14.3-9.2-23.5c-2.8-4.5-6-9.4-10-14c-3.9-4.8-8.8-9.2-13.9-13.3c-10.3-8.3-22.2-15.3-33.9-21.9
			c-12-6.4-24-12.3-35.2-17.7c-11.1-5.6-21.6-10.3-30.1-15.4c-4.2-2.6-7.9-4.9-11.4-7.2c-3.3-2.2-6.3-4.3-8.4-6.2
			c-1.2-0.9-2.1-1.8-2.9-2.5c-0.9-0.8-1.5-1.4-2.1-2.1c-1.1-1.1-1.7-1.8-1.7-1.8s0.3,0.7,1,2.3c0.3,0.7,0.8,1.6,1.3,2.7
			s1.1,2.3,2,3.5c1.7,2.5,3.7,5.6,6.5,9c2.6,3.3,6.1,6.8,10,10.2c7.9,6.7,17.5,14.3,28.4,20.8c10.8,6.8,22.7,13,34.3,19.6
			c11.8,6.2,23.2,12.6,33.3,19.1c5.1,3.3,9.8,6.5,14,9.9s7.9,7.1,11,10.7c6.2,7.4,11,14.1,14,19.2c1.6,2.5,3,4.5,4.1,5.8
			c0.6,0.7,1.1,1,1.6,1C291,254.9,291.2,254.7,291.2,254.8z"/>
	</g>
	<g>
		<path class="st0" d="M287.8,260.8c0,0-0.2,0.1-0.5,0.1s-0.7,0-1.3-0.5c-1-0.8-1.7-2.5-2.5-5c-1.9-4.5-3.7-12.1-9.9-19.6
			c-2.9-3.7-6.8-7.4-11.4-10.6c-2.2-1.5-4.8-3-7.4-4.3c-1.4-0.6-2.5-1.2-3.6-1.8s-2.4-1-3.7-1.6c-9.8-4.4-20.4-8.5-30.8-13.1
			c-10.6-4.2-20.9-8.7-30.6-12.8c-9.6-4.3-18.8-7.9-26.2-11.9s-13.8-7.2-17.9-10c-2.2-1.2-3.8-2.5-4.9-3.2c-1.2-0.9-1.8-1.2-1.8-1.2
			s0.4,0.6,1.1,1.7c0.8,1.2,1.7,3,3.3,5.2c3.3,4,7.9,10,14.8,15.6c7,5.6,15.1,11.9,24.8,17.5c9.5,5.6,20.2,10.6,30.9,15.2
			c10.8,4.3,21.8,8.3,32.1,11.4c1.4,0.3,2.5,0.8,3.9,1.1c1.2,0.3,2.4,0.7,3.6,1c2.1,0.6,4.2,1.4,6.3,2.1c4,1.6,7.6,3.8,10.7,6.3
			c6,5.1,10.7,10.5,13.9,14.6c0.9,0.9,1.7,1.8,2.5,2.5s1.6,1.2,2.3,1.4c0.7,0.2,1.3,0,1.7-0.1C287.7,260.9,287.8,260.8,287.8,260.8z
			"/>
	</g>
	<g>
		<path class="st0" d="M284.5,266.8c0,0-0.5,0.1-1.6,0c-1-0.1-2.4-0.7-3.6-2.2c-2.7-2.3-5.2-7.9-10.9-13.1
			c-2.8-2.5-6.2-5.2-10.2-7.3c-1.9-1.1-4.2-2.1-6.5-2.8c-1.2-0.4-2.4-0.7-3.5-1c-1.1-0.2-2-0.6-3.1-0.8c-8.1-2.2-16.7-4.4-25.3-7
			c-8.6-2.4-17.1-5.1-25.3-7.5c-8-2.6-15.8-4.5-22.2-6.8s-12.1-3.7-16-5.2c-4-1.3-6.2-1.9-6.2-1.9s1.6,1.7,4.4,4.8
			c3.1,2.7,7.3,7.2,13.3,11s12.9,8.6,21.1,12.3c8,3.9,16.9,7.1,26,9.9c9.1,2.4,18.5,4.6,27.4,5.3c1.1,0.1,2.1,0.2,3.3,0.3
			c0.9,0,1.8,0,2.7,0.2c1.7,0.2,3.5,0.5,5.2,0.8c3.3,0.7,6.5,1.9,9.2,3.5c5.5,3,10.7,6.3,14.9,8c2.2,0.8,4.2,0.6,5.3,0.1
			C284,267.3,284.5,266.8,284.5,266.8z"/>
	</g>
	<g>
		<path class="st0" d="M281.3,272.9c0,0-0.4,0-1.4,0.1c-0.9,0.1-2.2,0.1-3.8-0.2c-1.5,0.1-3.3-0.6-5.3-1.2c-2-0.7-4.1-1.6-6.6-2.7
			c-4.8-1.9-10.5-5.1-17.4-7.3c-3.6-1.1-6.8-2-10.3-3c-3.4-0.9-6.8-1.9-10.4-2.7c-7.1-1.5-14-3.3-20.7-4.3
			c-6.6-1.3-13.1-1.8-18.5-2.7s-10.2-0.7-13.4-1.1c-3.4,0-5.3-0.1-5.3-0.1s1.5,1.1,4.1,3.3c2.8,1.7,6.6,4.9,11.7,7.3
			c5,2.4,10.8,5.6,17.3,8.1c6.4,2.6,13.7,4.6,20.8,6.6c3.7,0.7,7.2,1.6,10.8,2.3c3.6,0.7,7.2,1.1,10.4,1.5c6.4,1,13,1.4,18.9,1.9
			c2.9,0.2,5.7,0,8.3-0.4c2.6-0.6,4.6-1.3,6.2-2c1.6-0.9,2.7-1.7,3.3-2.3C280.9,273.2,281.3,272.9,281.3,272.9z"/>
	</g>
	<g>
		<path class="st0" d="M277.9,278.9c0,0-1.4-0.1-3.9-0.1c-1.2,0.1-2.7,0.1-4.4,0c-1.6,0-3.6,0-5.5,0.2c-0.9,0.1-2,0.2-3,0.2
			s-2.1,0-3.2,0c-2.2,0.1-4.6,0-6.8,0.2c-4.7,0.1-9.7,0.6-14.6,0.8c-5.1,0.5-10,0.7-14.8,1.3c-4.7,0.4-9.4,1.5-13.3,1.8
			c-4,0.3-7.5,1.6-9.8,1.9c-2.5,0.7-3.9,1.1-3.9,1.1s1.2,0.9,3.3,2.2c2.1,1.1,5.3,3.2,9.3,4.5s8.6,3.1,13.8,3.8
			c5.2,1,10.8,1,16.5,0.8c5.6-0.5,11.3-1.5,16.3-3.1c2.5-0.9,4.9-1.8,7.1-2.9c1.1-0.5,2.2-1.1,3.2-1.6c0.9-0.5,2-1,2.9-1.6
			c1.8-1,3.5-2.3,4.8-3.4c1.3-1.2,2.4-2.2,3.4-3C277,280,277.9,278.9,277.9,278.9z"/>
	</g>
</g>
<path class="st1" d="M426.5,279.4"/>
<g>
	<g>
		<path class="st2" d="M275.3,264.5c0,0-0.7-4.7-3.3-12.7c-3.2-7.7-7.7-19.2-16.5-30.7c-2.3-2.8-4.5-5.8-7.2-8.8c-2.5-3-5.3-6-8.3-9
			c-1.5-1.5-3-3-4.7-4.3c-1.7-1.5-3.3-2.8-5-4.3c-1.8-1.3-3.5-2.7-5.3-4s-3.7-2.8-5.7-4c-3.8-2.5-7.8-5.2-12-7.3
			c-2.2-1.2-4.2-2.2-6.3-3.3c-2.2-1-4.3-2-6.5-2.8c-8.8-3.8-18-7-27.2-9.8c-18.5-5.2-36.9-9-54-12c-17.2-3.3-33.2-5.3-46.5-8.5
			s-24.7-5.5-32.4-8.2c-4-1.2-6.8-2.3-9-3s-3.2-1.2-3.2-1.2s1,0.7,2.7,2c1.8,1.3,4.3,3.3,7.8,5.7C39.9,142.5,50,149,63.4,154
			s29,10.7,45.9,15.2c16.8,4.8,35,8.8,52.2,14.2c8.7,2.5,17.3,5.2,25.3,8.3c2,0.8,4,1.5,6,2.3s3.8,1.8,5.8,2.7
			c3.8,1.7,7.5,3.7,11.2,5.7c14.5,7.8,27.2,17.2,36.9,26.5s17.2,18.2,21.7,24.8C273.1,260.3,275.3,264.5,275.3,264.5z"/>
	</g>
	<g>
		<path class="st2" d="M273.9,272.7c0,0,0,0-0.2,0s-0.3-0.2-0.5-0.3c-0.3-0.5-0.7-1.2-1.2-2.2c-0.8-2-2.2-4.8-3.8-8.5
			c-3.8-7-9.2-17.7-19.2-27.9c-9.8-10.2-23-21.2-39.4-28.5c-16.2-7.7-34.4-12.3-52.2-16.3c-18-3.5-35.9-6.5-52.4-9
			c-16.5-2.7-31.9-4.7-44.7-8.2c-12.7-3.3-23.3-6.5-30.4-9.8c-3.7-1.5-6.3-2.8-8.2-4c-1.8-1-2.8-1.7-2.8-1.7s0.8,0.8,2.2,2.5
			c1.5,1.7,3.7,3.8,6.7,6.5c3.2,2.5,7.2,5.5,11.8,8.7c4.8,3,10.5,6.2,16.8,8.8c12.8,5.3,28.2,11,44.9,15
			c16.7,4.3,34.4,7.5,51.7,11.3c17.5,3.5,34.5,7.7,49.5,12.8c15,5.3,28.4,12.3,38.7,20.3c10.2,8,18.5,15.5,23.7,21.5
			c2.7,2.8,4.8,5.2,6.3,6.8c0.7,0.8,1.3,1.3,1.8,1.7c0.2,0.2,0.5,0.3,0.7,0.2C273.9,272.8,273.9,272.7,273.9,272.7z"/>
	</g>
	<g>
		<path class="st2" d="M272.6,281c0,0-0.2,0.2-0.7,0.2s-1.2-0.3-1.7-1c-1.2-1.3-2.7-3.7-4.7-6.7c-4.2-5.7-10-14.7-20-22.8
			c-5-4-10.7-8.2-17-11.8c-6.3-3.8-13.7-6.8-21.2-9.3c-15-5.2-31.4-8.3-47.4-11c-16.2-2.3-32.2-4.2-47-5.7
			c-14.8-1.8-28.7-2.8-40.4-5.2c-5.8-1.2-11-2.3-15.8-3.5c-4.7-1.2-8.8-2.3-12-3.7c-1.7-0.5-3.2-1.2-4.3-1.7c-1.3-0.5-2.3-1-3.2-1.5
			c-1.7-0.8-2.7-1.3-2.7-1.3s0.7,0.7,2,2.2c0.7,0.7,1.5,1.5,2.5,2.5s2.2,2.2,3.7,3.2c3,2.2,6.5,4.8,11,7.5c4.3,2.7,9.7,5.2,15.5,7.5
			c11.7,4.3,25.7,9,40.7,12c15,3.3,31,5.5,46.9,8.2c15.8,2.2,31.4,4.8,45.5,8c7.2,1.7,13.7,3.3,19.8,5.5s11.8,4.8,16.8,7.7
			c10,5.8,18.2,11.5,23.7,16c2.8,2.2,5.2,3.8,7,4.8c1,0.5,1.7,0.7,2.2,0.5C272.4,281.2,272.6,280.8,272.6,281z"/>
	</g>
	<g>
		<path class="st2" d="M271.3,289.2c0,0-0.2,0.2-0.5,0.3c-0.3,0.2-0.8,0.3-1.7,0c-1.5-0.5-3-2.2-4.8-4.7c-4-4.3-9.2-12.2-19.2-18.2
			c-4.8-3-10.7-5.7-17.2-7.3c-3.2-0.8-6.7-1.5-10.2-1.8c-1.8-0.2-3.3-0.3-4.8-0.5s-3.2-0.2-4.8-0.3c-12.8-1-26.5-1.3-40.2-2.3
			c-13.7-0.5-27.2-1.3-39.9-2c-12.7-1-24.5-1.3-34.5-2.8s-18.5-2.5-24.3-4c-3-0.5-5.3-1.3-6.8-1.7c-1.7-0.5-2.5-0.7-2.5-0.7
			s0.7,0.5,2,1.5s3.2,2.7,5.8,4.5c5.3,3.2,13,8.2,23.2,11.7s22,7.3,35.2,9.7c13,2.5,27.2,3.8,41.2,4.7c14,0.5,28,0.5,41-0.2
			c1.7-0.2,3.2-0.2,4.8-0.3c1.5-0.2,3-0.2,4.5-0.3c2.7-0.2,5.3-0.2,8-0.2c5.2,0.2,10.2,1.2,14.7,2.8c8.8,3.3,16.3,7.5,21.7,10.8
			c1.3,0.7,2.7,1.3,3.8,1.8c1.2,0.5,2.3,0.7,3.2,0.7c0.9,0,1.5-0.5,1.8-0.8C271.1,289.3,271.3,289.2,271.3,289.2z"/>
	</g>
	<g>
		<path class="st2" d="M269.9,297.3c0,0-0.5,0.3-1.8,0.7c-1.2,0.3-3,0.2-5-1c-4-1.5-9.2-6.8-17.7-10.3c-4.2-1.7-9.2-3.3-14.5-4.2
			c-2.7-0.5-5.7-0.7-8.5-0.5c-1.5,0-3,0.2-4.3,0.3c-1.3,0.2-2.5,0.2-3.8,0.3c-10,0.8-20.7,1.8-31.5,2.3c-10.7,0.8-21.5,1.2-31.7,1.8
			c-10.2,0.3-19.7,1.3-27.9,1.3s-15.2,0.7-20.2,0.7c-5,0.2-7.8,0.3-7.8,0.3s2.5,1.3,7,3.7c4.7,1.8,11.2,5.2,19.5,7
			s18.2,4.5,28.9,5.3c10.7,1.2,22,1.2,33.5,0.7c11.3-1,22.8-2.3,33.2-5.2c1.3-0.3,2.5-0.7,3.8-1c1-0.3,2-0.7,3.2-0.8
			c2-0.5,4.2-0.8,6.2-1.2c4-0.5,8.2-0.5,11.8,0.2c7.5,1.2,14.7,2.8,20.2,3c2.8,0,5-1,6-2C269.6,298,269.9,297.3,269.9,297.3z"/>
	</g>
	<g>
		<path class="st2" d="M268.8,305.5c0,0-0.5,0.2-1.5,0.7s-2.5,1-4.3,1.3c-1.7,0.7-4,0.7-6.5,0.8c-2.5,0-5.3-0.2-8.5-0.3
			c-6.2-0.2-14-1.5-22.7-1.2c-4.5,0.2-8.5,0.5-12.8,0.8c-4.2,0.3-8.5,0.7-12.8,1.2c-8.7,1.2-17.2,2-25.2,3.5c-8,1.2-15.5,3.3-22,4.5
			s-11.8,3.3-15.7,4.2c-3.8,1.3-6,2-6,2s2.2,0.7,6,2c3.8,0.8,9.5,2.8,16.2,3.5s14.5,2,22.8,2.2c8.3,0.3,17.3-0.3,26.2-1
			c4.5-0.7,8.8-1.2,13.2-1.8c4.3-0.7,8.7-1.7,12.3-2.5c7.7-1.5,15.3-3.7,22.2-5.5c3.3-1,6.5-2.3,9.2-3.8c2.7-1.7,4.7-3.3,6.2-4.8
			c1.5-1.7,2.3-3,2.8-4C268.4,306,268.8,305.5,268.8,305.5z"/>
	</g>
	<g>
		<path class="st2" d="M267.4,313.7c0,0-1.7,0.5-4.5,1.5c-1.3,0.7-3,1.2-5,1.8c-1.8,0.7-4,1.5-6.2,2.5c-1,0.5-2.2,1-3.3,1.5
			c-1.2,0.5-2.3,0.8-3.7,1.3c-2.5,1-5.2,1.8-7.7,3c-5.3,2-10.7,4.7-16.2,6.8c-5.5,2.7-11,4.8-16.2,7.5c-5.2,2.3-10,5.5-14.3,7.5
			s-7.8,4.8-10.3,6.2c-2.5,1.8-4,2.8-4,2.8s1.7,0.5,4.7,1.2c2.8,0.3,7.3,1.5,12.3,1.3s11,0,17.2-1.3c6.3-1,12.7-3.3,19-5.8
			c6.2-2.8,12.2-6.3,17.2-10.2c2.5-2,4.8-4,6.8-6.2c1-1,2-2.2,3-3.2c0.8-1,1.8-2,2.7-3c1.7-1.8,3-4,4-5.8s1.8-3.5,2.7-4.8
			C266.8,315.3,267.4,313.7,267.4,313.7z"/>
	</g>
</g>
<ellipse transform="matrix(0.7988 -0.6016 0.6016 0.7988 -43.3284 220.0511)" class="st3" cx="307.3" cy="174.8" rx="66.8" ry="21.8"/>
<path class="st4" d="M275.5,288.1"/>
<text transform="matrix(1 0 0 1 299.3764 306)" class="st5 st6 st7">What the hell?</text>
<path d="M844,376"/>
<g>
	<path class="st8" d="M806.1,222.6c0,0-5-5.8-7.7-10s-2.8-3.7-3.7-1.5c-1.1,2.6-1.1,5.8-1.2,8.5c-0.1,4,0.4,9.5,2.4,13.1
		c2,3.5,6.5,1,8.5-0.8C807.4,229.3,808.5,226,806.1,222.6z"/>
	<path class="st9" d="M795.6,210c0,0-2.6,5.7-1.3,14.3s2.8,10,5.2,9.7c0,0-2-0.6-3.4-7.2C794.8,220.3,794.6,212.3,795.6,210z"/>
	<path class="st10" d="M804.6,221.9c-0.4-0.4-1-1.2-1.6-1.9c0.1,0.3,0.2,0.7,0.4,1c0.6,1.4,1.5,2.7,2.1,4.1l0,0
		c1.6,3.5-2.4,7.2-2.4,7.2s1.8-0.1,3.2-3.5C807.8,225.4,806,223.4,804.6,221.9z"/>
</g>
<g>
	<path class="st8" d="M838,220.2c0,0,4.6-5.3,7-9.2c2.5-3.8,2.6-3.4,3.4-1.4c1,2.4,1,5.3,1.1,7.9c0.1,3.7-0.4,8.7-2.3,12
		c-1.8,3.2-5.9,0.9-7.8-0.8C836.9,226.4,835.9,223.3,838,220.2z"/>
	<path class="st10" d="M847.7,208.6c0,0,2.3,5.3,1.2,13.2s-2.6,9.2-4.8,9c0,0,1.8-0.5,3.1-6.6C848.5,218.1,848.6,210.7,847.7,208.6z
		"/>
	<path class="st9" d="M839.4,219.6c0.4-0.4,0.9-1.1,1.5-1.8c-0.1,0.3-0.2,0.6-0.3,0.9c-1.1,2.5-2.6,5.9-1.2,8.6
		c0.4,0.7,0.9,1.4,1.5,1.8c0,0-1.7-0.1-3-3.3C836.5,222.8,838.1,220.9,839.4,219.6z"/>
</g>
<path class="st11" d="M891.2,318.1c-0.3-0.3-3.7-3.7-7.2-2.8c-0.4,0.1-1.8,0.5-2.5,1.8c-0.8,1.3-0.6,2.9,0,4
	c0.7,1.1,1.8,1.5,2.2,1.8c3.2,1.8,3.3,13.3-2.1,22.2c-5.1,8.4-13.1,11.9-17.9,13.5c-27.4,9.2-43.2-3.6-55.9-9.2
	c-12.7-5.5-33.2-16.2-50.9-6.7s-27.8,30.4-21,54.5c6.9,24.1,34.7,43.7,60.2,31.4c0,0,0.8-0.8,0.7,0.4c-0.1,1.2-0.5,5.9-0.5,5.9
	l15.9-13.8l-20.3-2.6l3.5,5.2c0,0,0.9,0.9-0.6,1.7c-1.5,0.9-24.2,8.1-41.1-7.4c-16.9-15.5-21.5-38.4-11.3-56.1s30-21,39.9-17.9
	c0,0,13.2,3.1,31.1,13.7c17.9,10.5,35.2,14.6,52.9,9.4c0.6-0.2,1.1-0.3,1.1-0.3c6.4-2.1,16.9-7.6,22.6-19.4
	C896.7,333.4,892.1,320.4,891.2,318.1z"/>
<path class="st12" d="M734.6,377.7c0,0-1.9,16.7,7.3,31.1s24.2,22.6,34.4,22.8c10.2,0.2,17.6-2.2,20.6-4.4c0,0,1.1-1,0.8,0.4
	s-0.8,6.5-0.8,6.5l14.3-12.5c0,0-8.1,2.4-13.4,4.3c0,0-1.1,0.7-5.1,2.1c-3.9,1.5-23,4.9-36.5-5.7
	C742.8,411.7,735.2,401.9,734.6,377.7z"/>
<polygon class="st13" points="809.8,421.3 792.8,419.2 797.4,425 "/>
<linearGradient id="SVGID_1_" gradientUnits="userSpaceOnUse" x1="296.3328" y1="318.3922" x2="892.4327" y2="318.3922">
	<stop  offset="0" style="stop-color:#FFFFFF"/>
	<stop  offset="0" style="stop-color:#000000"/>
	<stop  offset="0.9707" style="stop-color:#7A001B"/>
</linearGradient>
<path class="st14" d="M892.4,322.1H296.3v-6.8c228.9-0.4,585.5-1,590.2-0.2c2.1,0.4,3.5,1.5,3.5,1.5
	C891.2,317.7,892.1,319.4,892.4,322.1z"/>
<path class="st13" d="M880.3,317.1c-0.1,0.2,4,0.6,6.8,3.2c5.4,5.3,2.8,17.4-1.1,24.8c-1.5,2.9-4.8,8.2-11.8,12.8
	c-23.5,8.2-38.3,5.7-47.6,1.6c-7-3.1-15.5-8.4-31.4-14.3c-3.9-1.5-8.4-2.7-14.8-4c0,0-14.6-4.4-29.5,6.6c0,0,12.6-9,29-5.8
	s28.4,10.6,37.2,14.8c8.8,4.1,22.8,10.6,38.2,8.4c0.2,0,0.5-0.1,0.6-0.1c7.4-1.1,16.9-2.4,24.4-8.7c6.8-5.7,9.1-13.1,9.8-15.2
	c0.9-3,2.6-8.3,1-14.5c-0.5-1.9-1.3-4.9-3.9-7.1C884.1,317.1,880.4,316.8,880.3,317.1z"/>
</svg>
