<?xml version="1.0" encoding="utf-8"?>
<!-- Generator: Adobe Illustrator 21.1.0, SVG Export Plug-In . SVG Version: 6.00 Build 0)  -->
<svg version="1.1" id="Capa_1" xmlns="http://www.w3.org/2000/svg" xmlns:xlink="http://www.w3.org/1999/xlink" x="0px" y="0px"
	 viewBox="0 0 512 512" style="enable-background:new 0 0 512 512;" xml:space="preserve">
<style type="text/css">
	.st0{fill:#424190;}
	.st1{fill:#B9E4CD;}
	.st2{fill:#EDDAF0;}
	.st3{fill:#D9DEF0;}
	.st4{fill:#EBD2B5;}
	.st5{fill:#F3E4DB;}
	.st6{fill:#316852;}
	.st7{fill:#526C9B;}
	.st8{fill:#66CAAD;}
	.st9{fill:#001449;}
	.st10{fill:url(#SVGID_1_);}
	.st11{fill:url(#SVGID_2_);}
	.st12{fill:url(#SVGID_3_);}
	.st13{fill:url(#SVGID_4_);}
	.st14{fill:url(#SVGID_5_);}
	.st15{fill:url(#SVGID_6_);}
	.st16{fill:url(#SVGID_7_);}
	.st17{fill:#5D6C7C;}
	.st18{fill:url(#SVGID_8_);}
	.st19{fill:url(#SVGID_9_);}
	.st20{fill:url(#SVGID_10_);}
</style>
<path class="st0" d="M8.5,191.3"/>
<path class="st1" d="M4259.2-5016.2c16.4,36.3,32.8,72.6,49.3,108.9c0,0,41.3,108.2,55.4,212.6c21.7,161.4-44.5,309.9-63.2,355.1
	c-59.2,142.9-121.3,406.1-122.5,935c-67.1,2.6-134.1,5.2-201.2,7.8c163.7-537.7,152.9-754.4,98.8-844.3
	c-6.5-10.8-39.1-62.2-71-138.1c-46.2-110.1-61.5-201.7-67-240.7c-12.2-86.9-25-178.5,9.3-287.5c15.5-49.2,36.1-87.5,52-113.3"/>
<path class="st2" d="M4031.3-5820.5c-35.7,28.7-46.8,65.3-50,76.3c-7,24.4-5.1,41.4-5.3,57.9c-0.4,48.5-19.6,85-57.9,157.8
	c-39.4,74.9-80.8,125.7-91.7,138.6c-61.5,73.1-111,132.5-178.9,134.1c-31.3,0.7-58.8-10.4-60.5-5.3c-1.9,5.7,30.2,28.4,68.4,31.6
	c42.5,3.6,76.3-18.3,78.9-13.1c3,5.7-44.7,23.3-52.6,60.5c-5.9,27.4,11.8,56.3,18.4,55.2c5.9-0.9-1-25.3,13.2-50
	c17-29.7,56.8-46.6,68.4-36.8c8.5,7.2,2,28.8-5.3,52.6c-10.3,33.9-24.2,50-21.1,52.6c4.7,3.9,42.3-27,74.6-66.4
	c18.6-22.6,25.1-35.5,30.7-33.6c8.3,2.8,9,36.7-5.3,63.1c-10.3,19.1-24.4,28.1-23.7,28.9c1.2,1.4,39.5-19.3,68.4-60.5
	c10.9-15.5,19.1-27.3,21-26.3c2.7,1.5-7.4,28-18.8,50.7c-11.4,22.8-20.7,34.8-18.4,36.8c5,4.5,51.4-55.5,76.3-44.7
	c15.2,6.6,16.1,36.8,16.1,38.7c0.5,27.3-17.2,44.2-13.2,47.3c5.9,4.6,37.2-24.9,52.6-39.4c18.7-17.7,20-21,26.3-26.3
	c49.8-41.7,166.3,5,213,23.7c38.4,15.4,64,29.9,68.4,23.7c7.3-10.3-50-68.4-50-68.4c0,0,36,3.6,68.4,13.2
	c40,11.8,47.5,24.5,57.9,18.4c10.4-6.1,14.6-25.9,7.5-36.1c-8.5-12.2-28.1-2.7-50-18.4c-9.6-6.9-17.9-17.3-15.8-20.6
	c4.3-6.6,44.7,28.2,89.5,20.6c35.9-6.1,65.3-37.9,60.5-50c-7.4-18.7-96.6,11.1-110.1-16.6c-3.9-8-0.6-19.1,5-25.3
	c12.9-14.3,42-6.5,60.4-2.8c78.2,15.4,149.9-8.3,149.9-13.1c0-4.5-62.7,12-121-18.4c-71.9-37.6-103.4-128.9-136.3-224.3
	c-8.8-25.4-8.3-61.8-34.5-96.6c-13.2-17.5-23.6-23.3-34.2-44.7c-14.1-28.5-5-36.7-15.8-71c-2-6.4-16.9-51.7-57.8-84.2
	c-16.2-12.8-28.5-17.3-31.6-18.4c-22.7-8-42.2-5.1-57.9-2.6C4091.2-5849.5,4061-5844.3,4031.3-5820.5z"/>
<g>
	<g>
		<path class="st3" d="M4134-5323.2c0,0,0.8-20.1,8.2-54.9c9.4-33.8,22.8-84.2,54.9-137.3c8.1-13.1,16.4-27,26.2-40.6
			c9.2-14.1,19.8-27.7,30.9-41.8c5.4-7.2,11.4-13.9,17.6-20.7c6.2-6.8,12.4-13.7,18.7-20.7c6.8-6.5,13.7-13.1,20.6-19.7
			c7-6.5,14-13.4,21.7-19.4c15.2-12.3,30.2-25.5,47.3-36.5c8.4-5.7,16.8-11.4,25.3-17.2c8.7-5.3,17.5-10.3,26.4-15.5
			c35.4-20.8,72.6-37.9,109.8-54.5c75.3-30.8,151.1-55.7,222.1-76.9c70.7-22,137.3-38.5,192.5-58.2c55-19.6,101.6-35.2,132.8-50.1
			c16-6.6,28-13,36.6-16.9c8.5-4.1,13-6.2,13-6.2s-3.6,3.4-10.4,9.9c-6.9,6.3-16.6,16.4-30.1,27.9c-27.9,21.2-68.1,53.3-122.1,81
			c-53.8,27.5-117.1,58.9-186.4,86c-68.8,28.4-143.1,54.1-213.6,84.9c-35.4,14.8-70.5,30.1-103,47.6c-8.2,4.3-16.3,8.6-24.4,12.9
			c-7.8,4.7-15.5,9.3-23.2,13.9c-15.7,8.7-30,19.5-44.7,29c-57.4,40.2-106.6,85.3-142.6,129.8c-36,44.4-63.9,84.7-79.7,115.2
			C4141-5342.1,4134-5323.2,4134-5323.2z"/>
	</g>
	<g>
		<path class="st3" d="M4143.5-5289.3c0-0.1,0.2,0.3,0.7,0.1c0.5-0.1,1.1-0.8,1.7-1.8c1.1-2,2.3-5.2,3.7-9.5
			c2.8-8.6,6.5-21.4,12-37.7c12.5-31.5,30.4-78.9,67.3-126.8c36.5-47.5,86.8-100.1,152.5-139.4c64.8-40.3,139.1-68.9,212.6-94.4
			c74.2-23.6,147.9-44.5,216.6-63c68.3-19.4,132.4-35.2,184.7-55.7c52-20.3,95.7-38.4,123.6-56.5c14.4-8.2,25.7-15.4,32.9-20.8
			c7.4-5.3,11.3-8.1,11.3-8.1s-2.8,3.9-8.2,11.3c-5.2,7.6-13.7,18-25.2,31c-12.2,12.1-27.3,26.9-46,42.2
			c-18.8,15.2-41.1,31.3-67,45.7c-51.6,28.9-113.6,59.9-181.9,84.9c-68,26.1-141.5,48.1-212.8,72.8
			c-71.9,22.9-141.7,48.7-202.7,78.4c-60.5,29.9-113.9,65.5-153.2,104.3c-39.3,38.4-70.7,74.2-89.3,102
			c-10.1,13.4-17.7,24.4-23.1,31.8c-2.7,3.7-5,6.5-6.7,8.1c-0.9,0.8-1.7,1.3-2.4,1.3C4143.8-5289,4143.5-5289.4,4143.5-5289.3z"/>
	</g>
	<g>
		<path class="st3" d="M4153-5255.4c0.1-0.2,0.8,0.8,2.6,0.6c1.9-0.1,4.6-2.1,6.7-5.2c4.6-6.3,9.8-16.8,16.6-30.5
			c15-26,35-67,73.1-106.1c19-19.3,40.8-39.6,66.2-58.3c25.2-19,54.6-35.8,84.9-49.9c60.8-29.2,128.2-50,194.8-69.3
			c67.2-17.4,133.7-33.3,195.9-47c61.8-14.6,119.9-25.7,167.5-41.5c23.7-7.9,45.5-15.1,64.9-22.1c19.1-7.2,35.8-14.1,48.6-21.5
			c6.9-3,12.6-6.4,17.8-9.1c5.2-2.7,9.5-5.3,12.8-7.5c6.9-4.4,10.6-6.7,10.6-6.7s-2.6,3.5-7.5,10c-2.4,3.3-5.6,7.4-9.6,11.9
			c-3.9,4.5-8.4,10-13.9,15.4c-11.3,10.6-25.4,23.2-42.7,36.6c-17.4,13.1-38,26.7-61.6,38.9c-47.3,24.1-103.6,50.4-165.7,70.6
			c-61.7,21.3-128.4,38.5-193.7,57.3c-65.8,17-130.1,35.6-188.3,55.8c-29.1,10.6-56.1,20.6-80.9,33c-24.9,12.1-47.5,25.9-67.2,40.6
			c-39.2,29.3-71.5,57.3-92.3,79.2c-11.2,10.4-20.1,18.8-27.3,23.6c-3.7,2.4-6.9,3.4-9.2,2.9
			C4153.9-5254.3,4153.1-5255.6,4153-5255.4z"/>
	</g>
	<g>
		<path class="st3" d="M4162.5-5221.5c0,0,0.7,0.3,2.2,0.9c1.5,0.4,4,0.8,6.9-0.7c6-2.9,11.3-10.9,18.2-21.7
			c14.8-20.3,33.1-55.9,71.9-85.7c19.2-14.7,42.2-28.9,68.8-39.5c13.3-5.2,27.4-9.8,42-12.8c7.7-1.7,13.7-2.9,20.5-4.2
			c6.6-1.2,13.3-2.4,20.1-3.7c53.9-10.3,111.4-18.7,168.4-29c57.3-8.4,114-18.9,167.2-28c52.9-10.1,102.9-17.3,144.6-28.6
			c41.4-11.4,77.1-19.4,100.9-28.9c12.4-3.7,21.6-7.9,28.3-10.3c6.6-2.5,10.1-3.9,10.1-3.9s-2.6,2.7-7.6,7.6
			c-5.1,4.8-12.1,12.8-22.2,21.5c-20.8,16-50.9,40.8-92.1,60.5c-41,19.4-89.5,41.9-143.7,57.8c-53.9,17-112.6,29-171.3,39.5
			c-59,8.7-117.9,15.9-173.4,18.9c-6.9,0.4-13.8,0.8-20.6,1.2c-6.5,0.3-13,0.6-19.4,0.8c-11.6,0.3-22.9,1.6-33.9,3.3
			c-21.9,3.6-42.4,10.2-60.2,19.4c-35.7,18-65.6,39.5-86.3,55.9c-5.6,3.8-10.7,7.1-15.5,9.6c-4.8,2.6-9.6,4.2-13.2,4.3
			c-3.8,0.3-6.7-1.2-8.3-2.3C4163.4-5220.8,4162.5-5221.5,4162.5-5221.5z"/>
	</g>
	<g>
		<path class="st3" d="M4172.1-5187.6c0.1-0.2,2.6,1.4,7.8,2.2c5.3,0.7,12.9-0.9,20.4-6.3c16.4-8.6,35.6-33.2,69.7-52
			c17-9.2,36.8-18.5,59.5-24.5c11.3-3.1,23.3-5.3,35.6-6.5c6.2-0.7,12.4-0.9,18.7-1c5.3-0.1,10.7-0.2,16.2-0.4
			c42.7-1.2,88.3-2,133.9-5.2c45.7-1.3,91.3-5.3,134.4-7.6c42.9-3.5,83.8-3.7,118.4-7.9c34.5-4,64.6-4.2,85.2-7.1
			c21-1.4,33.3-2.6,33.3-2.6s-10.1,6.9-27.8,19c-18.6,9.7-44.8,27.1-79.1,39.1c-34.2,12.1-74.3,27.6-118.8,36.6
			c-44.4,10.2-92.6,15.5-141,18.8c-48.5,1.5-97.2,0.8-142.7-5.5c-5.6-0.7-11.1-1.5-16.6-2.2c-4.5-0.7-9-1.5-13.5-2
			c-8.9-1.1-17.7-1.8-26.4-1.8c-17.4-0.2-34.3,2.1-49.9,6.5c-31.2,8.5-60.4,18.9-83.7,22.6c-12.1,1.2-21.6-2.1-26.5-5.7
			C4173.8-5184.8,4172.2-5187.7,4172.1-5187.6z"/>
	</g>
	<g>
		<path class="st3" d="M4181.6-5153.7c0,0,2.3,0.7,6.7,2c4.2,1.4,10.8,2.7,18.7,3.4c7.5,1.7,17.1,1.2,27.5,0.2
			c10.5-1.2,22.3-3.5,35.4-5.3c26.2-3.4,58.6-13.2,95.3-15.9c19-1.7,36-2.2,54.3-2.9c18.1-0.5,36.5-1.1,54.9-1.6
			c36.8,0.6,73.6,0.2,108.2,2.4c34.6,1.1,67.2,6.6,95.2,8.2c27.9,1.7,51.8,8.1,68.4,9.8c16.8,3.6,26.4,5.6,26.4,5.6
			s-8.9,4.2-24.5,11.5c-15.9,5.3-38.4,16.4-66.3,22.6c-27.8,6.1-60.4,15.8-95.7,20c-35.2,5.4-73.1,7-110.9,8.2
			c-18.9-0.3-37.9-0.7-56.5-1.7c-18.4-0.9-37.6-2.6-53.6-4.5c-33.3-3-66.1-7.9-95.9-12.3c-14.8-2.3-28.8-6.4-40.6-11.8
			c-11.8-5.6-21.4-11.6-28.6-17.1c-6.9-6.2-11.4-11.4-14.2-15.3C4183-5151.7,4181.6-5153.7,4181.6-5153.7z"/>
	</g>
	<g>
		<path class="st3" d="M4191.1-5119.8c0,0,7.3,1.6,20,4.3c5.7,2.2,13.2,3.7,21.7,5.5c8.4,1.9,17.5,4.3,27,7.4
			c4.7,1.7,9.6,3.2,14.7,4.8c5.2,1.3,10.6,2.7,16.1,4c10.8,3,22.6,5.3,33.9,9.2c23.4,6.1,47.1,14.7,71.9,21.3
			c24.1,8.3,48.8,15.3,71.9,23.6c23.2,7.3,44.7,18.3,64,24.5c19.2,6.4,35.1,16.4,46.6,20.9c11.5,6.3,18,9.9,18,9.9s-7,2.7-19.3,7.3
			c-12.2,2.6-30.1,10-51.4,11.3c-21.2,1.4-46.7,5.1-73.3,2.5c-26.9-1.4-54.9-8.1-82.7-15.6c-27.3-9.3-54.1-20.6-77.4-34.8
			c-11.7-7.1-22.5-14.7-32-23c-4.8-4.1-9.4-8.1-13.9-11.9c-4.3-4.1-8.5-7.9-12.6-11.5c-8.2-7-14.5-15.1-19.9-22.5
			c-5.4-7.2-9.7-13.9-13.4-19.1C4194.7-5113.2,4191.1-5119.8,4191.1-5119.8z"/>
	</g>
</g>
<g>
	<g>
		<path class="st3" d="M4068.8-5332.2c0,0-3.2-20.9-15.1-56.5c-13.9-34.2-33.9-85.3-73.8-137c-10.1-12.7-20.4-26.3-32.2-39.3
			c-11.3-13.6-24-26.6-37.3-40c-6.5-6.9-13.6-13.2-20.8-19.6c-7.3-6.4-14.6-12.9-22-19.4c-7.9-6-15.8-12.1-23.9-18.2
			c-8.1-6-16.2-12.4-25-17.7c-17.4-11-34.7-23-53.8-32.5c-9.4-5-19-9.9-28.5-14.9c-9.7-4.5-19.5-8.7-29.4-13
			c-39.4-17.5-80.4-30.9-121.3-43.8c-82.4-23.2-164.6-40.2-241.4-53.9c-76.5-14.6-148.2-23.9-208.2-37.8
			c-59.8-14-110.4-24.7-144.8-36.5c-17.6-5-30.9-10.2-40.3-13.3c-9.4-3.2-14.4-4.9-14.4-4.9s4.2,3.2,12.1,9.1
			c8,5.7,19.3,15.1,34.8,25.5c31.7,18.8,77.6,47.6,137.3,70.2c59.5,22.4,129.5,47.6,205.2,67.7c75.3,21.4,156.1,39.5,233.5,63.3
			c38.8,11.2,77.3,23,113.4,37.4c9.1,3.5,18.1,7.1,27.1,10.6c8.7,4,17.3,7.9,25.9,11.8c17.5,7.2,33.6,16.8,50.2,25
			c64.8,35.2,121.6,76.5,164.6,118.7c42.9,42.1,76.9,80.9,97.1,110.9C4059.2-5351.1,4068.8-5332.2,4068.8-5332.2z"/>
	</g>
	<g>
		<path class="st3" d="M4062.9-5295.6c0-0.1-0.2,0.3-0.7,0.2c-0.6-0.1-1.3-0.7-2-1.7c-1.4-2-3-5.2-5-9.5c-3.9-8.6-9.3-21.6-17-38
			c-16.8-31.4-41.2-78.9-85.5-124.5c-43.8-45.3-102.7-94.3-176.1-127.5c-72.5-34.4-153.7-55.5-233.5-73.3
			c-80.4-15.9-160-28.9-234-40c-73.8-12.1-142.6-21-199.7-36.2c-56.8-15-104.7-28.7-136-44.4c-16.1-6.9-28.7-13-36.9-17.8
			c-8.4-4.7-12.8-7.2-12.8-7.2s3.4,3.8,9.9,10.9c6.4,7.3,16.5,17.2,30,29.4c14.2,11.2,31.7,24.9,53.2,38.7
			c21.5,13.7,46.7,27.8,75.5,39.8c57.4,24.1,125.9,49.1,200.4,67c74.2,19.2,153.7,33.4,231.2,50.7c77.9,15.4,154,34,221.3,57.8
			c66.8,24.1,126.9,54.9,172.6,90.8c45.7,35.4,82.8,69.1,105.6,95.9c12.2,12.8,21.4,23.4,28,30.5c3.3,3.5,6,6.2,8,7.7
			c1,0.7,2,1.1,2.7,1.1C4062.6-5295.2,4062.9-5295.7,4062.9-5295.6z"/>
	</g>
	<g>
		<path class="st3" d="M4057-5259c-0.1-0.2-0.7,0.9-2.7,0.9c-2,0.1-5-1.7-7.7-4.6c-5.5-6-12.2-16.4-21-29.9
			c-18.8-25.4-44.6-65.8-89.1-102.2c-22.2-17.9-47.4-36.5-76.2-53.1c-28.6-16.9-61.4-30.9-94.7-42.1c-67-23.3-140-37-211.9-49.2
			c-72.3-10.1-143.8-18.9-210.4-25.7c-66.4-7.9-128.4-12.6-180.1-23.4c-25.8-5.5-49.4-10.4-70.4-15.4c-20.8-5.3-39.2-10.5-53.4-16.7
			c-7.6-2.3-13.9-5.2-19.7-7.4c-5.8-2.2-10.5-4.4-14.3-6.3c-7.7-3.8-11.9-5.8-11.9-5.8s3.2,3.3,9.1,9.6c3,3.2,6.7,7.1,11.4,11.3
			c4.7,4.2,9.9,9.4,16.4,14.5c13,9.8,29.3,21.3,49,33.2c19.7,11.6,42.9,23.4,69.1,33.3c52.3,19.5,114.4,40.3,181.7,54
			c67.1,14.9,138.9,24.9,209.4,36.8c70.8,9.9,140.3,21.7,203.6,35.8c31.7,7.6,61.1,14.8,88.5,24.9c27.5,9.7,52.8,21.4,75.1,34.4
			c44.5,25.9,81.5,51.3,105.9,71.8c12.9,9.5,23.2,17.3,31.3,21.4c4.1,2.1,7.6,2.7,10,1.9C4056.2-5257.8,4056.9-5259.2,4057-5259z"/>
	</g>
	<g>
		<path class="st3" d="M4051.1-5222.4c0,0-0.7,0.4-2.2,1.2c-1.5,0.6-4.1,1.3-7.3,0.1c-6.7-2.3-13.1-10-21.6-20.5
			c-17.9-19.4-41.2-54.5-85.4-81.1c-21.8-13.1-47.6-25.2-76.7-33c-14.5-3.9-29.8-6.9-45.5-8.4c-8.3-0.9-14.7-1.4-21.9-1.9
			c-7.1-0.5-14.2-0.9-21.4-1.4c-57.6-4.3-118.7-6.3-179.6-10.3c-60.9-2-121.5-6.1-178.1-9.3c-56.5-4.2-109.7-5.8-154.6-12.7
			c-44.6-7-82.9-11.1-109-18.2c-13.4-2.4-23.6-5.7-30.8-7.4c-7.2-1.9-11-2.9-11-2.9s3.1,2.5,8.8,7.1c5.9,4.4,14.2,11.9,25.7,19.8
			c23.7,14.2,58.1,36.6,103.5,52.3c45.2,15.4,98.6,33.2,157.1,43.2c58.4,11.3,121.2,16.8,183.8,20.9c62.7,2.1,125.2,2.6,183.5-0.9
			c7.3-0.4,14.5-0.8,21.7-1.2c6.9-0.5,13.6-1,20.4-1.4c12.2-1,24.1-1.1,35.8-0.6c23.3,1.1,45.5,5.6,65.2,13.1
			c39.5,14.5,73.3,33.5,96.9,48.2c6.3,3.3,12.1,6.1,17.4,8.2c5.3,2.1,10.5,3.3,14.4,2.9c4-0.1,6.8-2,8.4-3.4
			C4050.3-5221.6,4051.1-5222.4,4051.1-5222.4z"/>
	</g>
	<g>
		<path class="st3" d="M4045.2-5185.8c-0.1-0.2-2.5,1.8-7.9,3.2c-5.5,1.3-13.6,0.6-22.1-4.2c-18.1-7.1-41.2-30.5-79.1-46
			c-18.8-7.6-40.7-14.9-65.2-18.5c-12.2-1.9-25-2.8-38-2.5c-6.5,0-13.1,0.6-19.7,1.1c-5.6,0.5-11.2,1-16.9,1.6
			c-44.8,3.8-92.5,8.5-140.6,10.6c-47.9,4.1-96.1,5.4-141.4,8.1c-45.2,1.5-88,6.1-124.7,5.9c-36.6-0.1-68,3.3-89.9,2.7
			c-22.1,1-35.1,1.3-35.1,1.3s11.4,6,31.3,16.5c20.6,7.9,50.1,22.9,87.4,31.4c37.2,8.5,80.9,20,128.6,24.1
			c47.6,5.3,98.7,5.2,149.7,2.9c50.9-4.2,101.8-10.8,148.6-22.8c5.8-1.4,11.5-2.9,17.1-4.3c4.6-1.3,9.2-2.6,13.8-3.7
			c9.2-2.2,18.3-4,27.4-5c18.2-2.3,36.1-1.9,53,0.9c33.6,5.1,65.4,12.6,90.2,13.6c12.8-0.2,22.4-4.8,27-9.1
			C4043.6-5182.7,4045-5186,4045.2-5185.8z"/>
	</g>
	<g>
		<path class="st3" d="M4039.3-5149.3c0,0-2.4,1-6.8,2.9c-4.3,2-10.9,4.2-19.1,5.8c-7.6,2.7-17.8,3.3-28.8,3.5
			c-11.2,0-23.7-1-37.6-1.3c-27.8-0.4-62.8-6.8-101.5-5.2c-20,0.5-37.9,2-57.1,3.5c-19,1.6-38.3,3.3-57.5,4.9
			c-38.4,5.1-76.9,9-112.8,15.4c-36,5.3-69.5,14.9-98.5,20c-29,5.1-53.2,14.6-70.3,18.4c-17.2,5.7-27,9-27,9s9.8,3.3,27,9.1
			c17.2,3.6,42.1,12.5,72,15.7c29.8,3.1,65,9.3,102.4,9.5c37.5,1.4,77.2-1.5,116.9-4.7c19.8-2.6,39.5-5.3,58.9-8.5
			c19.2-3.1,39-7.2,55.5-11.1c34.5-7.1,68.2-16.2,98.8-24.3c15.2-4.1,29.3-10.2,41-17.2c11.7-7.3,21-14.7,27.8-21.3
			c6.4-7.3,10.6-13.3,13-17.7C4038-5147,4039.3-5149.3,4039.3-5149.3z"/>
	</g>
	<g>
		<path class="st3" d="M4033.4-5112.7c0,0-7.4,2.5-20.4,6.9c-5.7,2.9-13.4,5.5-22,8.4c-8.6,3-17.8,6.6-27.3,10.9
			c-4.7,2.3-9.7,4.5-14.8,6.7c-5.3,2-10.8,4-16.4,6.1c-11,4.4-23,8.2-34.3,13.7c-23.7,9.2-47.5,21-72.6,30.8
			c-24.3,11.5-49.1,21.9-72.3,33.3c-23.4,10.4-44.6,24.5-64,33.3c-19.3,9-34.7,21.4-46.2,27.4c-11.2,7.9-17.6,12.5-17.6,12.5
			s7.6,2,21,5.4c13,1.3,32.7,6.8,55,5.6c22.3-1,49.4-0.3,77-6.2c27.9-4.7,56.4-15,84.6-26.1c27.4-13,54.1-28,76.8-45.6
			c11.3-8.8,21.8-18,30.7-27.9c4.5-4.8,8.9-9.6,13.1-14.1c4-4.8,7.9-9.3,11.8-13.5c7.8-8.3,13.4-17.6,18.1-25.9
			c4.8-8.2,8.4-15.7,11.7-21.6C4030.4-5105.4,4033.4-5112.7,4033.4-5112.7z"/>
	</g>
</g>
<g>
	<path class="st4" d="M3915.7-4950.5c4.6-2.7,19.4-16.5,25.5-19.8c8.1-4.3,29.8-10.2,29.8-10.2l-11.5,14.6L3915.7-4950.5z"/>
	<path class="st4" d="M4335.4-4952.4c-4.6-2.7-11.2-15.8-20.9-20c-6.4-2.8-29.9-8-29.9-8l11.5,14.6L4335.4-4952.4z"/>
</g>
<path class="st5" d="M4164.1-5573.6c-4.4,15.2-8,34.8-7.6,45.7c0.6,19,17.1,34.3,30.5,38.1c13.3,3.8,82.5,4.5,97.8,34.3
	c15.2,29.8,8.2,113-12.7,173.9c-21,60.9-47.5,156.8-47.6,179c-0.1,22.2,17.8,58.4,34.9,86.4c-7,48.2-82,58.4-129.6,58.4l-1,0.6
	c-47.6,0-122.6-15.2-129.5-63.4c17.1-27.9,35.2-58.7,35.2-80.9c-0.1-22.2-26.5-118.6-47.5-179.5s-27.9-144.3-12.7-174.2
	c15.2-29.8,84.4-30.6,97.8-34.4c13.3-3.8,29.8-19.1,30.5-38.1c0.4-11-3.2-30.5-7.6-45.7L4164.1-5573.6z"/>
<path class="st1" d="M4163.8-5540c-1.9,6.5-3.7,13.9-5,20.9c-11.2,3-27.7,3.6-32.8,3.6c-4,0-15.8-0.4-26.2-2.1
	c-1.4-7.6-3.2-15.5-5.3-22.5L4163.8-5540z"/>
<path class="st1" d="M4129.5-5326c25.2-58,110.2-80.5,150-23.5c22.2,31.8,5.7,65.4-14.9,92.8c-21,60.9-40.8,132.5-40.9,154.7
	c-0.1,22.2,22.8,56.3,39.9,84.3c-7,48.2-87,65.7-134.6,65.7s-127.6-17.5-134.6-65.7c17.1-27.9,40-62,39.9-84.3
	c-0.1-22.2-19.9-93.8-40.8-154.7c-20.5-27.3-37-60.9-14.8-92.8c39.8-57,124.8-34.5,150,23.6H4129.5z"/>
<path class="st5" d="M4207.3-5733.4c-8.3-10.7-19.2-6.6-32.9-14.3c-21.6-12.2-25.2-39.9-29.8-38.5c-3.2,1,1.9,13.3-3.7,27.3
	c-4.6,11.5-13.8,17.8-27.3,26.7c-13.8,9.1-21.4,11-41,20.5c-14.3,7-25.5,13.3-32.3,17.4l0,0c0,0,2.4,16.7,5,31
	c1.8,9.7,3.4,18.6,6.2,29.2c4.4,16.4,6.6,24.6,11.2,32.3c9.1,15.4,21.8,23,39.2,33.5c14,8.5,20,9.3,24.1,9.4
	c6.6,0.1,12.2-1.8,24.5-8.7c20.9-11.7,31.4-17.5,39.4-27.3c11.4-13.8,15-27.9,18.6-42.2c2.2-8.7,3.1-18.4,5-37.9
	c1.7-18.5,1.7-28.1,0-38.5C4211.9-5723.5,4211-5728.5,4207.3-5733.4z"/>
<path class="st5" d="M4042.2-5437.8c7.4-19.6,13.5-52.1-17.3-45c-84.1,19.2-199.5,125.1-234,158.6
	c-34.5,33.5-121.1,141.8-123.9,162.3c-5.4,40.5,77.8,121.4,123.4,163c45.7,41.6,105.9,84.7,112,90.8c6.1,6.1,62.3,44,70.9,39.6
	c6.4-3.3-31.1-33.6-26.2-38.8c3.1-3.3,61.3,11.4,63.4,6.4c2.6-6.4-49.5-21-47.6-26.4c1.5-4.4,62.8,16.2,64.5,10
	c2.9-10-59.9-26.8-60.7-35.5c-0.7-7.6,51.5-15.6,50.5-21.7c-1-6.1-48.8,4.8-71.8,12.1c-21.9,6.9-42.2,14-49,11.6
	c-10.9-3.9-96.8-100.3-108.8-115.6c-18.3-23.3-53.5-74.4-61.9-86.3c-8.5-12,219.2-203.3,250.6-223.9
	C4018.2-5404.2,4033.7-5416.1,4042.2-5437.8z"/>
<path class="st5" d="M4213.7-5437.8c-7.4-19.6-13.5-52.1,17.4-45c84.1,19.2,199.4,125.2,233.9,158.7
	c34.5,33.5,121,141.9,123.8,162.4c5.4,40.5-77.8,121.3-123.5,162.9c-45.7,41.6-105.9,84.6-112,90.7s-62.4,44-70.9,39.5
	c-6.4-3.3,31.1-33.6,26.2-38.8c-3.1-3.3-61.3,11.4-63.4,6.4c-2.6-6.4,49.5-20.9,47.6-26.4c-1.5-4.4-62.8,16.2-64.5,10
	c-2.9-10,59.9-26.8,60.7-35.5c0.7-7.6-51.5-15.6-50.5-21.7c1-6.1,48.8,4.9,71.8,12.2c21.9,7,42.2,14.1,49,11.7
	c10.9-3.9,96.9-100.3,108.9-115.5c18.3-23.3,53.6-74.3,62-86.2c8.5-12-219.1-203.4-250.5-224.1
	C4237.7-5404.2,4222.2-5416,4213.7-5437.8z"/>
<g>
	<path class="st6" d="M3828.5-3968.4c81.1-110.4,215.6-353.5,266.4-715.1c0,0-97.2,368-316,650.3c-42,54.2-246.8,320.8-416.5,581.4
		c78.9,46.5,141.7,8.7,203.5-25.9C3594.1-3588,3665.8-3746.9,3828.5-3968.4z"/>
	<path class="st6" d="M4146.7-4903.1c-3.6-31.4-7.9-62.7-12.2-94c0-8.5-0.2-17-0.5-25.5c-0.1-2.1-0.2-4.1-0.3-6.2
		c-0.3,1.6-0.6,3.1-0.9,4.7c-2.3,11.2-5.2,22.3-8.5,33.3c-7,22.9-15.9,45.1-26,66.3c-8,35.9-18,71.5-29.6,106.4
		c-15.5,47-32.7,93.9-51.2,140.4c-12.1,31.8-25.5,63.3-39.8,94.3c-17.6,39.5-36.1,78.6-55.4,116.8c-14.7,29-30.5,57.5-47.3,85.4
		c-7.1,12.7-14.4,25.4-21.9,37.9c-2.3,2.7-4.6,5.3-7,8c-36.4,55.3-77,107.8-121.6,156.7c-79.4,87.3-170.5,159.1-261.6,233.5
		c-78.1,63.8-158.9,132.1-250.5,176.9c6.4,19.3,10.7,41.2,12.2,66.2c1.8,31.3,0.8,66.6,11.3,103.8
		c71.1-61.9,188.7-169.4,373.7-350.9c430.8-422.8,489-874.2,510.6-934.2c0,0,9.5,423.7-154.1,773.4
		c-105.8,226.1-164.6,443-195.5,614.2c46.9,23.8,86.2,64.5,117,111.2c8,12.2,18.4,22.5,30.5,31.1c4.8,3.5,9.9,6.7,15.3,9.5
		c-11.9-57.2-12.1-117.9-9.5-174.1c6-125.3,32.8-250,66.1-370.5c36.6-132.4,87.1-260.8,116.6-395c29.1-132.7,41.3-268.8,45.9-404.4
		C4154.8-4760.1,4154.9-4831,4146.7-4903.1z"/>
</g>
<g>
	<g>
		<path class="st1" d="M2816.1-4495.9c407.6,122.2,923.5-187.5,923.5-187.5c-450,225-772.3,3.6-882.4-93.1
			c-41.9,46.4-70.9,106.7-60.9,182.2C2801.1-4557.4,2808.3-4525.1,2816.1-4495.9z"/>
		<path class="st1" d="M4124.4-5097.7c0,0-1.9,2.6-5.4,7.2c-1.4,1.9-3.1,4.1-5.1,6.6c-2.3,2.9-4.9,6.2-7.8,9.9
			c-4.2,5.2-9.1,11.2-14.6,17.8c-6.3,7.5-13.4,15.9-21.4,24.9c-0.5,0.6-1.1,1.2-1.6,1.8c-1.6,1.8-3.3,3.7-4.9,5.6
			c-3.5,4-7.2,8-11,12.2c-122.4,134.1-387.2,371-682.3,305.5c-31.8-5.4-63.2-15.2-94.1-30.4c-5.4-2.7-10.7-5.4-16.1-8.3
			c-35.4-19.1-69.6-42.8-102.9-64.8c-2.7-1.8-5.4-3.6-8.1-5.5c-17.7-12.2-34.7-25.9-48.8-41.9c-14.6-13.6-29.3-28.2-43.9-43.9
			c0,0-57,18.1-117.9,57c449.1,480.1,977.1,37.9,977.1,37.9c-280,304.8-723.3,431.9-1057.7,462.8c2.3,14.4,3.5,28.8,3.2,43.4
			c-0.2,9.7-1.1,19.5-2.9,29.5c182.6-3.4,366.1-61.9,530.8-133.9c116.6-50.9,229.3-111.4,337.6-178.1
			c100.3-61.7,188.8-142.1,256.9-238.3c33.1-46.8,60.7-96.4,84.4-148.1c5-10.9,9.9-21.9,14.5-33c1.1-2.7,2.3-5.3,3.4-8
			c3.9-9.4,7.6-18.9,11.3-28.4c3.8-5.2,7.5-10.4,11.2-15.6c2.3-3.3,4.6-6.6,6.9-9.9c1-1.5,2.1-3,3.1-4.5c1.1-1.6,2.3-3.3,3.4-4.9
			c0.9-1.3,1.8-2.6,2.7-4c3.1-4.5,4.5-9,4.8-13.1C4127.8-5092.6,4126.1-5095.1,4124.4-5097.7z"/>
	</g>
	<g>
		<path class="st7" d="M3924.2-4617.5c-500.2,470.5-976.8,624.4-1176.1,671.2c18.1,59.9,66.2,111.9,130.3,148.3
			c7.4,4.2,15.6,8.4,24.2,12.6C3613.1-4045.9,3924.2-4617.5,3924.2-4617.5z"/>
		<path class="st7" d="M4129.6-5089.8c-0.1-0.2-0.1-0.3-0.2-0.5c0,0.1,0,0.2,0,0.3c-0.3,4.2-1.8,8.6-4.8,13.1
			c-0.9,1.3-1.8,2.6-2.7,4c-1.1,1.6-2.2,3.3-3.4,4.9c-1,1.5-2.1,3-3.1,4.5c-2.3,3.3-4.6,6.6-6.9,9.9c-3.7,5.2-7.4,10.4-11.2,15.6
			c-3.7,9.5-7.4,19-11.3,28.4c-1.1,2.7-2.3,5.3-3.4,8c-4.7,11.1-9.5,22.1-14.5,33c-23.7,51.6-51.3,101.3-84.4,148.1
			c-68.1,96.2-156.6,176.6-256.9,238.3c-108.3,66.7-221,127.2-337.6,178.1c-164.7,71.9-348.2,130.5-530.8,133.9
			c-7,40.6-27.2,84.8-69.1,140c-2.3,3-4.3,5.9-6.4,8.9c866-129.8,1228.2-667.1,1228.2-667.1c-172.5,576.3-626.5,920.3-959.4,1102.5
			c15.5,18.9,28.5,41.3,37.5,68.4c0.6,1.9,1.2,3.9,1.8,5.8c100.9-45.7,190.9-117.3,277.7-184c101.3-77.8,202.5-152.8,291.5-245.1
			c49.9-51.7,95.7-107.4,137-166.2c11.3-16.1,22.2-32.4,32.8-48.9c19.1-29.7,37.2-60.2,54.1-91.2c22.3-40.9,43.6-82.7,63.9-125
			c16-33.4,31.5-67.1,46.2-101.1c21.6-49.8,41.7-100.2,60.1-150.7c13.7-37.6,25.7-75.8,35.6-114.6c11.7-22.7,22.1-46.6,30.4-71.2
			c4-11.8,7.4-23.8,10.3-35.9c0.4-1.7,0.8-3.4,1.2-5c4.6-20.8,7.4-41.9,7.8-63.1c0-0.2,0-0.3,0-0.5c0.1-7.3,0-14.6-0.5-21.9
			C4138-5054.1,4134.9-5072.1,4129.6-5089.8z"/>
	</g>
	<g>
		<path class="st6" d="M4209.6-4359.4c0,0,2.9-148.7-10.1-222.4c0,0,9.2,316.1-18,478.8c-24.3,145.3-71.1,605.3-5.4,892.1
			c65.1-87.4,123.7-150.6,236.2-137.2C4345.8-3533.5,4236-3899.9,4209.6-4359.4z"/>
		<path class="st6" d="M3943.9-3102.8c19.5,1.8,40.2,1.3,60.3-1.4c-12.5-120.3-25.6-385.6,52.2-683c0,0,149-452.8,115.8-1020.9
			c0,0,59.6,266.7,69.8,428.2c9,142.5,83.4,686.4,334.1,1070.1c53.8,7.2,101.9,2.8,144.8-16.1c4.1-1.8,8.1-3.7,12.1-5.7
			c-9-8.9-17.5-17.7-25.6-26.2c-68.3-71.9-125.2-155.6-174.7-241.3c-63-109-104.4-231.6-140.9-351.6
			c-41.7-136.9-73.2-276.8-101.2-417.1c-24.6-122.8-41.4-246.9-65.7-369.7c-12.2-61.6-27.2-122.5-46.5-182.3
			c-10.4-32.3-25.2-63-38.8-94.1c-0.4,21.1-3.2,42.2-7.8,63.1c0,2.2,0.1,4.5,0.1,6.7c0,9.2,0,18.5-0.3,27.7
			c3.6,34.1,7.3,68.2,10.2,102.4c6.6,78.5,4.3,155.5-0.8,234c-9.4,147-27,294.4-62.9,437.5c-36.3,144.8-95.3,282.6-139.3,425.1
			c-40,129.8-73.2,264.3-83.7,400.1c-4.7,60.9-6.4,126.9,4.7,189.3C3884.1-3114,3913.2-3105.7,3943.9-3102.8L3943.9-3102.8"/>
	</g>
	<g>
		<path class="st8" d="M4554.7-3942.9c-88.1-234.2-277.4-761.6-288.4-832.2c0,0,470.3,888.3,1101.7,869.9c0.9-8.3,1.5-17,1.7-26.1
			c0,0,0,0,0,0c0.2-2.5,0.2-5.1,0.1-7.6c-0.1-1.3-0.1-2.5-0.2-3.8c-0.1-1.5-0.2-3.1-0.2-4.6c-0.2-4.6-0.4-9.2-0.6-13.8
			c0-0.1,0-0.2,0-0.3c-0.8-13.8-2.3-28.4-4.6-44c-0.4-2.4-0.8-4.9-1.2-7.4c-171.8-2.2-343.5-92.6-481.4-185.6
			c-93.3-62.9-180-136.4-259.9-215.6c-92.5-91.7-171-194.8-245.9-301.2c-76.5-108.8-150.7-219.5-236.7-321
			c0.5,7.3,0.6,14.6,0.5,21.8c0,0.2,0,0.3,0,0.5c13.6,31.1,28.4,61.8,38.8,94.1c19.3,59.7,34.3,120.7,46.5,182.3
			c24.3,122.8,41.1,246.9,65.7,369.7c28.1,140.3,59.5,280.2,101.2,417.1c36.6,120,77.9,242.6,140.9,351.6
			c49.5,85.7,106.4,169.4,174.7,241.3c8.1,8.5,16.6,17.4,25.6,26.2c48.6-25,90.3-69.5,125.6-137.8c1-2,2-3.9,3-5.8
			C4751.9-3610.4,4606.8-3804.4,4554.7-3942.9z"/>
		<path class="st8" d="M4378.8-4546.1c0,0,170.6,580.5,547.5,938.8c33.2-59.6,70-86.8,190.4-110.5c53.8-10.6,100-22.4,137.7-38.9
			C5042.8-3851.2,4674.4-4072.3,4378.8-4546.1z M4648-4114.5c-1-1.9-2-3.7-2.9-5.6c-0.6-1.2-1.3-2.4-1.9-3.6
			c0.8,0.9,1.5,1.8,2.4,2.6c1.4,1.5,2.9,2.8,4.4,4C4649.3-4116.3,4648.6-4115.4,4648-4114.5z"/>
	</g>
	<g>
		<path class="st1" d="M4592.7-4599.4c0,0,257.9,203.3,681.3,188.7c55.5-62.5,142.9-158.9,116.3-281.8
			C5200.6-4591.1,4906.3-4490.8,4592.7-4599.4z"/>
		<path class="st1" d="M5245.6-4237.7c-223.8-43.8-523.4-161.9-793.2-465.1c0,0,450.2,309.8,849.8-141.2
			c-23.9-25.2-53-51.1-88.4-77.7c0,0-38.2,43.2-104,92.7l-97.7,63.4c-209.1,115.2-551.3,176.2-882.4-324.3
			c5.3,17.7,8.3,35.7,9.5,53.7c86,101.5,160.2,212.2,236.7,321c74.8,106.3,153.4,209.4,245.9,301.2
			c79.9,79.2,166.6,152.6,259.9,215.6c137.9,93,309.5,183.4,481.4,185.6c-0.7-4.2-1.3-8.3-2.1-12.5
			C5350.6-4082.7,5277.6-4157.3,5245.6-4237.7z"/>
	</g>
</g>
<g>
	<polygon class="st0" points="4143.2,-5708.7 4147.1,-5719.1 4160.9,-5724.6 4174.6,-5730.3 4182.7,-5723.4 4191.1,-5716.3 
		4169.4,-5721.1 	"/>
</g>
<g>
	<polygon class="st0" points="4110.5,-5706.2 4106.5,-5716.6 4092.7,-5722.1 4079,-5727.9 4070.9,-5721 4062.5,-5713.8 
		4084.2,-5718.7 	"/>
</g>
<path class="st0" d="M4143.1-5687c0.6,0.4,2.6-4.3,7.9-8c1.5-1,5.8-4,11.8-4.1c2.6-0.1,8.4-0.2,11.6,3.6c1.7,2,1.7,3.9,3.2,4.2
	c1.9,0.3,4-2.4,4.9-4.7c0.8-2.1,0.9-4.6,0.2-4.9c0,0-0.4-0.2-3.9,4.2l0,0c0,0-4.8-3.5-9.1-4.9c-5.1-1.7-9.6-0.6-11.8,0
	c-2.6,0.7-8.1,2-11.8,7C4143.5-5691.5,4142.5-5687.4,4143.1-5687z"/>
<path class="st0" d="M4109.9-5683.7c-0.6,0.4-2.6-4.3-7.9-8c-1.5-1-5.8-4-11.8-4.2c-2.6-0.1-8.4-0.2-11.6,3.6
	c-1.7,2-1.7,3.9-3.2,4.2c-1.9,0.3-4-2.4-4.9-4.7c-0.8-2.1-0.9-4.6-0.2-4.9c0,0,0.4-0.2,3.9,4.2c0,0,4.8-3.5,9.1-4.9
	c5.1-1.7,9.6-0.6,11.8,0c2.6,0.7,8.1,2,11.8,7C4109.5-5688.1,4110.5-5684.1,4109.9-5683.7z"/>
<polygon class="st0" points="4154.2,-5696.1 4154.9,-5688.1 4159.6,-5684.4 4166.2,-5685.5 4168.4,-5689.4 4167.7,-5698.7 
	4161.8,-5701.1 4154.3,-5699.6 "/>
<polygon class="st0" points="4086.2,-5694.7 4086,-5686.6 4090.3,-5682.4 4097,-5682.7 4099.6,-5686.3 4099.9,-5695.6 
	4094.3,-5698.7 4086.6,-5698.1 "/>
<path class="st0" d="M4101-5600.9c0,0.2,2.2,0.3,4.2-0.9c0.3-0.2,0.9-0.6,1.9-1.6c1.6-1.7,2.2-2.9,3-4.1c1-1.5,2.9-4.2,5.7-4.8
	c1.2-0.3,3.5-0.3,5.5,0.7c0.9,0.5,1.4,1,2.4,0.9c1,0,1.5-0.6,2.8-1.4c0,0,1.6-0.8,3.1-1.2c2.2-0.5,4.2,1.1,7,3.5
	c4.2,3.5,4.6,5.2,7.7,6.5c2.3,0.9,4.2,0.8,4.2,0.9c0,0.2-4.6,0.2-9.6-0.7c-2.6-0.5-3.9-0.7-5.3-1.2c-2.8-1-3.7-2-5.5-1.6
	c-1.8,0.4-1.6,1.6-3.3,1.8c-2.3,0.4-3.3-1.9-6.1-1.8c-1.3,0-2.2,0.5-3.1,0.9C4108.9-5601.8,4100.9-5601.2,4101-5600.9z"/>
<g>
	<path class="st7" d="M4116-5637.8c1.9,1.4,3.8,2.8,5.6,4.3l0,0c2,0.2,3.9,0.4,5.9,0.6l-0.1,0l6.5-2.4l0,0c0.8-1.1,1.7-2.2,2.5-3.4
		c-0.8,1.2-1.6,2.3-2.4,3.5l0,0l0,0l-6.5,2.5l0,0l0,0c-2-0.2-3.9-0.4-5.9-0.7l0,0l0,0C4119.7-5634.8,4117.8-5636.3,4116-5637.8z"/>
</g>
<text transform="matrix(1.0491 2.694631e-04 -2.568441e-04 1 -5484.0303 -3191.1946)" class="st9" style="font-family:'Modern-Regular'; font-size:1018.4713px;">Going to heaven</text>
<g>
	<g>
		<linearGradient id="SVGID_1_" gradientUnits="userSpaceOnUse" x1="-8869.8281" y1="-4699.1709" x2="-6070.334" y2="-4699.1709">
			<stop  offset="3.950727e-02" style="stop-color:#EDDAF0"/>
			<stop  offset="0.1602" style="stop-color:#BEB0D5;stop-opacity:0.9707"/>
			<stop  offset="0.4335" style="stop-color:#484793;stop-opacity:0.9044"/>
			<stop  offset="0.4515" style="stop-color:#40408E;stop-opacity:0.9"/>
			<stop  offset="0.6934" style="stop-color:#3E3E8B"/>
			<stop  offset="0.9525" style="stop-color:#001449"/>
		</linearGradient>
		<path class="st10" d="M-6070.3-4052.4c0,0-10.5-49.8-43.7-133.8c-37.7-80.5-92.5-200.9-195.1-319.9
			c-25.9-29.3-52.4-60.6-82.4-90.4c-28.8-31.3-61.2-60.9-94.8-91.3c-16.4-15.7-34.4-30-52.6-44.4c-18.3-14.5-36.8-29.1-55.5-43.9
			c-19.7-13.4-39.6-27-59.8-40.7c-20.3-13.4-40.5-27.7-62.5-39.2c-43.2-24.3-86.3-50.9-133.6-71.2c-23.4-10.7-46.8-21.5-70.5-32.3
			c-23.9-9.5-48.1-18.4-72.4-27.5c-97.1-37-197.3-64.1-297.2-89.9c-201.2-45.2-401-75.6-587.3-98.7
			c-185.8-25.2-359.4-38.4-505.5-64.3c-145.6-25.9-268.7-45.2-352.8-69.3c-42.8-9.7-75.6-20.7-98.6-26.7
			c-22.9-6.6-35.2-10.1-35.2-10.1s10.5,7.1,30.2,20.3c20,12.8,48.5,33.9,87,56.9c78.6,41.2,192.6,104.5,339.1,151.1
			c146,46.2,317.5,97.8,502.1,136.4c183.9,41.9,380.4,74.9,569.6,122.3c94.7,22,188.9,45.5,277.5,75.5c22.3,7.3,44.4,14.6,66.5,21.9
			c21.4,8.4,42.6,16.8,63.7,25.1c43,15,83,36,123.9,53.7c160.4,76.3,302.3,168.2,411.1,264.3c108.5,95.7,195.4,184.7,247.7,254.3
			C-6095.8-4096.7-6070.3-4052.4-6070.3-4052.4z"/>
	</g>
	<g>
		<linearGradient id="SVGID_2_" gradientUnits="userSpaceOnUse" x1="-8885.9707" y1="-4515.1357" x2="-6079.8511" y2="-4515.1357">
			<stop  offset="3.950727e-02" style="stop-color:#EDDAF0"/>
			<stop  offset="0.1602" style="stop-color:#BEB0D5;stop-opacity:0.9707"/>
			<stop  offset="0.4335" style="stop-color:#484793;stop-opacity:0.9044"/>
			<stop  offset="0.4515" style="stop-color:#40408E;stop-opacity:0.9"/>
			<stop  offset="0.6934" style="stop-color:#3E3E8B"/>
			<stop  offset="0.9525" style="stop-color:#001449"/>
		</linearGradient>
		<path class="st11" d="M-6079.9-3963.7c-0.1-0.2-0.4,0.8-1.8,0.6c-1.3-0.1-3.1-1.6-5-3.8c-3.7-4.6-7.9-12-13.2-22.2
			c-10.6-20.3-25.2-50.8-45.7-89.2c-44.5-73.4-109.1-184.3-221.6-288.5c-111.2-103.3-259-213.6-439.8-284.1
			c-178.8-73.4-376.7-113.7-570.9-146.4c-195.4-27.9-388.4-48.9-567.8-66.1c-178.9-19.7-345.7-32.1-484.9-61.5
			c-138.6-28.8-255.4-55.7-332.6-89.3c-39.6-14.5-70.6-27.6-90.9-38.1c-20.7-10.2-31.7-15.6-31.7-15.6s8.8,8.7,25.2,24.9
			c16.3,16.7,41.8,39.3,76,66.9c35.5,25.2,79.4,55.8,132.8,86.2c53.4,30.1,115.9,60.9,186.7,86.1
			c141.2,50.5,309.1,101.9,490.4,135.5c180.8,36.7,373.8,60.6,562.5,92.3c189.3,27,374.6,61.9,539.5,110.6
			c163.7,49.3,312.1,115.8,426.7,196.2c114.5,79.3,208,155.6,266.1,217.2c30.9,29.2,54.4,53.6,71.2,69.8
			c8.4,8.1,15.2,14.2,20.3,17.5c2.6,1.6,4.8,2.5,6.5,2.3C-6080.4-3962.7-6079.9-3963.8-6079.9-3963.7z"/>
	</g>
	<g>
		<linearGradient id="SVGID_3_" gradientUnits="userSpaceOnUse" x1="-8695.5977" y1="-4261.3628" x2="-6089.3672" y2="-4261.3628">
			<stop  offset="3.950727e-02" style="stop-color:#EDDAF0"/>
			<stop  offset="0.1602" style="stop-color:#BEB0D5;stop-opacity:0.9707"/>
			<stop  offset="0.4335" style="stop-color:#484793;stop-opacity:0.9044"/>
			<stop  offset="0.4515" style="stop-color:#40408E;stop-opacity:0.9"/>
			<stop  offset="0.6934" style="stop-color:#3E3E8B"/>
			<stop  offset="0.9525" style="stop-color:#001449"/>
		</linearGradient>
		<path class="st12" d="M-6089.4-3874.9c-0.2-0.4-1.6,2.2-6.4,2.5c-4.7,0.6-12.3-3.4-19-10.1c-14.1-13.7-31.5-38-54.3-69.2
			c-48.5-58.8-115.7-152.6-227.3-234.3c-55.6-40.3-118.6-81.7-190-117.9c-71-36.9-151.5-66.5-233.1-89
			c-164.2-47.4-341.4-71.1-516-91.1c-175.2-15.1-348.2-27-509.3-34.9c-160.6-10.6-310.3-13.7-436.1-33.1
			c-62.7-9.8-120.2-18.6-171.4-27.9c-50.8-10-95.5-20.2-130.6-33.3c-18.5-4.7-34.2-10.6-48.3-15.4c-14.2-4.6-25.9-9.3-35.3-13.4
			c-19.1-8-29.2-12.3-29.2-12.3s8,7.6,23.1,21.9c7.5,7.3,17,16.1,28.9,25.6c11.8,9.6,25.1,21.4,41.2,32.7
			c32.6,21.9,73.3,47.4,122.1,73.5c49,25.4,106.2,50.8,170.4,71.2c128.4,40.3,280.2,82.3,443.8,106.7
			c163.2,27.3,337.2,42.1,508.2,61.6c171.5,14.8,340.2,34.2,494.1,60.1c77.2,14.3,148.8,27.8,216,48.5
			c67.3,19.8,129.7,44.6,184.9,73.1c110.3,56.6,202.7,113,263.9,159.1c32.3,21.2,58,38.6,78.1,47.4c10.2,4.5,18.7,5.5,24.2,3.3
			C-6091.2-3871.8-6089.6-3875.4-6089.4-3874.9z"/>
	</g>
	<g>
		<linearGradient id="SVGID_4_" gradientUnits="userSpaceOnUse" x1="-8397.8193" y1="-3965.2007" x2="-6098.8838" y2="-3965.2007">
			<stop  offset="3.950727e-02" style="stop-color:#EDDAF0"/>
			<stop  offset="0.1602" style="stop-color:#BEB0D5;stop-opacity:0.9707"/>
			<stop  offset="0.4335" style="stop-color:#484793;stop-opacity:0.9044"/>
			<stop  offset="0.4515" style="stop-color:#40408E;stop-opacity:0.9"/>
			<stop  offset="0.6934" style="stop-color:#3E3E8B"/>
			<stop  offset="0.9525" style="stop-color:#001449"/>
		</linearGradient>
		<path class="st13" d="M-6098.9-3786.2c0,0-1.7,1.1-5.1,3.2c-3.4,1.7-9.6,3.7-17.6,1.1c-16.3-4.7-32.7-22.4-54.5-46.6
			c-45.6-44.4-106.1-125.7-215.7-184c-54.1-28.6-117.7-54.5-188.6-69.6c-35.4-7.5-72.5-12.9-110.4-14.4c-20-1.1-35.5-1.4-52.9-1.8
			c-17.1-0.2-34.3-0.5-51.7-0.7c-139-3-286.3,0.2-433.1-1.6c-146.8,3.1-292.9,0.8-429.6,0.5c-136.4-2.9-264.6,0-373.3-10.7
			c-108.1-11.1-200.9-16.1-264.4-29.8c-32.6-4-57.4-10.7-75-13.8c-17.5-3.6-26.9-5.5-26.9-5.5s7.7,5.5,22.2,15.9
			c14.7,9.9,35.7,26.8,64.5,44.4c58.7,31.1,144.5,80.5,255.6,112.4c110.6,31.2,241.3,67.1,383.4,83.8
			c141.8,19.7,293.6,24.9,444.6,26.7c151-3,301.3-9.8,441.2-25.7c17.5-1.9,34.8-3.8,52-5.7c16.4-2,32.7-4,48.8-6
			c29.2-4.1,57.9-5.7,86-5.9c56.2-0.3,110.2,7.5,158.6,23c96.8,29.9,180.5,71.1,239.3,103.4c15.5,7.1,29.8,13.2,42.9,17.5
			c13.1,4.5,25.6,6.5,34.9,5.2c9.6-0.9,16.2-5.7,19.8-9.3C-6100.7-3784.1-6098.9-3786.2-6098.9-3786.2z"/>
	</g>
	<g>
		<linearGradient id="SVGID_5_" gradientUnits="userSpaceOnUse" x1="-7989.9517" y1="-3688.7083" x2="-6108.4004" y2="-3688.7083">
			<stop  offset="3.950727e-02" style="stop-color:#EDDAF0"/>
			<stop  offset="0.1602" style="stop-color:#BEB0D5;stop-opacity:0.9707"/>
			<stop  offset="0.4335" style="stop-color:#484793;stop-opacity:0.9044"/>
			<stop  offset="0.4515" style="stop-color:#40408E;stop-opacity:0.9"/>
			<stop  offset="0.6934" style="stop-color:#3E3E8B"/>
			<stop  offset="0.9525" style="stop-color:#001449"/>
		</linearGradient>
		<path class="st14" d="M-6108.4-3697.4c-0.2-0.4-5.9,4.7-18.5,8.7c-13,3.9-32.6,3.2-53.7-7.2c-44.5-14.7-103-68-196-100.5
			c-46.3-15.7-99.8-30.7-159.1-36.2c-29.6-3-60.4-3.4-91.7-1.2c-15.7,0.9-31.4,3-47.2,5.3c-13.4,2-26.9,3.9-40.5,5.9
			c-107.2,14.9-221.4,32.3-336.7,43.4c-114.7,16-230.4,25.3-339,37.5c-108.6,9.4-210.9,25.9-299.1,30.1
			c-88,4.5-163.2,16.6-215.9,18.1c-53.1,5.4-84.2,7.5-84.2,7.5s28.2,13,77.5,35.7c50.6,16.4,123.4,48.7,214.2,64.4
			c90.5,15.7,197.2,37.6,312.3,41.4c115.2,6.7,237.9-0.3,360.3-12.3c121.8-16.7,243.3-38.9,354.3-73.9c13.7-4.2,27.2-8.3,40.6-12.5
			c11-3.6,21.9-7.5,32.8-10.6c21.8-6.6,43.6-12,65.3-15.7c43.4-7.8,86.7-9.1,127.5-4.7c81.5,8.1,159,21.9,218.8,21.2
			c30.8-2.2,53.2-14.3,63.7-25.3C-6111.7-3689.8-6108.8-3697.8-6108.4-3697.4z"/>
	</g>
	<g>
		<linearGradient id="SVGID_6_" gradientUnits="userSpaceOnUse" x1="-7592.0034" y1="-3447.7754" x2="-6117.917" y2="-3447.7754">
			<stop  offset="3.950727e-02" style="stop-color:#EDDAF0"/>
			<stop  offset="0.1602" style="stop-color:#BEB0D5;stop-opacity:0.9707"/>
			<stop  offset="0.4335" style="stop-color:#484793;stop-opacity:0.9044"/>
			<stop  offset="0.4515" style="stop-color:#40408E;stop-opacity:0.9"/>
			<stop  offset="0.6934" style="stop-color:#3E3E8B"/>
			<stop  offset="0.9525" style="stop-color:#001449"/>
		</linearGradient>
		<path class="st15" d="M-6117.9-3608.7c0,0-5.6,2.8-16,8c-10,5.2-25.7,11.4-45.3,16.4c-18,7.4-42.3,10.3-68.7,12.2
			c-26.9,1.4-57.1,0.6-90.7,1.7c-66.9,2.5-152-8.2-244.8,0.4c-48.1,3.7-90.8,9.6-136.8,15.7c-45.4,6.3-91.6,12.7-137.7,19.1
			c-91.6,17.1-183.7,31.5-269.4,51.6c-86,17.3-165.3,44.7-234.4,60.7c-69,16-126,42-166.7,53.4c-40.5,16-63.7,25.2-63.7,25.2
			s24.1,6.7,66.2,18.5c41.9,6.5,102.9,24.7,175.2,28.4c72.2,3.5,157.5,13.9,247.5,9.6c90.3-1.5,185.5-13.4,280.6-26.2
			c47.2-8.8,94.3-17.7,140.5-28c45.7-9.9,92.8-22.3,132-33.9c82-21.4,161.9-47.7,234.5-71c36.1-11.9,69.2-28.2,96.5-46.6
			c27.2-19,48.5-38,64.2-54.8c14.6-18.3,23.8-33.4,29-44.2C-6120.7-3603.1-6117.9-3608.7-6117.9-3608.7z"/>
	</g>
	<g>
		<linearGradient id="SVGID_7_" gradientUnits="userSpaceOnUse" x1="-7084.2891" y1="-3256.26" x2="-6127.4336" y2="-3256.26">
			<stop  offset="3.950727e-02" style="stop-color:#EDDAF0"/>
			<stop  offset="0.1602" style="stop-color:#BEB0D5;stop-opacity:0.9707"/>
			<stop  offset="0.4335" style="stop-color:#484793;stop-opacity:0.9044"/>
			<stop  offset="0.4515" style="stop-color:#40408E;stop-opacity:0.9"/>
			<stop  offset="0.6934" style="stop-color:#3E3E8B"/>
			<stop  offset="0.9525" style="stop-color:#001449"/>
		</linearGradient>
		<path class="st16" d="M-6127.4-3520c0,0-17.5,7-48.2,19.1c-13.2,7.8-31.4,14.9-51.9,22.9c-20.2,8.3-41.9,18.1-64.3,29.8
			c-11,6.1-22.7,12.1-34.8,18.1c-12.5,5.5-25.4,11.1-38.6,16.9c-25.8,12.1-54.2,22.8-80.8,37.2c-55.8,25.1-111.6,56.7-170.6,83.4
			c-56.8,30.9-115.4,58.9-169.6,89.3c-55,28.1-104.1,64.7-149.6,88.2c-45.2,24-80.7,55.9-107.6,71.7c-26,20.5-40.8,32.3-40.8,32.3
			s18.6,3.7,51.2,10.2c31.5,1.5,79.5,12.3,133.1,6.5c53.5-5.4,118.7-7,184.3-24.8c66.6-14.8,133.7-43.3,200.1-73.7
			c64.2-34.7,126.6-74.2,178.8-119.5c26.1-22.7,50.1-46.1,70.4-71c10.2-12.2,20.1-24.1,29.7-35.6c9.1-12,17.9-23.4,26.6-34
			c17.6-20.9,30-44,40.2-64.5c10.5-20.3,18.3-38.9,25.4-53.4C-6133.7-3502-6127.4-3520-6127.4-3520z"/>
	</g>
</g>
<path class="st17" d="M-6223-3755.1c5.6,21.6,32.2,121.8,73.8,204.9c0,0,22.6,45.3,54.2,91.1c14.4,20.8,23.8,31.4,28.2,36.2
	c8.5,9.3,12.5,12.7,26.9,27c9.6,9.5,18.9,19.5,27.9,29.6c19.3,21.8,32.2,40.4,49.8,65.8c59.7,86.3,64.6,88.7,63.2,101.4
	c-2,17.7-18.1,36.1-50.3,73c-12.6,14.4-23.7,25.6-31.4,33.1l-30.1,25.4c-19.8,16.7-38.7,33.9-57.1,51.5c-37,35-69.8,73.9-97.7,116
	c-27.4,42.3-49.2,88.6-61.7,138c-13.3,49.3-16.9,101.5-13.7,154.1c-14.3-50.8-17.7-105.2-10.7-158.9c7.4-53.6,25.7-106,52.2-153.6
	c26-48,60.6-90.5,97.8-129.6c18.7-19.4,38.7-37.5,58.6-55l29.6-25.8c5.2-5.9,12.8-14.2,22.5-23.8c37.5-37.4,50.7-39.5,52.1-52.4
	c2.1-19.8-28.5-21.4-64.4-69.2c-16.3-21.7-19.5-32.7-42.4-61.4c-7.9-10-16.3-19.3-24.7-28.9c-8.5-9.6-18-19.9-26.4-30.9
	c-37.7-49-75.3-143.4-75.3-143.4C-6200.1-3617.4-6215.1-3691.6-6223-3755.1z"/>
<g>
	<linearGradient id="SVGID_8_" gradientUnits="userSpaceOnUse" x1="-6524.4697" y1="-2901.1641" x2="-6273.249" y2="-2901.1641">
		<stop  offset="3.950727e-02" style="stop-color:#EDDAF0"/>
		<stop  offset="0.1602" style="stop-color:#BEB0D5;stop-opacity:0.9707"/>
		<stop  offset="0.4335" style="stop-color:#484793;stop-opacity:0.9044"/>
		<stop  offset="0.4515" style="stop-color:#40408E;stop-opacity:0.9"/>
		<stop  offset="0.6934" style="stop-color:#3E3E8B"/>
		<stop  offset="0.9525" style="stop-color:#001449"/>
	</linearGradient>
	<path class="st18" d="M-6287.6-3135.7c0,0-5,7.7-13.7,21.1c-3.1,6.8-8.3,14.7-14.1,23.6c-5.7,8.9-11.5,18.9-17.2,29.8
		c-2.7,5.5-5.6,11.1-8.7,16.9c-3.4,5.6-7,11.5-10.6,17.5c-6.9,12-15.1,24.2-21.6,37.3c-15.1,25.6-28.4,53.6-44.3,80.7
		c-13.9,28.1-29.3,55.6-42.2,82.8c-14,26.5-23.2,54.7-34.6,76.8c-11.2,22.1-16.4,44.7-22.6,58.5c-4.6,15.4-7.2,24.2-7.2,24.2
		s8.4-3.7,23.2-10.3c12.9-8.2,34.9-17.3,54.6-34.6c19.7-17.1,45.1-35.9,66.1-61.3c22.2-24.5,40.9-54.6,58.7-85.1
		c15.7-31.7,29.4-64.8,37.5-97.3c4-16.3,7-32.3,8-47.8c0.6-7.7,1.2-15.2,1.8-22.4c0.3-7.3,0.6-14.3,1-20.9
		c1.1-13.2-0.4-25.8-2.1-36.8c-1.5-11-3.6-20.5-4.9-28.2C-6285-3126.9-6287.6-3135.7-6287.6-3135.7z"/>
</g>
<g>
	<path class="st9" d="M-5911.5-2867.2c0,0-2.9,3.5-8,9.6c-1.9,3.3-5,6.9-8.4,10.9c-3.3,4.1-6.8,8.7-10.3,13.9
		c-1.6,2.6-3.4,5.3-5.3,8c-2,2.6-4.1,5.3-6.3,8.1c-4.1,5.6-8.9,11.1-12.9,17.4c-9,11.9-17.2,25.3-26.7,37.8
		c-8.6,13.3-17.8,26.2-25.8,39.2c-8.5,12.5-14.7,26.4-21.7,36.8c-6.9,10.5-10.8,21.8-14.7,28.4c-3.2,7.6-5,12-5,12s4.3-1.1,11.9-2.9
		c6.8-2.9,18.1-5.4,28.8-12.4c10.7-6.9,24.3-14.1,36.1-25.2c12.4-10.5,23.4-24.4,34-38.6c9.7-15,18.4-31,24.4-47.3
		c3-8.2,5.4-16.3,6.9-24.4c0.8-4,1.6-7.9,2.3-11.6c0.6-3.8,1.2-7.5,1.8-10.9c1.4-6.9,1.4-13.7,1.3-19.7c0-6-0.5-11.2-0.6-15.4
		C-5910.8-2862.2-5911.5-2867.2-5911.5-2867.2z"/>
</g>
<g>
	<linearGradient id="SVGID_9_" gradientUnits="userSpaceOnUse" x1="-6791.9141" y1="-2580.9824" x2="-6637.8599" y2="-2580.9824">
		<stop  offset="3.950727e-02" style="stop-color:#EDDAF0"/>
		<stop  offset="0.1602" style="stop-color:#BEB0D5;stop-opacity:0.9707"/>
		<stop  offset="0.4335" style="stop-color:#484793;stop-opacity:0.9044"/>
		<stop  offset="0.4515" style="stop-color:#40408E;stop-opacity:0.9"/>
		<stop  offset="0.6934" style="stop-color:#3E3E8B"/>
		<stop  offset="0.9525" style="stop-color:#001449"/>
	</linearGradient>
	<path class="st19" d="M-6637.9-2472.2c0,0-2.2-4-5.9-11.1c-2.3-3-4.5-7.2-7-11.9c-2.5-4.6-5.5-9.6-9-14.7c-1.8-2.5-3.6-5.2-5.4-7.9
		c-1.7-2.9-3.4-5.8-5.2-8.8c-3.7-5.9-7-12.4-11.3-18.5c-7.6-12.8-17-25.4-25.1-38.9c-9.2-12.9-17.6-26.3-26.7-38.6
		c-8.4-12.5-19-23.5-26-33.9c-7.2-10.3-16.2-18.2-20.9-24.3c-5.9-5.8-9.3-9.1-9.3-9.1s-0.6,4.4-1.8,12.2c0.2,7.4-1.8,18.8,0.7,31.3
		c2.4,12.5,4,27.8,9.9,42.9c5.1,15.4,13.9,30.8,23.1,46c10.3,14.6,21.9,28.7,34.8,40.3c6.5,5.8,13.1,11.1,20,15.5
		c3.4,2.2,6.7,4.4,9.9,6.5c3.3,2,6.5,3.9,9.5,5.8c5.8,3.8,12.1,6.4,17.8,8.6c5.6,2.2,10.6,3.8,14.6,5.2
		C-6642.7-2473.4-6637.9-2472.2-6637.9-2472.2z"/>
</g>
<g>
	<linearGradient id="SVGID_10_" gradientUnits="userSpaceOnUse" x1="-5498.3096" y1="-2818.6326" x2="-5344.2554" y2="-2818.6326">
		<stop  offset="3.950727e-02" style="stop-color:#EDDAF0"/>
		<stop  offset="0.1602" style="stop-color:#BEB0D5;stop-opacity:0.9707"/>
		<stop  offset="0.4335" style="stop-color:#484793;stop-opacity:0.9044"/>
		<stop  offset="0.4515" style="stop-color:#40408E;stop-opacity:0.9"/>
		<stop  offset="0.6934" style="stop-color:#3E3E8B"/>
		<stop  offset="0.9525" style="stop-color:#001449"/>
	</linearGradient>
	<path class="st20" d="M-5344.3-2709.8c0,0-2.2-4-5.9-11.1c-2.3-3-4.5-7.2-7-11.9c-2.5-4.6-5.5-9.6-9-14.7c-1.8-2.5-3.6-5.2-5.4-7.9
		c-1.7-2.9-3.4-5.8-5.2-8.8c-3.7-5.9-7-12.4-11.3-18.5c-7.6-12.8-17-25.4-25.1-38.9c-9.2-12.9-17.6-26.3-26.7-38.6
		c-8.4-12.5-19-23.5-26-33.9c-7.2-10.3-16.2-18.2-20.9-24.3c-5.9-5.8-9.3-9.1-9.3-9.1s-0.6,4.4-1.8,12.2c0.2,7.4-1.8,18.8,0.7,31.3
		c2.4,12.5,4,27.8,9.9,42.9c5.1,15.4,13.9,30.8,23.1,46c10.3,14.6,21.9,28.7,34.8,40.3c6.5,5.8,13.1,11.1,20,15.5
		c3.4,2.2,6.7,4.4,9.9,6.5c3.3,2,6.5,3.9,9.5,5.8c5.8,3.8,12.1,6.4,17.8,8.6c5.6,2.2,10.6,3.8,14.6,5.2
		C-5349.1-2711-5344.3-2709.8-5344.3-2709.8z"/>
</g>
<path class="st17" d="M-5682.8-3679.7c-45.2-30.7-49.8-21.9-101.2-58.4c-47.7-33.9-97.3-70-116-132c-9.3-30.7-8.1-58-6-75
	c-0.2-9.4,0.9-27.4,12-45c6-9.6,12.7-15.5,19-21c10.9-9.5,23.6-20.5,42-25c29.7-7.2,56.4,6.8,70,14c9.2,4.8,16.2,9.9,20.8,13.6
	c7,5.2,14,10.3,21,15.5c12.8,11.9,33,25.7,48.2,12.2c8.9-7.8,12.7-16,14-23.2c0.9-3,1.6-6.2,1.7-9.5c0,0,0,0,0-0.1
	c0.6-2.7,1.1-5.4,1.5-8.1c4.3,0.9,9,0.9,13.3,1.4c3.5,0.4,7.9-0.3,9.7-3.9c3.6-7.2,2-15.7,0.2-23.8c4.9,0.5,10,0.1,14.3-1.8
	c3.7-0.6,6.2-2,7.7-4c0.3-0.5,0.6-1,0.9-1.5c2.1-4.3,0.8-10.3-1.6-16.4l-1.3-14.6l13.7,2c5.3,3.9,10.9,7,16.6,8.4
	c2.5,1,5.2,1.4,8.1,0.7c0.1,0,0.2,0,0.3,0c0.3-0.1,0.6-0.2,0.9-0.3c0.1,0,0.2-0.1,0.3-0.2c0.3,0,0.5-0.2,0.8-0.2
	c1.1-0.7,2.2-1.5,3.3-2.1c0,0,0.1,0,0.1-0.1c0,0,0,0,0,0c0,0,0,0,0,0c2.1-1.5,3.7-3.7,5-6.2c0.9-1.7,1.2-3.5,1.2-5.2
	c0.5-2.7,0.4-5.6,0.2-8.3c-0.4-5.7-0.7-11.8-2.2-17.3c-0.5-5.1-0.9-10.2-1.4-15.2c0-29.2,2.7-62.1,13.9-72.7c0.1,0,0.1-0.1,0.1-0.1
	c1.7-1.5,3.4-2.9,5-4.3c1.2-1.2,2.4-2.3,3.7-3.4c20-21.6,93.3-108.5,56.5-188.4c-3.5-10.9-9.6-21.3-16.2-29.7
	c-13.9-17.6-30.5-37.9-48.9-53c-5.7-5.9-12.3-10.6-18.7-15.5c-11.9-11.5-24.3-22.5-37.4-32.7c-0.9-1.4-2-2.6-3.6-3.4
	c-0.1-0.1-0.1-0.1-0.2-0.2c-28.4-24.7-55.2-51-75-80.4c-19.5-28.9-82.9-172.6-4.7-173.7c0.3,0.3,0.5,0.5,0.8,0.8
	c0.1,0,0.2,0.1,0.3,0.1c10.9,2.3,14.9,12.3,12.8,20.4c0,0.1,0,0.2,0,0.3c-0.1,0.2-0.1,0.4-0.2,0.6c-0.3,1.1-0.5,2.2-1,3.3
	c-2.2,5.3-7.7,7.8-13.1,7.7c0.6,1.3,1.5,2.6,3.1,3.5c27.6,17,39-13.6,33.4-35.7c-11.8-46.3-86.9-53.9-123.6-43.7
	c-92.8,25.6-82.5,108.9-43.5,173.7c-12.9-14.6-24.6-30.5-34.8-47.2c-18.7-30.5-31.2-67.3-31.3-103.3c-0.1-38.8,26.9-92.8,71.7-64.8
	c0.2,0.1,0.3,0,0.5,0.1c3-17.9-29.9-27.6-44.1-24.1c-5,1.2-9.6,2.9-14.1,4.9c-41.6,22.5-49.7,74.8-42.5,118.2
	c3.8,23.1,10.6,44.2,19.2,64c-17.2-21.1-31.1-45.7-39.5-71.3c0,0,0-0.1,0-0.1c-14.6-54.6-18-108.8-5.6-164.3
	c5.6-25.2,16.6-48.6,29.4-70.7c7.6-13.1,17.2-24.9,27.9-35.6c5.1-4,10.3-7.9,15.5-11.9c12.1-8.7,21.4-10.1,28.1-5
	c14.9,8.1,23.5,33.4,20.3,48.4c-4.7,21.6-29.2,17.7-36.8,2.1c-0.2,0.9-0.4,1.7-0.4,2.8c1.9,23.8,23.4,27.5,43.1,21.5
	c23.4-7.1,38-28.6,34.9-53.1c-0.5-3.6-1.4-7-2.6-10.4c4.5-29-15.8-56.4-54.9-69.4c-76.5-25.4-155.8,42.7-199.7,96.5
	c-19.6,24-34,52.2-42.7,82.1c-10.7-59.8-0.4-127.7,31.5-160.5c1-1.1,1.7-2.2,2-3.4c-4.8,2.9-9.6,5.5-14.3,8.2
	c-14.8,15.6-28.8,30.7-41.2,46.4c-20.5,41.4-27.9,87.8-22.2,133.3c-59.6-49.2-144.7-73.6-175.3-146.4c-0.8-2-2.3-3.2-3.9-4.1
	c-5.2,17.3-12.6,34.5-16.1,51.5c-4.3,20.7-7.3,40.7-7.3,60.6c1,8.6,2.5,17.4,4.9,26.5c12.2,44.9,39.7,84.2,66.6,121.2
	c25.1,34.5,57.7,74.8,79.7,117.9c1.8,9.8,1.8,19.7,0.8,29.6c-14.9-37-43.5-69.6-71.6-99.1c-29.9-31.2-62-60-87.1-95.5
	c-21.5-30.3-29.4-64.9-32.1-100.7c-7.5,57.2-2.1,118.4,22.5,169.9c6.9,11.7,14.2,23.2,22.6,34.4c7.7,10.2,16,19.9,24.4,29.5
	c0.7,0.7,1.3,1.4,2.1,2c1,0.9,1.6,1.8,2.1,2.7c17,19.3,33.8,38.6,46.3,61.5c2.5,7,5.2,13.9,7.9,20.9
	c-41.6-22.7-78.5-55.4-109.5-90.7c-41-46.8-74.1-94.9-142.8-89.3c-33.7,2.7-59.8,22.7-67.6,51.5c-0.3,0.5-0.7,0.9-1,1.5
	c-15.4,37-1.4,71.3,26.4,90.2c4.4,1.7,8.9,3,13.7,3.3c11.5,0.6,22.9-0.6,31.1-7.2c-9.8-1.2-17.3-5.7-22.4-12
	c1.1-0.7,2.3-1.7,3.4-2.7c8-0.7,14.9-4.5,19.6-10.5c4.9-5.7,7.1-13.8,6-22.3c-0.7-0.3-1.5-0.7-2.2-1.3c-2.3,9.5-10.3,17.2-20.4,17.7
	c-10.8,0.6-20.4-12.6-17.1-22.8c2.5-7.8,8.8-13.2,16.2-16c5.1-3.3,11.5-4.9,19.2-3.5c15,2.6,25.6,19.6,32.6,31.4
	c13.1,22.3,11.8,52.7,15.6,77.8c5.5,36.3,24.9,64.5,49.1,90c-11.1-2.1-22.3-3-33.4-2.4c-21.5-1-42.9,1.7-63.4,11.3
	c-30.1,14-84.6,74.7-68.2,107.8c-0.6,2.6-1,5.2-1.2,7.7c-2.1,1.5-4.3,2.7-6.4,4.4c-25.1,19.7-60.1,60.1-39.6,94.8
	c9.8,16.7,24.1,27.5,40.4,34c0.4,3.7,0.8,7.5,1.6,11.2c2.5,24.2,14.7,45.8,41.3,58.4c0.3,0.1,0.5,0.1,0.8,0.2
	c3.2,6,6.9,11.8,11.5,17.4c21.7,26.4,54.8,32.9,87,29.1c5.9-2.2,11.9-4.1,17.1-7.7c1.2-0.9,2.3-1.9,3.5-2.8c-14,2.4-28.3,2-40.1-3.5
	c-2.5-0.7-4.9-1.7-7.1-3c-7.7-4.7-13.7-13.5-13.4-22.9c0.2-5.2,1.8-9.4,4.2-13.2c6.8-20.5,39.3-39.2,53.5-47.6
	c52.8-31.3,115.3-13.1,172.3-7c21,2.2,42.5,2,64.1-0.2c0.2,0.3,0.3,0.5,0.5,0.8c-37.4,7.2-75.5,8.7-115.6,8.8
	c-36.6,0.1-74.6,5.8-91.1,42.1c-0.9,2-0.9,4-0.5,5.7c27.3-9.5,55.4-11.5,83.6-9.7c42.2-0.7,84.7,7.6,126.6,6.9
	c-33.7,16.3-71.4,33.2-101.7,38c-0.8-0.2-1.6-0.5-2.4-0.7c-17.6,5.3-44.5-1.1-56.5-14.1c4.4,13.8,16.9,22.9,31.1,28.5
	c20.9,21,53.2,17.2,84.5,6.6c0.1,0,0.3,0,0.4,0c20.2-3.1,40.7-7.6,59.7-15.2c-30.6,32.4-69.4,60.3-109.6,75.6
	c-48.4,25.1-111.3,33.4-149.7-2.5c0,4.1,0,8.3,0.4,12.4c15.9,50,79.8,67.8,127.9,67c62.2-1,114.5-39.2,149.2-88.2
	c48.8-31.8,132.9-74.2,165.9-15.9l-149.1,146.3c-14.1,34.3-14,43.9-10.9,45.8c8.8,5.5,43.2-46.7,117.5-121.8c82.8-83.7,96-96,96-96
	c36.2-33.9,69.2-62.3,63-90c-3.5-15.8-16.8-18.4-18-36c-1.8-27.5,28.5-55.3,39-51c6.6,2.7,2.1,16.7,9,21c7.8,4.9,26.9-4.7,69-48
	c10.6-8.8,36.6-27.8,75-33c44.7-6.1,78.3,10.5,93,18c30,15.3,83.8,53.7,78.8,92.6c-2,15.5-13.8,34.8-20,45
	c-7.2,11.8-11.2,15.5-18,25c-10.1,14.1-28.4,39.7-32,70c-3.7,31.1,8.5,65.1-1,69c-2.4,1-7,0.4-10,4c-1.9,2.3-2.2,5.3-2.1,7.1
	c-4.4-8.2-12.4-13.3-20.9-13.1c-7.4,0.2-16.3,4.5-18,11c-1.7,6.7,5.4,11.2,3,16c-2.6,5.3-12,1.3-17,7c-6.4,7.2,3.4,19.9-3,27
	c-4.6,5.2-11.4,0.5-17.7,6.3c-4.9,4.5-1.9,8.3-7.3,18.7c-1.5,3-5.9,11.2-15,17c-1.3,0.8-6.8,4.2-12,5c-13.6,2.1-22.8-13.7-40-28
	c-18.4-15.3-36.7-21.3-63-30c-21.7-7.1-32.5-10.7-42-10c-53,4-112,113-84,182c8.1,19.9,24.7,39.6,52,72c7.3,8.7,19.5,23.1,35,38
	c32,30.8,59.9,46.2,84,61c68.7,42.1,116.2,71.1,147,123c13.1,22.1,31.2,52.5,23,87c-13,55-82.1,76.6-93.4,80.1
	c-43.8,13.7-82,5.3-99.1,0.3c11.4,2.1,27.3,5.5,45.7,11.3c33.8,10.6,57.4,23.2,59.5,24.3c38.1,20.8,55,129.4,37,265
	c0.6-28.8,1.3-57.5,1.9-86.3c3.5-96.7,14.5-202.1,45-223.9c19.9-14.2,36.6-35.5,42.7-61.9C-5518.1-3567-5667.4-3669.3-5682.8-3679.7
	z M-6559.8-4318.8c-27.1-15.1-37.8-44.2-6.9-81.1c4.4-5.3,9.6-9.8,15-13.9c3.8,10.7,11.2,20.5,20.9,28.8
	C-6546.5-4365.3-6557.2-4342.5-6559.8-4318.8z M-6475.4-4431.3c-10,5.3-19.6,11.8-28.5,19.1c-1-1.4-2.4-2.6-4.7-3.1
	c-4.7-1-7.1-3.4-7.9-6.6c3.3-2.7,4.2-7.6,2.1-11c23.2-7.7,48.6-10.9,71.1-12.2c1-0.1,2.1-0.1,3.1-0.2
	C-6452.1-4441.9-6463.9-4437.4-6475.4-4431.3z M-6499-4456.8c10.7-12.8,22.9-24.5,26.8-27.9c39-35,92.2-21.2,137-8.2
	c6.8,6.7,14.3,11.8,23.1,16.7c5.7,3.2,11.8,6,17.9,8.4C-6361.3-4459.8-6435-4473-6499-4456.8z"/>
<text transform="matrix(1 0 0 1 -4971.2173 -3338.6243)" style="font-family:'Modern-Regular'; font-size:12px;">Lorem ipsum</text>
</svg>
