<svg id="Capa_1" data-name="Capa 1" xmlns="http://www.w3.org/2000/svg" xmlns:xlink="http://www.w3.org/1999/xlink" viewBox="0 0 856.7 372.19"><defs><style>.cls-1{fill:#f2e0e8;}.cls-2{fill:#424190;}.cls-3{fill:url(#linear-gradient);}.cls-4{fill:url(#linear-gradient-2);}.cls-5{fill:url(#linear-gradient-3);}.cls-6{fill:url(#linear-gradient-4);}.cls-7{fill:url(#linear-gradient-5);}.cls-8{fill:url(#linear-gradient-6);}.cls-9{fill:url(#linear-gradient-7);}.cls-10{fill:url(#linear-gradient-8);}.cls-11{fill:#120076;}.cls-12{font-size:97px;fill:#eaccd8;stroke:#96003a;stroke-miterlimit:10;stroke-width:2px;font-family:Marion-Regular, Marion;}.cls-13{fill:#484741;}.cls-14{fill:#737069;}.cls-15{fill:#363530;}.cls-16{fill:#7a001b;}.cls-17{fill:#a71824;}.cls-18{fill:#d71016;}.cls-19{fill:url(#linear-gradient-9);}</style><linearGradient id="linear-gradient" x1="40.36" y1="179.82" x2="306.1" y2="179.82" gradientUnits="userSpaceOnUse"><stop offset="0" stop-color="#fff"/><stop offset="0"/><stop offset="0" stop-color="#ffd1db"/><stop offset="0.08" stop-color="#ffb6ca"/><stop offset="0.16" stop-color="#ff9fbc"/><stop offset="0.24" stop-color="#ff92b3"/><stop offset="0.31" stop-color="#ff8db0"/><stop offset="0.72" stop-color="#af6693"/><stop offset="0.99" stop-color="#7a001b"/></linearGradient><linearGradient id="linear-gradient-2" x1="36.9" y1="198.01" x2="304.63" y2="198.01" xlink:href="#linear-gradient"/><linearGradient id="linear-gradient-3" x1="53.28" y1="224.11" x2="303.27" y2="224.11" xlink:href="#linear-gradient"/><linearGradient id="linear-gradient-4" x1="79.95" y1="254.11" x2="301.9" y2="254.11" xlink:href="#linear-gradient"/><linearGradient id="linear-gradient-5" x1="117.01" y1="283.26" x2="300.43" y2="283.26" xlink:href="#linear-gradient"/><linearGradient id="linear-gradient-6" x1="154.39" y1="309.19" x2="299.28" y2="309.19" xlink:href="#linear-gradient"/><linearGradient id="linear-gradient-7" x1="201.84" y1="328.53" x2="297.81" y2="328.53" xlink:href="#linear-gradient"/><linearGradient id="linear-gradient-8" x1="263.49" y1="195.9" x2="351.3" y2="195.9" gradientTransform="translate(179.7 -145.51) rotate(36.98)" gradientUnits="userSpaceOnUse"><stop offset="0" stop-color="#fff"/><stop offset="0"/><stop offset="0" stop-color="#fff36d"/></linearGradient><linearGradient id="linear-gradient-9" x1="296.33" y1="318.39" x2="892.43" y2="318.39" gradientUnits="userSpaceOnUse"><stop offset="0" stop-color="#fff"/><stop offset="0"/><stop offset="0.03" stop-color="#241e20"/><stop offset="0.12" stop-color="#32191f"/><stop offset="0.35" stop-color="#510e1d"/><stop offset="0.57" stop-color="#68061c"/><stop offset="0.78" stop-color="#75021b"/><stop offset="0.97" stop-color="#7a001b"/></linearGradient></defs><title>titlescreen</title><path class="cls-1" d="M327.74,227.47a65.27,65.27,0,0,0,1-9.93c-.27-6.35-.46-15.76-3.79-26.36-.93-2.62-1.72-5.36-2.89-8.23s-2.25-5.72-3.64-8.68a37,37,0,0,0-2.27-4.35c-.84-1.53-1.65-2.9-2.49-4.43s-1.83-2.88-2.79-4.3-1.95-3-3.08-4.41a93.76,93.76,0,0,0-6.79-8.49c-1.28-1.46-2.47-2.72-3.71-4.08s-2.6-2.6-4-3.78A205.17,205.17,0,0,0,276.1,126C264,117.21,251.62,109.45,240,102.61c-11.65-7.07-22.78-12.89-31.61-18.83s-16.53-10.7-21.42-14.74c-2.59-2-4.34-3.5-5.76-4.61a19.61,19.61,0,0,1-2-1.73s.54.77,1.43,2.16,2.25,3.53,4.16,6.2c4.12,5,9.74,12.36,18.17,19.6s18.27,15.58,29.38,23.42c11,8,23.15,15.88,34.24,24.44,5.67,4.17,11.21,8.45,16.21,12.85,1.24,1.12,2.51,2.17,3.76,3.28s2.29,2.32,3.5,3.51c2.31,2.25,4.47,4.69,6.63,7.13a133.57,133.57,0,0,1,19.79,29,128.08,128.08,0,0,1,9.17,23.59A79,79,0,0,1,327.74,227.47Z" transform="translate(-36.9 -62.71)"/><path class="cls-1" d="M324.52,232.91l-.15-.05c-.15-.05-.17-.22-.28-.35-.08-.44-.19-1-.28-1.89,0-1.64-.32-4-.49-7.09-.89-6-2-15.11-6.51-25.11S305.72,177,295.73,167.33c-9.74-9.93-21.77-18.2-33.67-25.94-12.18-7.44-24.42-14.49-35.78-20.8s-22-12.11-30.38-18.12c-8.37-5.84-15.24-11-19.53-15.32a41.26,41.26,0,0,1-4.9-5.1c-1-1.21-1.58-2-1.58-2s.37.79.93,2.38a67.14,67.14,0,0,0,3.14,6.46c1.66,2.66,3.77,5.89,6.27,9.43a89.7,89.7,0,0,0,9.88,10.87,239.59,239.59,0,0,0,28.7,23c11,7.65,23.06,14.79,34.65,22.24a318.56,318.56,0,0,1,32.64,22.71c9.51,7.89,17.4,16.55,22.76,25.07s9.33,16.1,11.51,21.8c1.22,2.73,2.1,5,2.77,6.57a10.13,10.13,0,0,0,.86,1.7.52.52,0,0,0,.46.33C324.49,233,324.52,232.91,324.52,232.91Z" transform="translate(-36.9 -62.71)"/><path class="cls-1" d="M321.35,238.45a.8.8,0,0,1-.56-.05,1.75,1.75,0,0,1-1-1.18,51.33,51.33,0,0,1-1.63-6.05c-1.53-5.21-3.35-13.2-8.46-21.7a104.09,104.09,0,0,0-9.23-13.06,84.51,84.51,0,0,0-13-12.44c-9.54-7.82-20.66-14.53-31.6-20.85-11.19-6.09-22.34-11.84-32.73-17-10.3-5.35-20.17-9.88-28.05-14.8-3.91-2.45-7.4-4.66-10.58-6.83a65.54,65.54,0,0,1-7.75-5.93,25.37,25.37,0,0,1-2.68-2.39,19.24,19.24,0,0,1-1.93-1.95c-1-1-1.62-1.67-1.62-1.67s.32.69.87,2.11l1.15,2.46a18.85,18.85,0,0,0,1.84,3.29c1.6,2.39,3.45,5.2,6,8.35a76.75,76.75,0,0,0,9.29,9.59,218.35,218.35,0,0,0,26.45,19.72c10,6.47,21.12,12.43,32,18.72,10.93,5.91,21.6,12,31,18.19a144,144,0,0,1,13,9.35,82.1,82.1,0,0,1,10.18,10.09,145.84,145.84,0,0,1,13,17.89,43.46,43.46,0,0,0,3.81,5.34c.59.63,1.05,1,1.47,1S321.4,238.31,321.35,238.45Z" transform="translate(-36.9 -62.71)"/><path class="cls-1" d="M318.2,243.92a1.1,1.1,0,0,1-.44.08,1.51,1.51,0,0,1-1.24-.47c-1-.77-1.6-2.39-2.24-4.66-1.76-4.16-3.43-11.2-9.11-18.21a47.26,47.26,0,0,0-10.58-9.92,52.4,52.4,0,0,0-7-4.08c-1.26-.64-2.32-1.12-3.36-1.67s-2.28-1-3.42-1.53c-9.06-4.23-19-8.21-28.68-12.69-9.85-4.12-19.48-8.4-28.54-12.39-9-4.2-17.51-7.66-24.39-11.47s-12.81-6.86-16.64-9.52a47.63,47.63,0,0,1-4.5-3.08c-1.1-.82-1.63-1.18-1.63-1.18s.38.55,1.06,1.62,1.61,2.8,3,4.79c3,3.73,7.28,9.4,13.77,14.69a189.82,189.82,0,0,0,23.05,16.57,268.76,268.76,0,0,0,28.77,14.67c10.07,4.2,20.27,8.05,29.94,11.13,1.29.33,2.39.74,3.58,1.11s2.24.68,3.36,1c2,.6,3.92,1.31,5.88,2.06a39.68,39.68,0,0,1,10,6,101.06,101.06,0,0,1,12.92,13.64c.76.85,1.62,1.67,2.29,2.32a6.72,6.72,0,0,0,2.14,1.38,2,2,0,0,0,1.53-.07A1.72,1.72,0,0,1,318.2,243.92Z" transform="translate(-36.9 -62.71)"/><path class="cls-1" d="M315,249.3a7.24,7.24,0,0,1-1.5,0,5.32,5.32,0,0,1-3.38-2.09C307.62,245,305.25,239.85,300,235a56.2,56.2,0,0,0-9.44-7,27.49,27.49,0,0,0-6.06-2.69c-1.09-.41-2.24-.68-3.21-1s-1.88-.55-2.85-.83c-7.5-2.18-15.57-4.41-23.57-7-8-2.37-16-5.06-23.59-7.44-7.51-2.59-14.71-4.49-20.68-6.75s-11.27-3.68-14.91-5.06l-5.77-1.93s1.47,1.61,4.11,4.55c2.94,2.57,6.77,6.78,12.34,10.34S218.41,218.46,226,222a174.35,174.35,0,0,0,24.23,9.71c8.5,2.4,17.23,4.63,25.59,5.43,1,.14,2,.19,3,.33a11.91,11.91,0,0,1,2.55.31c1.59.19,3.28.59,4.84.85a30.89,30.89,0,0,1,8.55,3.39c5.14,2.91,10,6,13.92,7.69a7,7,0,0,0,4.91.23A2.78,2.78,0,0,0,315,249.3Z" transform="translate(-36.9 -62.71)"/><path class="cls-1" d="M312,254.82s-.42,0-1.28.09a12.51,12.51,0,0,1-3.48-.26,16.44,16.44,0,0,1-5-1.22c-1.82-.69-3.81-1.6-6.11-2.55-4.47-1.85-9.8-4.92-16.22-7.09-3.33-1.09-6.33-2-9.54-3s-6.38-1.84-9.65-2.67c-6.66-1.54-13.07-3.31-19.3-4.44-6.15-1.35-12.18-1.92-17.24-2.85s-9.48-.9-12.57-1.33c-3.12-.12-4.91-.23-4.91-.23s1.42,1.1,3.84,3.07c2.56,1.61,6.17,4.6,10.87,6.94s10,5.41,16,7.83a187.51,187.51,0,0,0,19.36,6.49c3.47.74,6.74,1.57,10.1,2.35s6.8,1.18,9.63,1.6c6,1.05,12.14,1.58,17.65,2.19a37.83,37.83,0,0,0,7.72-.17,27.41,27.41,0,0,0,5.81-1.71,14.06,14.06,0,0,0,3.11-2.07A5.59,5.59,0,0,1,312,254.82Z" transform="translate(-36.9 -62.71)"/><path class="cls-1" d="M308.79,260.27s-1.37-.11-3.68-.17A22.38,22.38,0,0,1,301,260c-1.5,0-3.32,0-5.19.07-.86.08-1.87.11-2.81.16s-1.89-.06-3-.09c-2.09,0-4.27-.15-6.42,0-4.4,0-9.06.4-13.63.38-4.73.41-9.3.39-13.82.88-4.41.21-8.76,1.16-12.43,1.4s-7,1.27-9.17,1.58c-2.3.59-3.67.89-3.67.89s1.1.82,3.1,2.15c2,1,4.92,3.07,8.62,4.31s8,3,12.88,3.8a73,73,0,0,0,15.4,1.1,67.22,67.22,0,0,0,15.27-2.52,45,45,0,0,0,6.62-2.54c1-.44,2-1,3-1.45s1.85-.93,2.77-1.39a21.85,21.85,0,0,0,4.47-3c1.21-1,2.25-2,3.25-2.67C307.92,261.24,308.79,260.27,308.79,260.27Z" transform="translate(-36.9 -62.71)"/><path class="cls-2" d="M426.5,279.4" transform="translate(-36.9 -62.71)"/><path class="cls-3" d="M306.1,251.64A95.8,95.8,0,0,0,302.64,238c-3.36-8.26-8.08-20.6-17.32-32.94-2.41-3-4.72-6.22-7.56-9.44-2.62-3.22-5.56-6.44-8.71-9.66a50.74,50.74,0,0,0-4.93-4.61c-1.78-1.61-3.46-3-5.25-4.61-1.89-1.39-3.67-2.9-5.56-4.29s-3.88-3-6-4.29a125.25,125.25,0,0,0-12.6-7.83c-2.31-1.29-4.41-2.36-6.61-3.54s-4.51-2.15-6.82-3a268.22,268.22,0,0,0-28.56-10.51A570.17,570.17,0,0,0,136,130.41c-18.06-3.54-34.86-5.69-48.82-9.12s-25.93-5.9-34-8.8C49,111.21,46,110,43.72,109.28A25.69,25.69,0,0,1,40.36,108s1,.75,2.83,2.15,4.51,3.54,8.19,6.12c7.56,4.51,18.16,11.48,32.23,16.84s30.45,11.48,48.19,16.31c17.64,5.15,36.75,9.44,54.81,15.23,9.13,2.68,18.16,5.58,26.56,8.9,2.1.86,4.2,1.61,6.3,2.47s4,1.93,6.09,2.9c4,1.82,7.87,4,11.76,6.12a180.27,180.27,0,0,1,38.74,28.43c10.18,10,18.06,19.53,22.78,26.61A112.41,112.41,0,0,1,306.1,251.64Z" transform="translate(-36.9 -62.71)"/><path class="cls-4" d="M304.63,260.44h-.21c-.21,0-.31-.21-.52-.32-.31-.54-.73-1.29-1.26-2.36-.84-2.15-2.31-5.15-4-9.12-4-7.51-9.66-19-20.16-29.93-10.29-10.94-24.15-22.74-41.37-30.58-17-8.26-36.12-13.2-54.81-17.49-18.9-3.75-37.69-7-55-9.66-17.32-2.9-33.49-5-46.93-8.8-13.33-3.54-24.46-7-31.92-10.51a54.55,54.55,0,0,1-8.61-4.29c-1.89-1.07-2.94-1.82-2.94-1.82s.84.86,2.31,2.68a92.46,92.46,0,0,0,7,7c3.36,2.68,7.56,5.9,12.39,9.33A118.94,118.94,0,0,0,76.27,164a312.64,312.64,0,0,0,47.14,16.09c17.53,4.61,36.12,8,54.28,12.12,18.37,3.75,36.22,8.26,52,13.73,15.75,5.69,29.82,13.2,40.63,21.78s19.42,16.63,24.88,23.07c2.83,3,5,5.58,6.61,7.3a13.91,13.91,0,0,0,1.89,1.82.69.69,0,0,0,.73.21C304.63,260.55,304.63,260.44,304.63,260.44Z" transform="translate(-36.9 -62.71)"/><path class="cls-5" d="M303.27,269.35a1,1,0,0,1-.73.21,2.33,2.33,0,0,1-1.78-1.07,72.48,72.48,0,0,1-4.93-7.19c-4.41-6.12-10.5-15.77-21-24.46A140.15,140.15,0,0,0,257,224.18a111.22,111.22,0,0,0-22.26-10c-15.75-5.58-33-8.9-49.77-11.8-17-2.47-33.81-4.51-49.35-6.12-15.54-1.93-30.13-3-42.42-5.58-6.09-1.29-11.55-2.47-16.59-3.75A85.36,85.36,0,0,1,64,183a33.27,33.27,0,0,1-4.51-1.82,25.38,25.38,0,0,1-3.36-1.61c-1.78-.86-2.83-1.39-2.83-1.39s.73.75,2.1,2.36L58,183.2a25.75,25.75,0,0,0,3.88,3.43c3.15,2.36,6.82,5.15,11.55,8a101.42,101.42,0,0,0,16.27,8c12.28,4.61,27,9.66,42.73,12.87,15.75,3.54,32.55,5.9,49.24,8.8,16.59,2.36,33,5.15,47.77,8.58a187.18,187.18,0,0,1,20.79,5.9,108.22,108.22,0,0,1,17.64,8.26,196.09,196.09,0,0,1,24.88,17.17,58.43,58.43,0,0,0,7.35,5.15c1,.54,1.78.75,2.31.54C303.06,269.56,303.27,269.13,303.27,269.35Z" transform="translate(-36.9 -62.71)"/><path class="cls-6" d="M301.9,278.14a1.48,1.48,0,0,1-.52.32,2,2,0,0,1-1.78,0c-1.57-.54-3.15-2.36-5-5-4.2-4.61-9.66-13.09-20.16-19.53a62.15,62.15,0,0,0-18.06-7.83,67.71,67.71,0,0,0-10.71-1.93c-1.89-.21-3.46-.32-5-.54s-3.36-.21-5-.32c-13.44-1.07-27.82-1.39-42.21-2.47-14.38-.54-28.56-1.39-41.89-2.15-13.33-1.07-25.72-1.39-36.22-3S95.8,233,89.71,231.37a61.8,61.8,0,0,1-7.14-1.82c-1.78-.54-2.62-.75-2.62-.75s.73.54,2.1,1.61,3.36,2.9,6.09,4.83c5.56,3.43,13.65,8.8,24.36,12.55s23.1,7.83,37,10.41c13.65,2.68,28.56,4.08,43.26,5,14.7.54,29.4.54,43-.21,1.78-.21,3.36-.21,5-.32s3.15-.21,4.72-.32c2.83-.21,5.56-.21,8.4-.21a51.32,51.32,0,0,1,15.43,3,133.72,133.72,0,0,1,22.78,11.59c1.36.75,2.83,1.39,4,1.93a8.7,8.7,0,0,0,3.36.75,2.64,2.64,0,0,0,1.89-.86A2.34,2.34,0,0,1,301.9,278.14Z" transform="translate(-36.9 -62.71)"/><path class="cls-7" d="M300.43,286.83a9.51,9.51,0,0,1-1.89.75,6.9,6.9,0,0,1-5.25-1.07c-4.2-1.61-9.66-7.3-18.58-11.05A73.11,73.11,0,0,0,259.48,271a35.39,35.39,0,0,0-8.92-.54c-1.57,0-3.15.21-4.51.32s-2.62.21-4,.32c-10.5.86-21.73,1.93-33.07,2.47-11.23.86-22.57,1.29-33.28,1.93-10.71.32-20.68,1.39-29.29,1.39s-16,.75-21.21.75l-8.19.32s2.62,1.39,7.35,4c4.93,1.93,11.76,5.58,20.47,7.51s19.11,4.83,30.34,5.69a224.33,224.33,0,0,0,35.17.75c11.86-1.07,23.94-2.47,34.86-5.58,1.36-.32,2.62-.75,4-1.07a15.46,15.46,0,0,1,3.36-.86c2.1-.54,4.41-.86,6.51-1.29a39.76,39.76,0,0,1,12.39.21c7.87,1.29,15.43,3,21.21,3.22a9.17,9.17,0,0,0,6.3-2.15A3.86,3.86,0,0,0,300.43,286.83Z" transform="translate(-36.9 -62.71)"/><path class="cls-8" d="M299.28,295.63s-.52.21-1.57.75a16.29,16.29,0,0,1-4.51,1.39c-1.78.75-4.2.75-6.82.86s-5.56-.21-8.92-.32c-6.51-.21-14.7-1.61-23.83-1.29-4.72.21-8.92.54-13.44.86s-8.92.75-13.44,1.29c-9.13,1.29-18.06,2.15-26.46,3.75-8.4,1.29-16.27,3.54-23.1,4.83s-12.39,3.54-16.48,4.51c-4,1.39-6.3,2.15-6.3,2.15s2.31.75,6.3,2.15c4,.86,10,3,17,3.75s15.22,2.15,23.94,2.36a241.28,241.28,0,0,0,27.51-1.07c4.72-.75,9.24-1.29,13.86-1.93s9.13-1.82,12.91-2.68c8.08-1.61,16.06-4,23.31-5.9a49.67,49.67,0,0,0,9.66-4.08,37.17,37.17,0,0,0,6.51-5.15,19.88,19.88,0,0,0,2.94-4.29A8,8,0,0,1,299.28,295.63Z" transform="translate(-36.9 -62.71)"/><path class="cls-9" d="M297.81,304.43S296,305,293.08,306a29.27,29.27,0,0,1-5.25,1.93c-1.89.75-4.2,1.61-6.51,2.68-1,.54-2.31,1.07-3.46,1.61s-2.41.86-3.88,1.39c-2.62,1.07-5.46,1.93-8.08,3.22-5.56,2.15-11.23,5-17,7.3-5.77,2.9-11.55,5.15-17,8-5.46,2.47-10.5,5.9-15,8s-8.19,5.15-10.81,6.65c-2.62,1.93-4.2,3-4.2,3s1.78.54,4.93,1.29c2.94.32,7.66,1.61,12.91,1.39s11.55,0,18.06-1.39c6.61-1.07,13.33-3.54,19.95-6.22A89.7,89.7,0,0,0,275.76,334a61.72,61.72,0,0,0,7.14-6.65c1-1.07,2.1-2.36,3.15-3.43.84-1.07,1.89-2.15,2.83-3.22a30.9,30.9,0,0,0,4.2-6.22c1-1.93,1.89-3.75,2.83-5.15C297.18,306.14,297.81,304.43,297.81,304.43Z" transform="translate(-36.9 -62.71)"/><ellipse class="cls-10" cx="307.39" cy="195.9" rx="53.36" ry="17.41" transform="translate(-92.91 161.63) rotate(-36.98)"/><path class="cls-11" d="M275.5,288.1" transform="translate(-36.9 -62.71)"/><text class="cls-12" transform="translate(262.48 243.29)">What the hell?</text><path d="M844,376" transform="translate(-36.9 -62.71)"/><path class="cls-13" d="M806.1,222.6a114.62,114.62,0,0,1-7.7-10c-2.7-4.2-2.8-3.7-3.7-1.5-1.1,2.6-1.1,5.8-1.2,8.5-.1,4,.4,9.5,2.4,13.1s6.5,1,8.5-.8C807.4,229.3,808.5,226,806.1,222.6Z" transform="translate(-36.9 -62.71)"/><path class="cls-14" d="M795.6,210s-2.6,5.7-1.3,14.3,2.8,10,5.2,9.7c0,0-2-.6-3.4-7.2S794.6,212.3,795.6,210Z" transform="translate(-36.9 -62.71)"/><path class="cls-15" d="M804.6,221.9c-.4-.4-1-1.2-1.6-1.9a4.18,4.18,0,0,0,.4,1c.6,1.4,1.5,2.7,2.1,4.1h0c1.6,3.5-2.4,7.2-2.4,7.2s1.8-.1,3.2-3.5S806,223.4,804.6,221.9Z" transform="translate(-36.9 -62.71)"/><path class="cls-13" d="M838,220.2a90.14,90.14,0,0,0,7-9.2c2.5-3.8,2.6-3.4,3.4-1.4,1,2.4,1,5.3,1.1,7.9.1,3.7-.4,8.7-2.3,12s-5.9.9-7.8-.8C836.9,226.4,835.9,223.3,838,220.2Z" transform="translate(-36.9 -62.71)"/><path class="cls-15" d="M847.7,208.6a26.59,26.59,0,0,1,1.2,13.2c-1.1,7.9-2.6,9.2-4.8,9,0,0,1.8-.5,3.1-6.6S848.6,210.7,847.7,208.6Z" transform="translate(-36.9 -62.71)"/><path class="cls-14" d="M839.4,219.6c.4-.4.9-1.1,1.5-1.8l-.3.9c-1.1,2.5-2.6,5.9-1.2,8.6a5.35,5.35,0,0,0,1.5,1.8s-1.7-.1-3-3.3C836.5,222.8,838.1,220.9,839.4,219.6Z" transform="translate(-36.9 -62.71)"/><path class="cls-16" d="M891.25,318.14c-.33-.34-3.7-3.72-7.25-2.75a4.12,4.12,0,0,0-2.5,1.75,4.06,4.06,0,0,0,0,4,4.78,4.78,0,0,0,2.25,1.75c3.19,1.78,3.27,13.26-2.13,22.2-5.07,8.39-13.13,11.9-17.92,13.51-27.4,9.2-43.2-3.6-55.9-9.2s-33.2-16.2-50.9-6.7-27.8,30.4-21,54.5,34.7,43.7,60.2,31.4c0,0,.8-.8.7.4s-.5,5.9-.5,5.9l15.9-13.8-20.3-2.6,3.5,5.2s.9.9-.6,1.7-24.2,8.1-41.1-7.4-21.5-38.4-11.3-56.1,30-21,39.9-17.9c0,0,13.2,3.1,31.1,13.7s35.2,14.6,52.9,9.4l1.07-.33c6.43-2.07,16.93-7.59,22.63-19.38C896.74,333.44,892.09,320.38,891.25,318.14Z" transform="translate(-36.9 -62.71)"/><path class="cls-17" d="M734.6,377.7s-1.9,16.7,7.3,31.1,24.2,22.6,34.4,22.8,17.6-2.2,20.6-4.4c0,0,1.1-1,.8.4s-.8,6.5-.8,6.5l14.3-12.5s-8.1,2.4-13.4,4.3a29.77,29.77,0,0,1-5.1,2.1c-3.9,1.5-23,4.9-36.5-5.7S735.2,401.9,734.6,377.7Z" transform="translate(-36.9 -62.71)"/><polygon class="cls-18" points="772.9 358.59 755.9 356.49 760.5 362.29 772.9 358.59"/><path class="cls-19" d="M892.43,322.09H296.33v-6.8c228.88-.43,585.47-1,590.2-.2a7.64,7.64,0,0,1,3.47,1.55A8,8,0,0,1,892.43,322.09Z" transform="translate(-36.9 -62.71)"/><path class="cls-18" d="M880.31,317.08c-.08.24,4,.57,6.75,3.25,5.35,5.3,2.78,17.41-1.06,24.81a33.9,33.9,0,0,1-11.75,12.75c-23.55,8.23-38.34,5.71-47.65,1.61-7-3.06-15.46-8.38-31.38-14.27a97.83,97.83,0,0,0-14.82-4s-14.6-4.4-29.5,6.6c0,0,12.6-9,29-5.8s28.4,10.6,37.2,14.8,22.8,10.6,38.2,8.4l.56-.08c7.38-1.05,16.88-2.41,24.39-8.73A32,32,0,0,0,890,341.14c.89-3,2.61-8.31,1-14.5a12.77,12.77,0,0,0-3.94-7.06C884.14,317.14,880.39,316.85,880.31,317.08Z" transform="translate(-36.9 -62.71)"/></svg>