<svg id="Layer_1" data-name="Layer 1" xmlns="http://www.w3.org/2000/svg" xmlns:xlink="http://www.w3.org/1999/xlink" viewBox="0 0 715.11 149.28"><defs><style>.cls-1{fill:#f2e0e8;}.cls-2{fill:#424291;}.cls-3{fill:url(#linear-gradient);}.cls-4{fill:url(#linear-gradient-2);}.cls-5{fill:url(#linear-gradient-3);}.cls-6{fill:url(#linear-gradient-4);}.cls-7{fill:url(#linear-gradient-5);}.cls-8{fill:url(#linear-gradient-6);}.cls-9{fill:url(#linear-gradient-7);}.cls-10{fill:url(#linear-gradient-8);}.cls-11{fill:#28246d;}.cls-12{font-size:97px;fill:#eaccd8;stroke:#971a3e;stroke-miterlimit:10;stroke-width:2px;font-family:Marion-Regular, Marion;}.cls-13{letter-spacing:-0.06em;}</style><linearGradient id="linear-gradient" x1="380.48" y1="863.61" x2="509.19" y2="863.61" gradientTransform="matrix(-1, -0.01, -0.01, 1, 1064.2, -456.59)" gradientUnits="userSpaceOnUse"><stop offset="0" stop-color="#fff"/><stop offset="0"/><stop offset="0" stop-color="#fad1db"/><stop offset="0.08" stop-color="#f7b6ca"/><stop offset="0.16" stop-color="#f59fbc"/><stop offset="0.24" stop-color="#f392b3"/><stop offset="0.31" stop-color="#f38db0"/><stop offset="0.72" stop-color="#b16794"/><stop offset="0.99" stop-color="#7a121e"/></linearGradient><linearGradient id="linear-gradient-2" x1="378.81" y1="871.82" x2="508.47" y2="871.82" xlink:href="#linear-gradient"/><linearGradient id="linear-gradient-3" x1="386.74" y1="883.6" x2="507.81" y2="883.6" xlink:href="#linear-gradient"/><linearGradient id="linear-gradient-4" x1="399.65" y1="897.13" x2="507.15" y2="897.13" xlink:href="#linear-gradient"/><linearGradient id="linear-gradient-5" x1="417.6" y1="910.28" x2="506.44" y2="910.28" xlink:href="#linear-gradient"/><linearGradient id="linear-gradient-6" x1="435.71" y1="921.98" x2="505.88" y2="921.98" xlink:href="#linear-gradient"/><linearGradient id="linear-gradient-7" x1="458.69" y1="930.71" x2="505.17" y2="930.71" xlink:href="#linear-gradient"/><linearGradient id="linear-gradient-8" x1="166.68" y1="380.55" x2="221.95" y2="380.55" gradientUnits="userSpaceOnUse"><stop offset="0" stop-color="#fff"/><stop offset="0"/><stop offset="0" stop-color="#fef271"/></linearGradient></defs><title>youwin</title><path class="cls-1" d="M102.26,426.4a55.19,55.19,0,0,0-2.14-7.22c-1.92-4.34-4.65-10.84-9.62-17.2-1.29-1.55-2.54-3.21-4-4.86s-3-3.3-4.62-4.94a26.15,26.15,0,0,0-2.59-2.34c-.94-.81-1.81-1.51-2.75-2.33s-1.91-1.45-2.89-2.15-2-1.5-3.1-2.13A61.65,61.65,0,0,0,64,379.38c-1.19-.63-2.26-1.14-3.39-1.71s-2.31-1-3.48-1.42a126.8,126.8,0,0,0-14.49-4.83,264.7,264.7,0,0,0-28.52-5.29c-9.07-1.38-17.46-2.06-24.49-3.5s-13-2.43-17.14-3.75c-2.12-.57-3.62-1.12-4.79-1.46a12.2,12.2,0,0,1-1.71-.6s.54.37,1.47,1.07,2.35,1.77,4.25,3.05c3.89,2.2,9.36,5.65,16.51,8.13a240.51,240.51,0,0,0,24.4,7.38c8.91,2.26,18.52,4,27.65,6.61,4.61,1.18,9.18,2.48,13.45,4,1.07.4,2.13.74,3.2,1.15s2,.92,3.11,1.38c2,.87,4,1.91,6,2.95a90.37,90.37,0,0,1,20.1,14.17,94.52,94.52,0,0,1,12.13,13.65A61.63,61.63,0,0,1,102.26,426.4Z" transform="translate(34.84 -356.82)"/><path class="cls-1" d="M101.81,431.17h-.1c-.1,0-.16-.11-.27-.16-.17-.28-.4-.67-.7-1.23-.48-1.13-1.31-2.7-2.26-4.79-2.21-3.92-5.38-9.93-10.93-15.51S74.86,398,66.08,394.25c-8.69-4-18.32-6.06-27.72-7.83-9.49-1.48-18.91-2.67-27.58-3.61S-6,381.06-12.77,379.43s-12.35-3-16.15-4.73a26.34,26.34,0,0,1-4.4-2.06c-1-.52-1.51-.9-1.51-.9s.44.44,1.23,1.38a48,48,0,0,0,3.71,3.55c1.75,1.35,3.93,3,6.43,4.66a57.74,57.74,0,0,0,9,4.57,147.28,147.28,0,0,0,23.88,7.3c8.84,2,18.16,3.29,27.29,5A192.79,192.79,0,0,1,62.94,404a70.75,70.75,0,0,1,20.83,10.54,98,98,0,0,1,13.06,11.68c1.5,1.53,2.67,2.85,3.51,3.73a7.19,7.19,0,0,0,1,.93.32.32,0,0,0,.37.09C101.81,431.23,101.81,431.17,101.81,431.17Z" transform="translate(34.84 -356.82)"/><path class="cls-1" d="M101.41,436a.5.5,0,0,1-.36.14,1.14,1.14,0,0,1-.92-.53,39.27,39.27,0,0,1-2.67-3.72c-2.38-3.16-5.7-8.17-11.17-12.54A70,70,0,0,0,77,413.05a53.25,53.25,0,0,0-11.35-4.72c-8-2.55-16.63-3.84-25-4.91-8.51-.84-16.9-1.45-24.66-1.87-7.77-.59-15-.75-21.21-1.78-3.06-.52-5.8-1-8.34-1.54a40.07,40.07,0,0,1-6.37-1.77,15.82,15.82,0,0,1-2.3-.85,12.21,12.21,0,0,1-1.72-.77c-.91-.41-1.45-.67-1.45-.67s.39.38,1.11,1.21l1.39,1.37a13.19,13.19,0,0,0,2,1.73,71,71,0,0,0,6,4,48.92,48.92,0,0,0,8.32,3.86A133.11,133.11,0,0,0,15,412c7.92,1.45,16.32,2.24,24.69,3.31,8.3.79,16.51,1.82,24,3.24a87.49,87.49,0,0,1,10.49,2.57,52,52,0,0,1,9,3.93A97.64,97.64,0,0,1,96,433.59a29.1,29.1,0,0,0,3.8,2.56c.54.26.91.35,1.16.22S101.4,435.88,101.41,436Z" transform="translate(34.84 -356.82)"/><path class="cls-1" d="M101,440.76a.73.73,0,0,1-.25.19c-.15.12-.41.2-.89.05-.8-.24-1.64-1.18-2.66-2.57-2.23-2.36-5.2-6.76-10.6-9.92a29.7,29.7,0,0,0-9.2-3.69A31.3,31.3,0,0,0,72,424.1c-.94-.06-1.73-.07-2.52-.14s-1.67,0-2.51,0c-6.7-.19-13.84,0-21-.11-7.15.12-14.2.07-20.84,0-6.65-.19-12.8,0-18.06-.57s-9.72-.88-12.79-1.57a28.79,28.79,0,0,1-3.6-.78c-.9-.24-1.32-.33-1.32-.33s.38.27,1.09.8,1.76,1.46,3.17,2.42a57.77,57.77,0,0,0,12.47,6,115.27,115.27,0,0,0,18.65,4.53,159.34,159.34,0,0,0,21.61,1.47c7.31-.13,14.59-.56,21.34-1.35.88-.17,1.66-.21,2.49-.32s1.56-.21,2.33-.31c1.4-.2,2.75-.28,4.16-.36a23.77,23.77,0,0,1,7.75,1.17,64.67,64.67,0,0,1,11.66,5.57c.7.36,1.45.67,2,.92a4,4,0,0,0,1.69.31,1.27,1.27,0,0,0,.91-.52A1.18,1.18,0,0,1,101,440.76Z" transform="translate(34.84 -356.82)"/><path class="cls-1" d="M100.55,445.48a4.53,4.53,0,0,1-.91.46,3.21,3.21,0,0,1-2.64-.43c-2.13-.74-5-3.64-9.56-5.41a34.24,34.24,0,0,0-7.69-2,16.25,16.25,0,0,0-4.44,0c-.78,0-1.56.21-2.23.3s-1.29.19-2,.29c-5.18.76-10.72,1.66-16.32,2.28-5.54.78-11.15,1.34-16.44,2-5.3.48-10.21,1.34-14.48,1.59s-7.89.86-10.49,1L9.31,446s1.34.67,3.77,1.92c2.51.9,6,2.66,10.39,3.45s9.63,2,15.22,2.19a102.86,102.86,0,0,0,17.47-.61,88.84,88.84,0,0,0,17.11-4c.67-.21,1.28-.48,1.95-.69a7.2,7.2,0,0,1,1.64-.56c1-.35,2.16-.59,3.19-.88a18.24,18.24,0,0,1,6.15-.24c3.94.47,7.75,1.17,10.62,1.12a4.35,4.35,0,0,0,3.06-1.33A2,2,0,0,0,100.55,445.48Z" transform="translate(34.84 -356.82)"/><path class="cls-1" d="M100.25,450.24s-.25.13-.76.45a7.65,7.65,0,0,1-2.2.88,9.77,9.77,0,0,1-3.36.66c-1.3.08-2.77,0-4.44.08-3.23.07-7.34-.44-11.86,0-2.34.25-4.41.54-6.64.85s-4.4.66-6.62,1.08c-4.49,1-8.89,1.67-13,2.78-4.13.93-8,2.37-11.3,3.26s-6,2.26-8,2.89C30.1,464,29,464.49,29,464.49s1.17.34,3.19,1A60.75,60.75,0,0,0,40.72,467c3.51.2,7.62.72,11.94.58a110.64,110.64,0,0,0,13.61-1.37c2.32-.54,4.54-1,6.81-1.44s4.47-1.24,6.32-1.81c4-1.1,7.84-2.59,11.37-3.84a23.69,23.69,0,0,0,4.66-2.47,18.8,18.8,0,0,0,3.07-3,10.8,10.8,0,0,0,1.32-2.39A4.46,4.46,0,0,1,100.25,450.24Z" transform="translate(34.84 -356.82)"/><path class="cls-1" d="M99.79,455s-.87.34-2.29,1A13.84,13.84,0,0,1,95,457.2c-.91.46-2,1-3.14,1.63-.5.32-1.11.64-1.67,1s-1.17.53-1.88.86c-1.27.65-2.65,1.19-3.91,2-2.69,1.31-5.41,3-8.21,4.41-2.77,1.72-5.57,3.1-8.18,4.81-2.63,1.48-5,3.47-7.19,4.76a59.07,59.07,0,0,0-5.16,3.89c-1.24,1.11-2,1.73-2,1.73s.9.24,2.49.55a32.63,32.63,0,0,0,6.45.38,46.46,46.46,0,0,0,8.91-1.27,44.57,44.57,0,0,0,9.7-3.92,44.05,44.05,0,0,0,8.61-6.4,31.8,31.8,0,0,0,3.33-3.78c.49-.61,1-1.33,1.46-1.94s.87-1.21,1.31-1.81a16.79,16.79,0,0,0,1.89-3.46c.46-1.07.82-2.07,1.25-2.85C99.53,455.95,99.79,455,99.79,455Z" transform="translate(34.84 -356.82)"/><path class="cls-2" d="M238.5,449.4" transform="translate(34.84 -356.82)"/><path class="cls-3" d="M553.11,431.1a82.3,82.3,0,0,1,11.11-11.94,87.24,87.24,0,0,1,18.84-12.71c1.89-1,3.77-1.91,5.71-2.72,1-.43,1.94-.91,3-1.29s2-.71,3.06-1.09c4.08-1.48,8.46-2.76,12.89-3.94,8.76-2.56,18-4.44,26.59-6.71s16.56-4.84,23.38-7.22A96,96,0,0,0,673.3,376c1.79-1.15,3.06-2.11,4-2.74s1.38-1,1.38-1a13,13,0,0,1-1.63.57c-1.12.33-2.55.86-4.59,1.42-3.92,1.28-9.73,2.36-16.5,3.87s-14.91,2.43-23.67,4-18.07,3.18-27.49,5.64a136.14,136.14,0,0,0-13.86,4.66c-1.12.38-2.19.86-3.31,1.34s-2.09,1-3.21,1.58a61.55,61.55,0,0,0-6.12,3.5c-1,.57-2,1.29-2.91,1.92s-1.79,1.3-2.71,1.92S571,404,570.1,404.73a24,24,0,0,0-2.4,2.07c-1.53,1.44-3,2.89-4.25,4.33s-2.51,2.89-3.69,4.24a60.86,60.86,0,0,0-8.48,14.81,40.79,40.79,0,0,0-1.72,6.14A50.22,50.22,0,0,1,553.11,431.1Z" transform="translate(34.84 -356.82)"/><path class="cls-4" d="M550.36,440.14a.35.35,0,0,0,.36-.09,6.56,6.56,0,0,0,.92-.82c.77-.77,1.84-1.93,3.22-3.27A89.83,89.83,0,0,1,567,425.62a72.31,72.31,0,0,1,19.74-9.71,212.12,212.12,0,0,1,25.21-6c8.81-1.79,17.82-3.28,26.32-5.31a159.12,159.12,0,0,0,22.88-7.12,59.1,59.1,0,0,0,8.57-4.21c2.35-1.53,4.39-3,6-4.17a43.4,43.4,0,0,0,3.43-3.13c.72-.82,1.13-1.2,1.13-1.2s-.51.34-1.43.81a27.22,27.22,0,0,1-4.18,1.91,102.82,102.82,0,0,1-15.49,4.65c-6.52,1.65-14.36,2.58-22.75,3.83s-17.51,2.56-26.67,4.19c-9.06,1.88-18.33,4.05-26.59,7.73A64.81,64.81,0,0,0,563,421.53,55.42,55.42,0,0,0,553.19,435c-.82,1.79-1.54,3.14-2,4.1-.26.48-.46.82-.62,1.06-.1,0-.15.14-.26.14h-.1S550.26,440.33,550.36,440.14Z" transform="translate(34.84 -356.82)"/><path class="cls-5" d="M551.3,444.6a1.56,1.56,0,0,0,1.12-.24,28.43,28.43,0,0,0,3.57-2.3,95.43,95.43,0,0,1,12.1-7.67,54.25,54.25,0,0,1,8.57-3.68,95.86,95.86,0,0,1,10.08-2.6c7.18-1.51,15.12-2.72,23.16-3.73,8.09-1.26,16.24-2.27,23.87-3.82a145.22,145.22,0,0,0,20.73-5.68,50.66,50.66,0,0,0,7.9-3.58c2.3-1.29,4.08-2.54,5.62-3.6a12.24,12.24,0,0,0,1.89-1.54l1.28-1.2c.67-.72,1-1.06,1-1.06l-1.38.62a12.71,12.71,0,0,1-1.63.72A16.81,16.81,0,0,1,667,406a43.56,43.56,0,0,1-6.11,1.75c-2.44.57-5.09,1.08-8,1.65-6,1.13-13,1.57-20.56,2.39s-15.67,1.55-23.92,2.61c-8.14,1.26-16.49,2.71-24.13,5.18a55.89,55.89,0,0,0-10.81,4.44,68.06,68.06,0,0,0-8.68,5.66c-5.11,3.89-8.08,8.23-10.24,11a32.75,32.75,0,0,1-2.41,3.23,1.15,1.15,0,0,1-.87.48.53.53,0,0,1-.36-.1C550.89,444.21,551,444.4,551.3,444.6Z" transform="translate(34.84 -356.82)"/><path class="cls-6" d="M551.78,448.47a1.32,1.32,0,0,0,.91.39,4.48,4.48,0,0,0,1.63-.33c.56-.24,1.27-.52,1.94-.86a66.66,66.66,0,0,1,11.07-5.16,26.46,26.46,0,0,1,7.48-1.31c1.37,0,2.7,0,4.07.12.76.05,1.53.06,2.29.16s1.58.06,2.44.16c6.61.38,13.73.42,20.85.22a179.57,179.57,0,0,0,21-2.15,126.32,126.32,0,0,0,17.93-4.59,59.38,59.38,0,0,0,11.83-5.59c1.33-.86,2.3-1.68,3-2.16s1-.72,1-.72-.41.09-1.27.33a31.72,31.72,0,0,1-3.46.8c-3,.71-7.28,1.17-12.37,1.86s-11.09.8-17.55,1.25-13.33.65-20.29.84c-7,.44-13.94.54-20.45,1-.81,0-1.68,0-2.44.13s-1.53.14-2.44.23a35,35,0,0,0-5.19.84,31.27,31.27,0,0,0-8.77,3.48c-5.1,2.87-7.77,6.68-9.82,8.75a6.08,6.08,0,0,1-2.45,2.26,1,1,0,0,1-.86,0,.72.72,0,0,1-.25-.15A1.12,1.12,0,0,1,551.78,448.47Z" transform="translate(34.84 -356.82)"/><path class="cls-7" d="M552.93,452.89a4.64,4.64,0,0,0,3,1c2.8-.08,6.46-.83,10.28-1.39a20.65,20.65,0,0,1,6-.06c1,.2,2.13.35,3.15.6a7.93,7.93,0,0,1,1.62.4c.66.15,1.27.35,1.93.5a99.54,99.54,0,0,0,16.87,2.62,116.58,116.58,0,0,0,17-.24c5.44-.35,10.49-1.63,14.71-2.48a61,61,0,0,0,9.94-3.33c2.3-1.15,3.57-1.77,3.57-1.77l-4-.17c-2.54,0-6.1-.38-10.27-.4s-9-.54-14.18-.72-10.68-.55-16.11-1-10.93-.79-16-1.21c-.66-.05-1.27-.06-1.93-.16s-1.42-.15-2.19-.16a18.37,18.37,0,0,0-4.32.22,37.38,37.38,0,0,0-7.39,2c-4.33,1.67-7,4.22-9,4.93a3.54,3.54,0,0,1-2.55.47,4.8,4.8,0,0,1-.91-.34A1.79,1.79,0,0,0,552.93,452.89Z" transform="translate(34.84 -356.82)"/><path class="cls-8" d="M553.21,457.05a9,9,0,0,0,1.41,1.94,17.85,17.85,0,0,0,3.14,2.34,25,25,0,0,0,4.67,1.87c3.5.89,7.36,2,11.27,2.73,1.83.4,4.06.9,6.25,1.25s4.42.56,6.71.91a125.38,125.38,0,0,0,13.32.57c4.22-.07,8.19-.68,11.6-1a67.39,67.39,0,0,0,8.25-1.64c1.94-.62,3.06-.95,3.06-.95s-1.12-.35-3-1c-2-.45-4.67-1.48-8-2.08s-7.11-1.64-11.17-2.25-8.38-1.16-12.8-1.77c-2.19-.26-4.37-.46-6.51-.62s-4.22-.32-6.51-.43c-4.42-.17-8.39.43-11.55.51-1.63,0-3.05.13-4.32.12a11,11,0,0,1-3.3-.41,8.31,8.31,0,0,1-2.18-.64c-.51-.25-.76-.34-.76-.34A3.54,3.54,0,0,1,553.21,457.05Z" transform="translate(34.84 -356.82)"/><path class="cls-9" d="M554.34,462.38c.45.63.86,1.46,1.36,2.33a13.93,13.93,0,0,0,2,2.82c.45.49,1,1,1.36,1.46s1,1.07,1.52,1.56a29.18,29.18,0,0,0,3.44,3,44.16,44.16,0,0,0,8.72,5,48.51,48.51,0,0,0,9.64,2.87,52.53,52.53,0,0,0,8.74.68,36.77,36.77,0,0,0,6.26-.59c1.53-.33,2.39-.57,2.39-.57s-.76-.49-2-1.37a59,59,0,0,0-5.22-3c-2.18-1-4.61-2.55-7.25-3.67-2.64-1.32-5.43-2.36-8.22-3.68-2.79-1-5.53-2.36-8.22-3.34-1.27-.59-2.64-1-3.91-1.48-.71-.25-1.27-.39-1.88-.64s-1.17-.49-1.67-.74c-1.12-.49-2.23-.88-3.15-1.23a14.85,14.85,0,0,1-2.54-.89c-1.42-.49-2.28-.74-2.28-.74S553.74,460.93,554.34,462.38Z" transform="translate(34.84 -356.82)"/><path class="cls-10" d="M187.72,371.73c14.82-11.24,29.78-16.4,33.42-11.53s-5.42,17.92-20.24,29.16-29.78,16.4-33.42,11.53S172.9,383,187.72,371.73Z" transform="translate(34.84 -356.82)"/><path class="cls-11" d="M87.5,458.1" transform="translate(34.84 -356.82)"/><text class="cls-12" transform="translate(146.22 119.18)"><tspan class="cls-13">Y</tspan><tspan x="54.81" y="0">OU WIN</tspan></text></svg>